%TF.GenerationSoftware,KiCad,Pcbnew,6.0.2*%
%TF.CreationDate,2022-03-10T12:43:27-05:00*%
%TF.ProjectId,prox-sense-single-mtch105-omni-v0.1-19.05mm-handsolder,70726f78-2d73-4656-9e73-652d73696e67,v0.1*%
%TF.SameCoordinates,Original*%
%TF.FileFunction,Copper,L1,Top*%
%TF.FilePolarity,Positive*%
%FSLAX46Y46*%
G04 Gerber Fmt 4.6, Leading zero omitted, Abs format (unit mm)*
G04 Created by KiCad (PCBNEW 6.0.2) date 2022-03-10 12:43:27*
%MOMM*%
%LPD*%
G01*
G04 APERTURE LIST*
G04 Aperture macros list*
%AMRoundRect*
0 Rectangle with rounded corners*
0 $1 Rounding radius*
0 $2 $3 $4 $5 $6 $7 $8 $9 X,Y pos of 4 corners*
0 Add a 4 corners polygon primitive as box body*
4,1,4,$2,$3,$4,$5,$6,$7,$8,$9,$2,$3,0*
0 Add four circle primitives for the rounded corners*
1,1,$1+$1,$2,$3*
1,1,$1+$1,$4,$5*
1,1,$1+$1,$6,$7*
1,1,$1+$1,$8,$9*
0 Add four rect primitives between the rounded corners*
20,1,$1+$1,$2,$3,$4,$5,0*
20,1,$1+$1,$4,$5,$6,$7,0*
20,1,$1+$1,$6,$7,$8,$9,0*
20,1,$1+$1,$8,$9,$2,$3,0*%
G04 Aperture macros list end*
%TA.AperFunction,EtchedComponent*%
%ADD10C,0.354009*%
%TD*%
%TA.AperFunction,SMDPad,CuDef*%
%ADD11RoundRect,0.237500X0.237500X-0.250000X0.237500X0.250000X-0.237500X0.250000X-0.237500X-0.250000X0*%
%TD*%
%TA.AperFunction,SMDPad,CuDef*%
%ADD12RoundRect,0.237500X-0.237500X0.300000X-0.237500X-0.300000X0.237500X-0.300000X0.237500X0.300000X0*%
%TD*%
%TA.AperFunction,SMDPad,CuDef*%
%ADD13R,0.355600X1.308100*%
%TD*%
%TA.AperFunction,ComponentPad*%
%ADD14R,1.700000X1.700000*%
%TD*%
%TA.AperFunction,ComponentPad*%
%ADD15O,1.700000X1.700000*%
%TD*%
%TA.AperFunction,SMDPad,CuDef*%
%ADD16RoundRect,0.237500X-0.237500X0.250000X-0.237500X-0.250000X0.237500X-0.250000X0.237500X0.250000X0*%
%TD*%
%TA.AperFunction,SMDPad,CuDef*%
%ADD17R,1.500000X1.000000*%
%TD*%
%TA.AperFunction,ComponentPad*%
%ADD18C,1.000000*%
%TD*%
%TA.AperFunction,SMDPad,CuDef*%
%ADD19C,1.000000*%
%TD*%
%TA.AperFunction,ViaPad*%
%ADD20C,0.508000*%
%TD*%
%TA.AperFunction,Conductor*%
%ADD21C,0.152400*%
%TD*%
%TA.AperFunction,Conductor*%
%ADD22C,0.304800*%
%TD*%
G04 APERTURE END LIST*
%TO.C,JP1*%
G36*
X138990000Y-109122500D02*
G01*
X138390000Y-109122500D01*
X138390000Y-108622500D01*
X138990000Y-108622500D01*
X138990000Y-109122500D01*
G37*
D10*
%TO.C,U2*%
X142500248Y-68747087D02*
X143093314Y-68762089D01*
X143093314Y-68762089D02*
X143678595Y-68806600D01*
X143678595Y-68806600D02*
X144255366Y-68879896D01*
X144255366Y-68879896D02*
X144822903Y-68981253D01*
X144822903Y-68981253D02*
X145380483Y-69109946D01*
X145380483Y-69109946D02*
X145927380Y-69265251D01*
X145927380Y-69265251D02*
X146462871Y-69446445D01*
X146462871Y-69446445D02*
X146986232Y-69652803D01*
X146986232Y-69652803D02*
X147496738Y-69883601D01*
X147496738Y-69883601D02*
X147993666Y-70138115D01*
X147993666Y-70138115D02*
X148476291Y-70415621D01*
X148476291Y-70415621D02*
X148943890Y-70715394D01*
X148943890Y-70715394D02*
X149395738Y-71036712D01*
X149395738Y-71036712D02*
X149831111Y-71378848D01*
X149831111Y-71378848D02*
X150249285Y-71741081D01*
X150249285Y-71741081D02*
X150649535Y-72122684D01*
X150649535Y-72122684D02*
X151031139Y-72522935D01*
X151031139Y-72522935D02*
X151393371Y-72941109D01*
X151393371Y-72941109D02*
X151735508Y-73376482D01*
X151735508Y-73376482D02*
X152056825Y-73828329D01*
X152056825Y-73828329D02*
X152356599Y-74295928D01*
X152356599Y-74295928D02*
X152634104Y-74778553D01*
X152634104Y-74778553D02*
X152888618Y-75275481D01*
X152888618Y-75275481D02*
X153119416Y-75785987D01*
X153119416Y-75785987D02*
X153325774Y-76309347D01*
X153325774Y-76309347D02*
X153506968Y-76844838D01*
X153506968Y-76844838D02*
X153662273Y-77391735D01*
X153662273Y-77391735D02*
X153790966Y-77949314D01*
X153790966Y-77949314D02*
X153892322Y-78516850D01*
X153892322Y-78516850D02*
X153965618Y-79093621D01*
X153965618Y-79093621D02*
X154010129Y-79678901D01*
X154010129Y-79678901D02*
X154025131Y-80271967D01*
X154025131Y-80271967D02*
X154011841Y-80829269D01*
X154011841Y-80829269D02*
X153972358Y-81380126D01*
X153972358Y-81380126D02*
X153907266Y-81923901D01*
X153907266Y-81923901D02*
X153817147Y-82459959D01*
X153817147Y-82459959D02*
X153702586Y-82987663D01*
X153702586Y-82987663D02*
X153564165Y-83506376D01*
X153564165Y-83506376D02*
X153402467Y-84015463D01*
X153402467Y-84015463D02*
X153218075Y-84514287D01*
X153218075Y-84514287D02*
X153011573Y-85002211D01*
X153011573Y-85002211D02*
X152783544Y-85478601D01*
X152783544Y-85478601D02*
X152534571Y-85942818D01*
X152534571Y-85942818D02*
X152265237Y-86394228D01*
X152265237Y-86394228D02*
X151976124Y-86832193D01*
X151976124Y-86832193D02*
X151667817Y-87256078D01*
X151667817Y-87256078D02*
X151340899Y-87665246D01*
X151340899Y-87665246D02*
X150995952Y-88059061D01*
X150995952Y-88059061D02*
X150633559Y-88436886D01*
X150633559Y-88436886D02*
X150254305Y-88798086D01*
X150254305Y-88798086D02*
X149858771Y-89142024D01*
X149858771Y-89142024D02*
X149447542Y-89468064D01*
X149447542Y-89468064D02*
X149021199Y-89775569D01*
X149021199Y-89775569D02*
X148580327Y-90063904D01*
X148580327Y-90063904D02*
X148125509Y-90332431D01*
X148125509Y-90332431D02*
X147657327Y-90580515D01*
X147657327Y-90580515D02*
X147176365Y-90807520D01*
X147176365Y-90807520D02*
X146683205Y-91012809D01*
X146683205Y-91012809D02*
X146178432Y-91195746D01*
X146178432Y-91195746D02*
X145662628Y-91355694D01*
X145662628Y-91355694D02*
X145136377Y-91492018D01*
X145136377Y-91492018D02*
X144600260Y-91604080D01*
X144600260Y-91604080D02*
X144054863Y-91691246D01*
X144054863Y-91691246D02*
X143500767Y-91752878D01*
X143500767Y-91752878D02*
X143500187Y-90749368D01*
X143500187Y-90749368D02*
X144002693Y-90689357D01*
X144002693Y-90689357D02*
X144497197Y-90606359D01*
X144497197Y-90606359D02*
X144983177Y-90500948D01*
X144983177Y-90500948D02*
X145460112Y-90373696D01*
X145460112Y-90373696D02*
X145927480Y-90225177D01*
X145927480Y-90225177D02*
X146384760Y-90055966D01*
X146384760Y-90055966D02*
X146831431Y-89866635D01*
X146831431Y-89866635D02*
X147266971Y-89657757D01*
X147266971Y-89657757D02*
X147690859Y-89429907D01*
X147690859Y-89429907D02*
X148102574Y-89183658D01*
X148102574Y-89183658D02*
X148501594Y-88919584D01*
X148501594Y-88919584D02*
X148887398Y-88638257D01*
X148887398Y-88638257D02*
X149259464Y-88340252D01*
X149259464Y-88340252D02*
X149617272Y-88026141D01*
X149617272Y-88026141D02*
X149960299Y-87696499D01*
X149960299Y-87696499D02*
X150288025Y-87351899D01*
X150288025Y-87351899D02*
X150599927Y-86992914D01*
X150599927Y-86992914D02*
X150895486Y-86620118D01*
X150895486Y-86620118D02*
X151174178Y-86234084D01*
X151174178Y-86234084D02*
X151435484Y-85835387D01*
X151435484Y-85835387D02*
X151678881Y-85424598D01*
X151678881Y-85424598D02*
X151903849Y-85002293D01*
X151903849Y-85002293D02*
X152109865Y-84569044D01*
X152109865Y-84569044D02*
X152296409Y-84125425D01*
X152296409Y-84125425D02*
X152462960Y-83672009D01*
X152462960Y-83672009D02*
X152608994Y-83209370D01*
X152608994Y-83209370D02*
X152733993Y-82738081D01*
X152733993Y-82738081D02*
X152837433Y-82258717D01*
X152837433Y-82258717D02*
X152918794Y-81771849D01*
X152918794Y-81771849D02*
X152977555Y-81278053D01*
X152977555Y-81278053D02*
X153013193Y-80777901D01*
X153013193Y-80777901D02*
X153025189Y-80271967D01*
X153025189Y-80271967D02*
X153011494Y-79730362D01*
X153011494Y-79730362D02*
X152970850Y-79195867D01*
X152970850Y-79195867D02*
X152903919Y-78669142D01*
X152903919Y-78669142D02*
X152811361Y-78150850D01*
X152811361Y-78150850D02*
X152693839Y-77641652D01*
X152693839Y-77641652D02*
X152552013Y-77142208D01*
X152552013Y-77142208D02*
X152386544Y-76653180D01*
X152386544Y-76653180D02*
X152198094Y-76175230D01*
X152198094Y-76175230D02*
X151987325Y-75709018D01*
X151987325Y-75709018D02*
X151754897Y-75255206D01*
X151754897Y-75255206D02*
X151501471Y-74814456D01*
X151501471Y-74814456D02*
X151227710Y-74387428D01*
X151227710Y-74387428D02*
X150934274Y-73974784D01*
X150934274Y-73974784D02*
X150621825Y-73577185D01*
X150621825Y-73577185D02*
X150291023Y-73195293D01*
X150291023Y-73195293D02*
X149942531Y-72829769D01*
X149942531Y-72829769D02*
X149577009Y-72481273D01*
X149577009Y-72481273D02*
X149195119Y-72150469D01*
X149195119Y-72150469D02*
X148797522Y-71838016D01*
X148797522Y-71838016D02*
X148384879Y-71544575D01*
X148384879Y-71544575D02*
X147957851Y-71270810D01*
X147957851Y-71270810D02*
X147517101Y-71017380D01*
X147517101Y-71017380D02*
X147063289Y-70784947D01*
X147063289Y-70784947D02*
X146597076Y-70574172D01*
X146597076Y-70574172D02*
X146119124Y-70385716D01*
X146119124Y-70385716D02*
X145630094Y-70220242D01*
X145630094Y-70220242D02*
X145130648Y-70078410D01*
X145130648Y-70078410D02*
X144621446Y-69960881D01*
X144621446Y-69960881D02*
X144103149Y-69868317D01*
X144103149Y-69868317D02*
X143576420Y-69801379D01*
X143576420Y-69801379D02*
X143041920Y-69760728D01*
X143041920Y-69760728D02*
X142500309Y-69747026D01*
X142500309Y-69747026D02*
X141978382Y-69759940D01*
X141978382Y-69759940D02*
X141459997Y-69798488D01*
X141459997Y-69798488D02*
X140946017Y-69862311D01*
X140946017Y-69862311D02*
X140437305Y-69951054D01*
X140437305Y-69951054D02*
X139934724Y-70064357D01*
X139934724Y-70064357D02*
X139439136Y-70201865D01*
X139439136Y-70201865D02*
X138951404Y-70363219D01*
X138951404Y-70363219D02*
X138472391Y-70548063D01*
X138472391Y-70548063D02*
X138002960Y-70756039D01*
X138002960Y-70756039D02*
X137543972Y-70986789D01*
X137543972Y-70986789D02*
X137096291Y-71239957D01*
X137096291Y-71239957D02*
X136660780Y-71515185D01*
X136660780Y-71515185D02*
X136238300Y-71812116D01*
X136238300Y-71812116D02*
X135829716Y-72130393D01*
X135829716Y-72130393D02*
X135435889Y-72469658D01*
X135435889Y-72469658D02*
X135057682Y-72829553D01*
X135057682Y-72829553D02*
X134697769Y-73207743D01*
X134697769Y-73207743D02*
X134358485Y-73601554D01*
X134358485Y-73601554D02*
X134040189Y-74010122D01*
X134040189Y-74010122D02*
X133743238Y-74432586D01*
X133743238Y-74432586D02*
X133467989Y-74868083D01*
X133467989Y-74868083D02*
X133214799Y-75315749D01*
X133214799Y-75315749D02*
X132984026Y-75774723D01*
X132984026Y-75774723D02*
X132776027Y-76244141D01*
X132776027Y-76244141D02*
X132591160Y-76723141D01*
X132591160Y-76723141D02*
X132429782Y-77210861D01*
X132429782Y-77210861D02*
X132292250Y-77706436D01*
X132292250Y-77706436D02*
X132178922Y-78209006D01*
X132178922Y-78209006D02*
X132090155Y-78717706D01*
X132090155Y-78717706D02*
X132026307Y-79231675D01*
X132026307Y-79231675D02*
X131987735Y-79750049D01*
X131987735Y-79750049D02*
X131974796Y-80271967D01*
X131974796Y-80271967D02*
X131986793Y-80777914D01*
X131986793Y-80777914D02*
X132022434Y-81278079D01*
X132022434Y-81278079D02*
X132081198Y-81771888D01*
X132081198Y-81771888D02*
X132162565Y-82258767D01*
X132162565Y-82258767D02*
X132266012Y-82738143D01*
X132266012Y-82738143D02*
X132391019Y-83209443D01*
X132391019Y-83209443D02*
X132537063Y-83672092D01*
X132537063Y-83672092D02*
X132703623Y-84125517D01*
X132703623Y-84125517D02*
X132890179Y-84569145D01*
X132890179Y-84569145D02*
X133096207Y-85002402D01*
X133096207Y-85002402D02*
X133321188Y-85424714D01*
X133321188Y-85424714D02*
X133564600Y-85835509D01*
X133564600Y-85835509D02*
X133825921Y-86234212D01*
X133825921Y-86234212D02*
X134104629Y-86620250D01*
X134104629Y-86620250D02*
X134400204Y-86993049D01*
X134400204Y-86993049D02*
X134712124Y-87352036D01*
X134712124Y-87352036D02*
X135039867Y-87696638D01*
X135039867Y-87696638D02*
X135382913Y-88026280D01*
X135382913Y-88026280D02*
X135740739Y-88340389D01*
X135740739Y-88340389D02*
X136112824Y-88638392D01*
X136112824Y-88638392D02*
X136498647Y-88919716D01*
X136498647Y-88919716D02*
X136897687Y-89183786D01*
X136897687Y-89183786D02*
X137309422Y-89430029D01*
X137309422Y-89430029D02*
X137733330Y-89657871D01*
X137733330Y-89657871D02*
X138168890Y-89866739D01*
X138168890Y-89866739D02*
X138615581Y-90056060D01*
X138615581Y-90056060D02*
X139072881Y-90225260D01*
X139072881Y-90225260D02*
X139540269Y-90373765D01*
X139540269Y-90373765D02*
X140017223Y-90501002D01*
X140017223Y-90501002D02*
X140503223Y-90606397D01*
X140503223Y-90606397D02*
X140997746Y-90689377D01*
X140997746Y-90689377D02*
X141500271Y-90749368D01*
X141500271Y-90749368D02*
X141500309Y-91752924D01*
X141500309Y-91752924D02*
X140946191Y-91691343D01*
X140946191Y-91691343D02*
X140400769Y-91604226D01*
X140400769Y-91604226D02*
X139864627Y-91492209D01*
X139864627Y-91492209D02*
X139338348Y-91355929D01*
X139338348Y-91355929D02*
X138822516Y-91196021D01*
X138822516Y-91196021D02*
X138317713Y-91013123D01*
X138317713Y-91013123D02*
X137824522Y-90807869D01*
X137824522Y-90807869D02*
X137343528Y-90580896D01*
X137343528Y-90580896D02*
X136875313Y-90332841D01*
X136875313Y-90332841D02*
X136420460Y-90064339D01*
X136420460Y-90064339D02*
X135979553Y-89776027D01*
X135979553Y-89776027D02*
X135553174Y-89468541D01*
X135553174Y-89468541D02*
X135141908Y-89142517D01*
X135141908Y-89142517D02*
X134746337Y-88798591D01*
X134746337Y-88798591D02*
X134367045Y-88437399D01*
X134367045Y-88437399D02*
X134004615Y-88059579D01*
X134004615Y-88059579D02*
X133659630Y-87665764D01*
X133659630Y-87665764D02*
X133332673Y-87256593D01*
X133332673Y-87256593D02*
X133024327Y-86832701D01*
X133024327Y-86832701D02*
X132735177Y-86394724D01*
X132735177Y-86394724D02*
X132465804Y-85943299D01*
X132465804Y-85943299D02*
X132216792Y-85479061D01*
X132216792Y-85479061D02*
X131988726Y-85002648D01*
X131988726Y-85002648D02*
X131782186Y-84514694D01*
X131782186Y-84514694D02*
X131597758Y-84015836D01*
X131597758Y-84015836D02*
X131436024Y-83506711D01*
X131436024Y-83506711D02*
X131297567Y-82987955D01*
X131297567Y-82987955D02*
X131182971Y-82460203D01*
X131182971Y-82460203D02*
X131092819Y-81924092D01*
X131092819Y-81924092D02*
X131027693Y-81380258D01*
X131027693Y-81380258D02*
X130988179Y-80829338D01*
X130988179Y-80829338D02*
X130974857Y-80271967D01*
X130974857Y-80271967D02*
X130989022Y-79700487D01*
X130989022Y-79700487D02*
X131031255Y-79132884D01*
X131031255Y-79132884D02*
X131101164Y-78570102D01*
X131101164Y-78570102D02*
X131198359Y-78013086D01*
X131198359Y-78013086D02*
X131322449Y-77462782D01*
X131322449Y-77462782D02*
X131473041Y-76920133D01*
X131473041Y-76920133D02*
X131649746Y-76386086D01*
X131649746Y-76386086D02*
X131852170Y-75861583D01*
X131852170Y-75861583D02*
X132079924Y-75347572D01*
X132079924Y-75347572D02*
X132332615Y-74844995D01*
X132332615Y-74844995D02*
X132609853Y-74354799D01*
X132609853Y-74354799D02*
X132911246Y-73877928D01*
X132911246Y-73877928D02*
X133236403Y-73415327D01*
X133236403Y-73415327D02*
X133584933Y-72967940D01*
X133584933Y-72967940D02*
X133956443Y-72536713D01*
X133956443Y-72536713D02*
X134350544Y-72122591D01*
X134350544Y-72122591D02*
X134764676Y-71728499D01*
X134764676Y-71728499D02*
X135195913Y-71356997D01*
X135195913Y-71356997D02*
X135643309Y-71008478D01*
X135643309Y-71008478D02*
X136105920Y-70683331D01*
X136105920Y-70683331D02*
X136582801Y-70381948D01*
X136582801Y-70381948D02*
X137073008Y-70104722D01*
X137073008Y-70104722D02*
X137575595Y-69852042D01*
X137575595Y-69852042D02*
X138089618Y-69624300D01*
X138089618Y-69624300D02*
X138614132Y-69421887D01*
X138614132Y-69421887D02*
X139148193Y-69245195D01*
X139148193Y-69245195D02*
X139690856Y-69094615D01*
X139690856Y-69094615D02*
X140241176Y-68970538D01*
X140241176Y-68970538D02*
X140798209Y-68873355D01*
X140798209Y-68873355D02*
X141361009Y-68803459D01*
X141361009Y-68803459D02*
X141928632Y-68761239D01*
X141928632Y-68761239D02*
X142500134Y-68747087D01*
X142500134Y-68747087D02*
X142500248Y-68747087D01*
X142500248Y-68747087D02*
X142500248Y-68747087D01*
G36*
X143093314Y-68762089D02*
G01*
X143678595Y-68806600D01*
X144255366Y-68879896D01*
X144822903Y-68981253D01*
X145380483Y-69109946D01*
X145927380Y-69265251D01*
X146462871Y-69446445D01*
X146986232Y-69652803D01*
X147496738Y-69883601D01*
X147993666Y-70138115D01*
X148476291Y-70415621D01*
X148943890Y-70715394D01*
X149395738Y-71036712D01*
X149831111Y-71378848D01*
X150249285Y-71741081D01*
X150649535Y-72122684D01*
X151031139Y-72522935D01*
X151393371Y-72941109D01*
X151735508Y-73376482D01*
X152056825Y-73828329D01*
X152356599Y-74295928D01*
X152634104Y-74778553D01*
X152888618Y-75275481D01*
X153119416Y-75785987D01*
X153325774Y-76309347D01*
X153506968Y-76844838D01*
X153662273Y-77391735D01*
X153790966Y-77949314D01*
X153892322Y-78516850D01*
X153965618Y-79093621D01*
X154010129Y-79678901D01*
X154025131Y-80271967D01*
X154011841Y-80829269D01*
X153972358Y-81380126D01*
X153907266Y-81923901D01*
X153817147Y-82459959D01*
X153702586Y-82987663D01*
X153564165Y-83506376D01*
X153402467Y-84015463D01*
X153218075Y-84514287D01*
X153011573Y-85002211D01*
X152783544Y-85478601D01*
X152534571Y-85942818D01*
X152265237Y-86394228D01*
X151976124Y-86832193D01*
X151667817Y-87256078D01*
X151340899Y-87665246D01*
X150995952Y-88059061D01*
X150633559Y-88436886D01*
X150254305Y-88798086D01*
X149858771Y-89142024D01*
X149447542Y-89468064D01*
X149021199Y-89775569D01*
X148580327Y-90063904D01*
X148125509Y-90332431D01*
X147657327Y-90580515D01*
X147176365Y-90807520D01*
X146683205Y-91012809D01*
X146178432Y-91195746D01*
X145662628Y-91355694D01*
X145136377Y-91492018D01*
X144600260Y-91604080D01*
X144054863Y-91691246D01*
X143500767Y-91752878D01*
X143500187Y-90749368D01*
X144002693Y-90689357D01*
X144497197Y-90606359D01*
X144983177Y-90500948D01*
X145460112Y-90373696D01*
X145927480Y-90225177D01*
X146384760Y-90055966D01*
X146831431Y-89866635D01*
X147266971Y-89657757D01*
X147690859Y-89429907D01*
X148102574Y-89183658D01*
X148501594Y-88919584D01*
X148887398Y-88638257D01*
X149259464Y-88340252D01*
X149617272Y-88026141D01*
X149960299Y-87696499D01*
X150288025Y-87351899D01*
X150599927Y-86992914D01*
X150895486Y-86620118D01*
X151174178Y-86234084D01*
X151435484Y-85835387D01*
X151678881Y-85424598D01*
X151903849Y-85002293D01*
X152109865Y-84569044D01*
X152296409Y-84125425D01*
X152462960Y-83672009D01*
X152608994Y-83209370D01*
X152733993Y-82738081D01*
X152837433Y-82258717D01*
X152918794Y-81771849D01*
X152977555Y-81278053D01*
X153013193Y-80777901D01*
X153025189Y-80271967D01*
X153011494Y-79730362D01*
X152970850Y-79195867D01*
X152903919Y-78669142D01*
X152811361Y-78150850D01*
X152693839Y-77641652D01*
X152552013Y-77142208D01*
X152386544Y-76653180D01*
X152198094Y-76175230D01*
X151987325Y-75709018D01*
X151754897Y-75255206D01*
X151501471Y-74814456D01*
X151227710Y-74387428D01*
X150934274Y-73974784D01*
X150621825Y-73577185D01*
X150291023Y-73195293D01*
X149942531Y-72829769D01*
X149577009Y-72481273D01*
X149195119Y-72150469D01*
X148797522Y-71838016D01*
X148384879Y-71544575D01*
X147957851Y-71270810D01*
X147517101Y-71017380D01*
X147063289Y-70784947D01*
X146597076Y-70574172D01*
X146119124Y-70385716D01*
X145630094Y-70220242D01*
X145130648Y-70078410D01*
X144621446Y-69960881D01*
X144103149Y-69868317D01*
X143576420Y-69801379D01*
X143041920Y-69760728D01*
X142500309Y-69747026D01*
X141978382Y-69759940D01*
X141459997Y-69798488D01*
X140946017Y-69862311D01*
X140437305Y-69951054D01*
X139934724Y-70064357D01*
X139439136Y-70201865D01*
X138951404Y-70363219D01*
X138472391Y-70548063D01*
X138002960Y-70756039D01*
X137543972Y-70986789D01*
X137096291Y-71239957D01*
X136660780Y-71515185D01*
X136238300Y-71812116D01*
X135829716Y-72130393D01*
X135435889Y-72469658D01*
X135057682Y-72829553D01*
X134697769Y-73207743D01*
X134358485Y-73601554D01*
X134040189Y-74010122D01*
X133743238Y-74432586D01*
X133467989Y-74868083D01*
X133214799Y-75315749D01*
X132984026Y-75774723D01*
X132776027Y-76244141D01*
X132591160Y-76723141D01*
X132429782Y-77210861D01*
X132292250Y-77706436D01*
X132178922Y-78209006D01*
X132090155Y-78717706D01*
X132026307Y-79231675D01*
X131987735Y-79750049D01*
X131974796Y-80271967D01*
X131986793Y-80777914D01*
X132022434Y-81278079D01*
X132081198Y-81771888D01*
X132162565Y-82258767D01*
X132266012Y-82738143D01*
X132391019Y-83209443D01*
X132537063Y-83672092D01*
X132703623Y-84125517D01*
X132890179Y-84569145D01*
X133096207Y-85002402D01*
X133321188Y-85424714D01*
X133564600Y-85835509D01*
X133825921Y-86234212D01*
X134104629Y-86620250D01*
X134400204Y-86993049D01*
X134712124Y-87352036D01*
X135039867Y-87696638D01*
X135382913Y-88026280D01*
X135740739Y-88340389D01*
X136112824Y-88638392D01*
X136498647Y-88919716D01*
X136897687Y-89183786D01*
X137309422Y-89430029D01*
X137733330Y-89657871D01*
X138168890Y-89866739D01*
X138615581Y-90056060D01*
X139072881Y-90225260D01*
X139540269Y-90373765D01*
X140017223Y-90501002D01*
X140503223Y-90606397D01*
X140997746Y-90689377D01*
X141500271Y-90749368D01*
X141500309Y-91752924D01*
X140946191Y-91691343D01*
X140400769Y-91604226D01*
X139864627Y-91492209D01*
X139338348Y-91355929D01*
X138822516Y-91196021D01*
X138317713Y-91013123D01*
X137824522Y-90807869D01*
X137343528Y-90580896D01*
X136875313Y-90332841D01*
X136420460Y-90064339D01*
X135979553Y-89776027D01*
X135553174Y-89468541D01*
X135141908Y-89142517D01*
X134746337Y-88798591D01*
X134367045Y-88437399D01*
X134004615Y-88059579D01*
X133659630Y-87665764D01*
X133332673Y-87256593D01*
X133024327Y-86832701D01*
X132735177Y-86394724D01*
X132465804Y-85943299D01*
X132216792Y-85479061D01*
X131988726Y-85002648D01*
X131782186Y-84514694D01*
X131597758Y-84015836D01*
X131436024Y-83506711D01*
X131297567Y-82987955D01*
X131182971Y-82460203D01*
X131092819Y-81924092D01*
X131027693Y-81380258D01*
X130988179Y-80829338D01*
X130974857Y-80271967D01*
X130989022Y-79700487D01*
X131031255Y-79132884D01*
X131101164Y-78570102D01*
X131198359Y-78013086D01*
X131322449Y-77462782D01*
X131473041Y-76920133D01*
X131649746Y-76386086D01*
X131852170Y-75861583D01*
X132079924Y-75347572D01*
X132332615Y-74844995D01*
X132609853Y-74354799D01*
X132911246Y-73877928D01*
X133236403Y-73415327D01*
X133584933Y-72967940D01*
X133956443Y-72536713D01*
X134350544Y-72122591D01*
X134764676Y-71728499D01*
X135195913Y-71356997D01*
X135643309Y-71008478D01*
X136105920Y-70683331D01*
X136582801Y-70381948D01*
X137073008Y-70104722D01*
X137575595Y-69852042D01*
X138089618Y-69624300D01*
X138614132Y-69421887D01*
X139148193Y-69245195D01*
X139690856Y-69094615D01*
X140241176Y-68970538D01*
X140798209Y-68873355D01*
X141361009Y-68803459D01*
X141928632Y-68761239D01*
X142500134Y-68747087D01*
X142500248Y-68747087D01*
X143093314Y-68762089D01*
G37*
X143093314Y-68762089D02*
X143678595Y-68806600D01*
X144255366Y-68879896D01*
X144822903Y-68981253D01*
X145380483Y-69109946D01*
X145927380Y-69265251D01*
X146462871Y-69446445D01*
X146986232Y-69652803D01*
X147496738Y-69883601D01*
X147993666Y-70138115D01*
X148476291Y-70415621D01*
X148943890Y-70715394D01*
X149395738Y-71036712D01*
X149831111Y-71378848D01*
X150249285Y-71741081D01*
X150649535Y-72122684D01*
X151031139Y-72522935D01*
X151393371Y-72941109D01*
X151735508Y-73376482D01*
X152056825Y-73828329D01*
X152356599Y-74295928D01*
X152634104Y-74778553D01*
X152888618Y-75275481D01*
X153119416Y-75785987D01*
X153325774Y-76309347D01*
X153506968Y-76844838D01*
X153662273Y-77391735D01*
X153790966Y-77949314D01*
X153892322Y-78516850D01*
X153965618Y-79093621D01*
X154010129Y-79678901D01*
X154025131Y-80271967D01*
X154011841Y-80829269D01*
X153972358Y-81380126D01*
X153907266Y-81923901D01*
X153817147Y-82459959D01*
X153702586Y-82987663D01*
X153564165Y-83506376D01*
X153402467Y-84015463D01*
X153218075Y-84514287D01*
X153011573Y-85002211D01*
X152783544Y-85478601D01*
X152534571Y-85942818D01*
X152265237Y-86394228D01*
X151976124Y-86832193D01*
X151667817Y-87256078D01*
X151340899Y-87665246D01*
X150995952Y-88059061D01*
X150633559Y-88436886D01*
X150254305Y-88798086D01*
X149858771Y-89142024D01*
X149447542Y-89468064D01*
X149021199Y-89775569D01*
X148580327Y-90063904D01*
X148125509Y-90332431D01*
X147657327Y-90580515D01*
X147176365Y-90807520D01*
X146683205Y-91012809D01*
X146178432Y-91195746D01*
X145662628Y-91355694D01*
X145136377Y-91492018D01*
X144600260Y-91604080D01*
X144054863Y-91691246D01*
X143500767Y-91752878D01*
X143500187Y-90749368D01*
X144002693Y-90689357D01*
X144497197Y-90606359D01*
X144983177Y-90500948D01*
X145460112Y-90373696D01*
X145927480Y-90225177D01*
X146384760Y-90055966D01*
X146831431Y-89866635D01*
X147266971Y-89657757D01*
X147690859Y-89429907D01*
X148102574Y-89183658D01*
X148501594Y-88919584D01*
X148887398Y-88638257D01*
X149259464Y-88340252D01*
X149617272Y-88026141D01*
X149960299Y-87696499D01*
X150288025Y-87351899D01*
X150599927Y-86992914D01*
X150895486Y-86620118D01*
X151174178Y-86234084D01*
X151435484Y-85835387D01*
X151678881Y-85424598D01*
X151903849Y-85002293D01*
X152109865Y-84569044D01*
X152296409Y-84125425D01*
X152462960Y-83672009D01*
X152608994Y-83209370D01*
X152733993Y-82738081D01*
X152837433Y-82258717D01*
X152918794Y-81771849D01*
X152977555Y-81278053D01*
X153013193Y-80777901D01*
X153025189Y-80271967D01*
X153011494Y-79730362D01*
X152970850Y-79195867D01*
X152903919Y-78669142D01*
X152811361Y-78150850D01*
X152693839Y-77641652D01*
X152552013Y-77142208D01*
X152386544Y-76653180D01*
X152198094Y-76175230D01*
X151987325Y-75709018D01*
X151754897Y-75255206D01*
X151501471Y-74814456D01*
X151227710Y-74387428D01*
X150934274Y-73974784D01*
X150621825Y-73577185D01*
X150291023Y-73195293D01*
X149942531Y-72829769D01*
X149577009Y-72481273D01*
X149195119Y-72150469D01*
X148797522Y-71838016D01*
X148384879Y-71544575D01*
X147957851Y-71270810D01*
X147517101Y-71017380D01*
X147063289Y-70784947D01*
X146597076Y-70574172D01*
X146119124Y-70385716D01*
X145630094Y-70220242D01*
X145130648Y-70078410D01*
X144621446Y-69960881D01*
X144103149Y-69868317D01*
X143576420Y-69801379D01*
X143041920Y-69760728D01*
X142500309Y-69747026D01*
X141978382Y-69759940D01*
X141459997Y-69798488D01*
X140946017Y-69862311D01*
X140437305Y-69951054D01*
X139934724Y-70064357D01*
X139439136Y-70201865D01*
X138951404Y-70363219D01*
X138472391Y-70548063D01*
X138002960Y-70756039D01*
X137543972Y-70986789D01*
X137096291Y-71239957D01*
X136660780Y-71515185D01*
X136238300Y-71812116D01*
X135829716Y-72130393D01*
X135435889Y-72469658D01*
X135057682Y-72829553D01*
X134697769Y-73207743D01*
X134358485Y-73601554D01*
X134040189Y-74010122D01*
X133743238Y-74432586D01*
X133467989Y-74868083D01*
X133214799Y-75315749D01*
X132984026Y-75774723D01*
X132776027Y-76244141D01*
X132591160Y-76723141D01*
X132429782Y-77210861D01*
X132292250Y-77706436D01*
X132178922Y-78209006D01*
X132090155Y-78717706D01*
X132026307Y-79231675D01*
X131987735Y-79750049D01*
X131974796Y-80271967D01*
X131986793Y-80777914D01*
X132022434Y-81278079D01*
X132081198Y-81771888D01*
X132162565Y-82258767D01*
X132266012Y-82738143D01*
X132391019Y-83209443D01*
X132537063Y-83672092D01*
X132703623Y-84125517D01*
X132890179Y-84569145D01*
X133096207Y-85002402D01*
X133321188Y-85424714D01*
X133564600Y-85835509D01*
X133825921Y-86234212D01*
X134104629Y-86620250D01*
X134400204Y-86993049D01*
X134712124Y-87352036D01*
X135039867Y-87696638D01*
X135382913Y-88026280D01*
X135740739Y-88340389D01*
X136112824Y-88638392D01*
X136498647Y-88919716D01*
X136897687Y-89183786D01*
X137309422Y-89430029D01*
X137733330Y-89657871D01*
X138168890Y-89866739D01*
X138615581Y-90056060D01*
X139072881Y-90225260D01*
X139540269Y-90373765D01*
X140017223Y-90501002D01*
X140503223Y-90606397D01*
X140997746Y-90689377D01*
X141500271Y-90749368D01*
X141500309Y-91752924D01*
X140946191Y-91691343D01*
X140400769Y-91604226D01*
X139864627Y-91492209D01*
X139338348Y-91355929D01*
X138822516Y-91196021D01*
X138317713Y-91013123D01*
X137824522Y-90807869D01*
X137343528Y-90580896D01*
X136875313Y-90332841D01*
X136420460Y-90064339D01*
X135979553Y-89776027D01*
X135553174Y-89468541D01*
X135141908Y-89142517D01*
X134746337Y-88798591D01*
X134367045Y-88437399D01*
X134004615Y-88059579D01*
X133659630Y-87665764D01*
X133332673Y-87256593D01*
X133024327Y-86832701D01*
X132735177Y-86394724D01*
X132465804Y-85943299D01*
X132216792Y-85479061D01*
X131988726Y-85002648D01*
X131782186Y-84514694D01*
X131597758Y-84015836D01*
X131436024Y-83506711D01*
X131297567Y-82987955D01*
X131182971Y-82460203D01*
X131092819Y-81924092D01*
X131027693Y-81380258D01*
X130988179Y-80829338D01*
X130974857Y-80271967D01*
X130989022Y-79700487D01*
X131031255Y-79132884D01*
X131101164Y-78570102D01*
X131198359Y-78013086D01*
X131322449Y-77462782D01*
X131473041Y-76920133D01*
X131649746Y-76386086D01*
X131852170Y-75861583D01*
X132079924Y-75347572D01*
X132332615Y-74844995D01*
X132609853Y-74354799D01*
X132911246Y-73877928D01*
X133236403Y-73415327D01*
X133584933Y-72967940D01*
X133956443Y-72536713D01*
X134350544Y-72122591D01*
X134764676Y-71728499D01*
X135195913Y-71356997D01*
X135643309Y-71008478D01*
X136105920Y-70683331D01*
X136582801Y-70381948D01*
X137073008Y-70104722D01*
X137575595Y-69852042D01*
X138089618Y-69624300D01*
X138614132Y-69421887D01*
X139148193Y-69245195D01*
X139690856Y-69094615D01*
X140241176Y-68970538D01*
X140798209Y-68873355D01*
X141361009Y-68803459D01*
X141928632Y-68761239D01*
X142500134Y-68747087D01*
X142500248Y-68747087D01*
X143093314Y-68762089D01*
%TD*%
D11*
%TO.P,R4,1*%
%TO.N,SENSITIVITY*%
X141230000Y-109785000D03*
%TO.P,R4,2*%
%TO.N,Net-(C2-Pad1)*%
X141230000Y-107960000D03*
%TD*%
D12*
%TO.P,C1,1*%
%TO.N,+3V3*%
X146310000Y-100086000D03*
%TO.P,C1,2*%
%TO.N,GND*%
X146310000Y-101811000D03*
%TD*%
D13*
%TO.P,U1,1,VDD*%
%TO.N,+3V3*%
X144150001Y-98856902D03*
%TO.P,U1,2,MTI0*%
%TO.N,Net-(R2-Pad1)*%
X143500000Y-98856902D03*
%TO.P,U1,3,MTI1*%
%TO.N,unconnected-(U1-Pad3)*%
X142849999Y-98856902D03*
%TO.P,U1,4,MTPM*%
%TO.N,+3V3*%
X142200000Y-98856902D03*
%TO.P,U1,5,MTI2/GUARD*%
%TO.N,Net-(R1-Pad1)*%
X141550001Y-98856902D03*
%TO.P,U1,6,MTI3*%
%TO.N,unconnected-(U1-Pad6)*%
X140900000Y-98856902D03*
%TO.P,U1,7,MTI4*%
%TO.N,unconnected-(U1-Pad7)*%
X140250001Y-98856902D03*
%TO.P,U1,8,MTO4*%
%TO.N,unconnected-(U1-Pad8)*%
X140249999Y-104660802D03*
%TO.P,U1,9,MTO3*%
%TO.N,unconnected-(U1-Pad9)*%
X140900000Y-104660802D03*
%TO.P,U1,10,MTO2/GC*%
%TO.N,Net-(JP1-Pad1)*%
X141549999Y-104660802D03*
%TO.P,U1,11,MTSA*%
%TO.N,Net-(C2-Pad1)*%
X142200000Y-104660802D03*
%TO.P,U1,12,MTO1*%
%TO.N,unconnected-(U1-Pad12)*%
X142849999Y-104660802D03*
%TO.P,U1,13,MTO0*%
%TO.N,OUT*%
X143500000Y-104660802D03*
%TO.P,U1,14,VSS*%
%TO.N,GND*%
X144149999Y-104660802D03*
%TD*%
D14*
%TO.P,J1,1,Pin_1*%
%TO.N,GND*%
X138690000Y-113802000D03*
D15*
%TO.P,J1,2,Pin_2*%
%TO.N,SENSITIVITY*%
X141230000Y-113802000D03*
%TO.P,J1,3,Pin_3*%
%TO.N,OUT*%
X143770000Y-113802000D03*
%TO.P,J1,4,Pin_4*%
%TO.N,+3V3*%
X146310000Y-113802000D03*
%TD*%
D11*
%TO.P,R1,1*%
%TO.N,Net-(R1-Pad1)*%
X141500000Y-96323000D03*
%TO.P,R1,2*%
%TO.N,GUARD*%
X141500000Y-94498000D03*
%TD*%
D16*
%TO.P,R3,1*%
%TO.N,+3V3*%
X146310000Y-107960000D03*
%TO.P,R3,2*%
%TO.N,OUT*%
X146310000Y-109785000D03*
%TD*%
D12*
%TO.P,C2,1*%
%TO.N,Net-(C2-Pad1)*%
X143770000Y-108010000D03*
%TO.P,C2,2*%
%TO.N,GND*%
X143770000Y-109735000D03*
%TD*%
D17*
%TO.P,JP1,1,A*%
%TO.N,Net-(JP1-Pad1)*%
X138690000Y-108222500D03*
%TO.P,JP1,2,B*%
%TO.N,GND*%
X138690000Y-109522500D03*
%TD*%
D11*
%TO.P,R2,1*%
%TO.N,Net-(R2-Pad1)*%
X143500000Y-96323000D03*
%TO.P,R2,2*%
%TO.N,SENSE0*%
X143500000Y-94498000D03*
%TD*%
D18*
%TO.P,U2,2,GUARD*%
%TO.N,GUARD*%
X140999994Y-91250005D03*
D19*
X143999994Y-91250005D03*
%TD*%
D20*
%TO.N,SENSE0*%
X142501798Y-92367557D03*
%TO.N,GND*%
X146000000Y-105500000D03*
X142750000Y-101758852D03*
X147750000Y-108000000D03*
X142750000Y-107250000D03*
X137000000Y-99250000D03*
X147750000Y-115250000D03*
X138750000Y-111000000D03*
X146250000Y-111000000D03*
X142750000Y-111000000D03*
X137250000Y-115250000D03*
X137000000Y-105500000D03*
X147750000Y-99250000D03*
%TD*%
D21*
%TO.N,SENSE0*%
X142500000Y-93498000D02*
X142501000Y-93499000D01*
X142501000Y-93499000D02*
X143500000Y-94498000D01*
X142501000Y-92368355D02*
X142501798Y-92367557D01*
X142501000Y-93499000D02*
X142501000Y-92368355D01*
%TO.N,GUARD*%
X141000000Y-91250000D02*
X141500000Y-91750000D01*
X141500000Y-91750000D02*
X141500000Y-94498000D01*
%TO.N,Net-(R1-Pad1)*%
X141550001Y-97942454D02*
X141500000Y-97892453D01*
X141550001Y-98856902D02*
X141550001Y-97942454D01*
X141500000Y-97892453D02*
X141500000Y-96323000D01*
%TO.N,Net-(R2-Pad1)*%
X143500000Y-98856902D02*
X143500000Y-96323000D01*
D22*
%TO.N,+3V3*%
X146310000Y-100086000D02*
X142430625Y-100086000D01*
X147160000Y-112952000D02*
X147160000Y-108810000D01*
X145379099Y-100086000D02*
X144150001Y-98856902D01*
X146310000Y-100086000D02*
X145379099Y-100086000D01*
X146310000Y-107960000D02*
X147089320Y-107180680D01*
X147089320Y-100865320D02*
X146310000Y-100086000D01*
X142430625Y-100086000D02*
X142200000Y-99855375D01*
X147160000Y-108810000D02*
X146310000Y-107960000D01*
X146310000Y-113802000D02*
X147160000Y-112952000D01*
X147089320Y-107180680D02*
X147089320Y-100865320D01*
X142200000Y-99855375D02*
X142200000Y-98856902D01*
%TO.N,OUT*%
X143770000Y-113802000D02*
X143770000Y-112325000D01*
X143770000Y-112325000D02*
X146310000Y-109785000D01*
X146310000Y-109785000D02*
X145500000Y-108975000D01*
X145500000Y-108975000D02*
X145500000Y-107500000D01*
X145500000Y-107500000D02*
X143500000Y-105500000D01*
X143500000Y-105500000D02*
X143500000Y-104660802D01*
%TO.N,SENSITIVITY*%
X141230000Y-113802000D02*
X141230000Y-109785000D01*
%TO.N,Net-(C2-Pad1)*%
X141230000Y-107960000D02*
X143720000Y-107960000D01*
X142200000Y-104660802D02*
X142200000Y-106990000D01*
X143720000Y-107960000D02*
X143770000Y-108010000D01*
X142200000Y-106990000D02*
X141230000Y-107960000D01*
%TO.N,Net-(JP1-Pad1)*%
X138690000Y-108222500D02*
X141549999Y-105362501D01*
X141549999Y-105362501D02*
X141549999Y-104660802D01*
%TD*%
%TA.AperFunction,Conductor*%
%TO.N,GND*%
G36*
X139632822Y-98070002D02*
G01*
X139679315Y-98123658D01*
X139690701Y-98176000D01*
X139690701Y-99547110D01*
X139701739Y-99622096D01*
X139757714Y-99736103D01*
X139847600Y-99825832D01*
X139961704Y-99881607D01*
X139994485Y-99886389D01*
X140031517Y-99891792D01*
X140031521Y-99891792D01*
X140036043Y-99892452D01*
X140463959Y-99892452D01*
X140468507Y-99891782D01*
X140468514Y-99891782D01*
X140529260Y-99882840D01*
X140529262Y-99882839D01*
X140538945Y-99881414D01*
X140541336Y-99880240D01*
X140608801Y-99880189D01*
X140611703Y-99881607D01*
X140621376Y-99883018D01*
X140621379Y-99883019D01*
X140681516Y-99891792D01*
X140681520Y-99891792D01*
X140686042Y-99892452D01*
X141113958Y-99892452D01*
X141118506Y-99891782D01*
X141118513Y-99891782D01*
X141179259Y-99882840D01*
X141179261Y-99882839D01*
X141188944Y-99881414D01*
X141191335Y-99880240D01*
X141258798Y-99880187D01*
X141261704Y-99881607D01*
X141271381Y-99883019D01*
X141271382Y-99883019D01*
X141331517Y-99891792D01*
X141331521Y-99891792D01*
X141336043Y-99892452D01*
X141556391Y-99892452D01*
X141624512Y-99912454D01*
X141671005Y-99966110D01*
X141677749Y-99984566D01*
X141679766Y-99991791D01*
X141680932Y-100000301D01*
X141684344Y-100008185D01*
X141684345Y-100008189D01*
X141686587Y-100013370D01*
X141693619Y-100034633D01*
X141694910Y-100040136D01*
X141694913Y-100040143D01*
X141696874Y-100048506D01*
X141701011Y-100056032D01*
X141701014Y-100056039D01*
X141717122Y-100085340D01*
X141722343Y-100095997D01*
X141739027Y-100134550D01*
X141747996Y-100145626D01*
X141760481Y-100164208D01*
X141767345Y-100176693D01*
X141774135Y-100184559D01*
X141797793Y-100208217D01*
X141806618Y-100218018D01*
X141831084Y-100248231D01*
X141838085Y-100253206D01*
X141838088Y-100253209D01*
X141845700Y-100258618D01*
X141861807Y-100272230D01*
X142042741Y-100453164D01*
X142046394Y-100456973D01*
X142087104Y-100501245D01*
X142094404Y-100505771D01*
X142094405Y-100505772D01*
X142122816Y-100523388D01*
X142132599Y-100530111D01*
X142166067Y-100555515D01*
X142174049Y-100558675D01*
X142174050Y-100558676D01*
X142176521Y-100559654D01*
X142179314Y-100560760D01*
X142199318Y-100570821D01*
X142211426Y-100578328D01*
X142219675Y-100580725D01*
X142219676Y-100580725D01*
X142251773Y-100590050D01*
X142263002Y-100593895D01*
X142294086Y-100606202D01*
X142294090Y-100606203D01*
X142302074Y-100609364D01*
X142310612Y-100610261D01*
X142310615Y-100610262D01*
X142316241Y-100610853D01*
X142338220Y-100615165D01*
X142345564Y-100617299D01*
X142345566Y-100617299D01*
X142351898Y-100619139D01*
X142358819Y-100619647D01*
X142359954Y-100619731D01*
X142359965Y-100619731D01*
X142362261Y-100619900D01*
X142395715Y-100619900D01*
X142408885Y-100620590D01*
X142439008Y-100623756D01*
X142439009Y-100623756D01*
X142447553Y-100624654D01*
X142456025Y-100623221D01*
X142456027Y-100623221D01*
X142465225Y-100621665D01*
X142486238Y-100619900D01*
X145344189Y-100619900D01*
X145357359Y-100620590D01*
X145387482Y-100623756D01*
X145387483Y-100623756D01*
X145396027Y-100624654D01*
X145404501Y-100623221D01*
X145413079Y-100622951D01*
X145413159Y-100625499D01*
X145470652Y-100632315D01*
X145525443Y-100677464D01*
X145529620Y-100684052D01*
X145556145Y-100728904D01*
X145579506Y-100768405D01*
X145585112Y-100774011D01*
X145589968Y-100780271D01*
X145587649Y-100782070D01*
X145615033Y-100832218D01*
X145609968Y-100903033D01*
X145581085Y-100948018D01*
X145488641Y-101040624D01*
X145479625Y-101052040D01*
X145396088Y-101187563D01*
X145389944Y-101200741D01*
X145339685Y-101352266D01*
X145336819Y-101365632D01*
X145327328Y-101458270D01*
X145327000Y-101464685D01*
X145327000Y-101538885D01*
X145331475Y-101554124D01*
X145332865Y-101555329D01*
X145340548Y-101557000D01*
X146429420Y-101557000D01*
X146497541Y-101577002D01*
X146544034Y-101630658D01*
X146555420Y-101683000D01*
X146555420Y-106907341D01*
X146535418Y-106975462D01*
X146518515Y-106996436D01*
X146460856Y-107054095D01*
X146398544Y-107088121D01*
X146371761Y-107091000D01*
X146028718Y-107091001D01*
X146009982Y-107091001D01*
X145999496Y-107091826D01*
X145981314Y-107093256D01*
X145981312Y-107093256D01*
X145974897Y-107093761D01*
X145948752Y-107101357D01*
X145877756Y-107101154D01*
X145824504Y-107069455D01*
X144646051Y-105891002D01*
X144612025Y-105828690D01*
X144617090Y-105757875D01*
X144659580Y-105701081D01*
X144683525Y-105683135D01*
X144696084Y-105670576D01*
X144772585Y-105568501D01*
X144781123Y-105552906D01*
X144826277Y-105432458D01*
X144829904Y-105417203D01*
X144835430Y-105366338D01*
X144835799Y-105359524D01*
X144835799Y-104856717D01*
X144831324Y-104841478D01*
X144829934Y-104840273D01*
X144822251Y-104838602D01*
X144185300Y-104838602D01*
X144117179Y-104818600D01*
X144070686Y-104764944D01*
X144059300Y-104712602D01*
X144059300Y-104464887D01*
X144327799Y-104464887D01*
X144332274Y-104480126D01*
X144333664Y-104481331D01*
X144341347Y-104483002D01*
X144817683Y-104483002D01*
X144832922Y-104478527D01*
X144834127Y-104477137D01*
X144835798Y-104469454D01*
X144835798Y-103962083D01*
X144835428Y-103955262D01*
X144829904Y-103904400D01*
X144826278Y-103889148D01*
X144781123Y-103768698D01*
X144772585Y-103753103D01*
X144696084Y-103651028D01*
X144683523Y-103638467D01*
X144581448Y-103561966D01*
X144565853Y-103553428D01*
X144445405Y-103508274D01*
X144430150Y-103504647D01*
X144379285Y-103499121D01*
X144372471Y-103498752D01*
X144345914Y-103498752D01*
X144330675Y-103503227D01*
X144329470Y-103504617D01*
X144327799Y-103512300D01*
X144327799Y-104464887D01*
X144059300Y-104464887D01*
X144059300Y-103970594D01*
X144058048Y-103962083D01*
X144049688Y-103905293D01*
X144049687Y-103905291D01*
X144048262Y-103895608D01*
X143992287Y-103781601D01*
X143993121Y-103781191D01*
X143972199Y-103716026D01*
X143972199Y-103516868D01*
X143967724Y-103501629D01*
X143966334Y-103500424D01*
X143958651Y-103498753D01*
X143927530Y-103498753D01*
X143920709Y-103499123D01*
X143869847Y-103504647D01*
X143854595Y-103508273D01*
X143734145Y-103553428D01*
X143718551Y-103561966D01*
X143667698Y-103600078D01*
X143601192Y-103624926D01*
X143592133Y-103625252D01*
X143286042Y-103625252D01*
X143281494Y-103625922D01*
X143281487Y-103625922D01*
X143220741Y-103634864D01*
X143220739Y-103634865D01*
X143211056Y-103636290D01*
X143208665Y-103637464D01*
X143141202Y-103637517D01*
X143138296Y-103636097D01*
X143128619Y-103634685D01*
X143128618Y-103634685D01*
X143068483Y-103625912D01*
X143068479Y-103625912D01*
X143063957Y-103625252D01*
X142636041Y-103625252D01*
X142631493Y-103625922D01*
X142631486Y-103625922D01*
X142570740Y-103634864D01*
X142570738Y-103634865D01*
X142561055Y-103636290D01*
X142558664Y-103637464D01*
X142491199Y-103637515D01*
X142488297Y-103636097D01*
X142478624Y-103634686D01*
X142478621Y-103634685D01*
X142418484Y-103625912D01*
X142418480Y-103625912D01*
X142413958Y-103625252D01*
X141986042Y-103625252D01*
X141981494Y-103625922D01*
X141981487Y-103625922D01*
X141920741Y-103634864D01*
X141920739Y-103634865D01*
X141911056Y-103636290D01*
X141908665Y-103637464D01*
X141841202Y-103637517D01*
X141838296Y-103636097D01*
X141828619Y-103634685D01*
X141828618Y-103634685D01*
X141768483Y-103625912D01*
X141768479Y-103625912D01*
X141763957Y-103625252D01*
X141336041Y-103625252D01*
X141331493Y-103625922D01*
X141331486Y-103625922D01*
X141270740Y-103634864D01*
X141270738Y-103634865D01*
X141261055Y-103636290D01*
X141258664Y-103637464D01*
X141191199Y-103637515D01*
X141188297Y-103636097D01*
X141178624Y-103634686D01*
X141178621Y-103634685D01*
X141118484Y-103625912D01*
X141118480Y-103625912D01*
X141113958Y-103625252D01*
X140686042Y-103625252D01*
X140681494Y-103625922D01*
X140681487Y-103625922D01*
X140620741Y-103634864D01*
X140620739Y-103634865D01*
X140611056Y-103636290D01*
X140608665Y-103637464D01*
X140541202Y-103637517D01*
X140538296Y-103636097D01*
X140528619Y-103634685D01*
X140528618Y-103634685D01*
X140468483Y-103625912D01*
X140468479Y-103625912D01*
X140463957Y-103625252D01*
X140036041Y-103625252D01*
X140031493Y-103625922D01*
X140031486Y-103625922D01*
X139970740Y-103634864D01*
X139970738Y-103634865D01*
X139961055Y-103636290D01*
X139952267Y-103640605D01*
X139952266Y-103640605D01*
X139856396Y-103687675D01*
X139856395Y-103687676D01*
X139847048Y-103692265D01*
X139839691Y-103699635D01*
X139770749Y-103768698D01*
X139757319Y-103782151D01*
X139701544Y-103896255D01*
X139700132Y-103905935D01*
X139691364Y-103966039D01*
X139690699Y-103970594D01*
X139690699Y-105351010D01*
X139701737Y-105425996D01*
X139757712Y-105540003D01*
X139847598Y-105629732D01*
X139961702Y-105685507D01*
X139994483Y-105690289D01*
X140031515Y-105695692D01*
X140031519Y-105695692D01*
X140036041Y-105696352D01*
X140156909Y-105696352D01*
X140225030Y-105716354D01*
X140271523Y-105770010D01*
X140281627Y-105840284D01*
X140252133Y-105904864D01*
X140246004Y-105911447D01*
X138853357Y-107304095D01*
X138791045Y-107338120D01*
X138764262Y-107341000D01*
X137903842Y-107341000D01*
X137899294Y-107341670D01*
X137899287Y-107341670D01*
X137838541Y-107350612D01*
X137838539Y-107350613D01*
X137828856Y-107352038D01*
X137820068Y-107356353D01*
X137820067Y-107356353D01*
X137724197Y-107403423D01*
X137724196Y-107403424D01*
X137714849Y-107408013D01*
X137707492Y-107415383D01*
X137634514Y-107488489D01*
X137625120Y-107497899D01*
X137569345Y-107612003D01*
X137558500Y-107686342D01*
X137558500Y-108642434D01*
X137538498Y-108710555D01*
X137533326Y-108717999D01*
X137495214Y-108768852D01*
X137486676Y-108784446D01*
X137441522Y-108904894D01*
X137437895Y-108920149D01*
X137432369Y-108971014D01*
X137432000Y-108977828D01*
X137432000Y-109250385D01*
X137436475Y-109265624D01*
X137437865Y-109266829D01*
X137445548Y-109268500D01*
X139929884Y-109268500D01*
X139945123Y-109264025D01*
X139946328Y-109262635D01*
X139947999Y-109254952D01*
X139947999Y-108977831D01*
X139947629Y-108971010D01*
X139942105Y-108920148D01*
X139938479Y-108904896D01*
X139893324Y-108784446D01*
X139884786Y-108768852D01*
X139846674Y-108717999D01*
X139821826Y-108651493D01*
X139821500Y-108642434D01*
X139821500Y-107898239D01*
X139841502Y-107830118D01*
X139858405Y-107809144D01*
X140163212Y-107504337D01*
X140225524Y-107470311D01*
X140296339Y-107475376D01*
X140353175Y-107517923D01*
X140377986Y-107584443D01*
X140376504Y-107611560D01*
X140376261Y-107612397D01*
X140375756Y-107618814D01*
X140373693Y-107645022D01*
X140373692Y-107645035D01*
X140373500Y-107647481D01*
X140373501Y-108272518D01*
X140376261Y-108307603D01*
X140419895Y-108457789D01*
X140423929Y-108464610D01*
X140492198Y-108580047D01*
X140499506Y-108592405D01*
X140610095Y-108702994D01*
X140616915Y-108707028D01*
X140616916Y-108707028D01*
X140713329Y-108764046D01*
X140761782Y-108815939D01*
X140774487Y-108885789D01*
X140747412Y-108951421D01*
X140713329Y-108980954D01*
X140610095Y-109042006D01*
X140499506Y-109152595D01*
X140419895Y-109287211D01*
X140417684Y-109294821D01*
X140389493Y-109391854D01*
X140376261Y-109437397D01*
X140375756Y-109443816D01*
X140373693Y-109470022D01*
X140373692Y-109470035D01*
X140373500Y-109472481D01*
X140373501Y-110097518D01*
X140376261Y-110132603D01*
X140419895Y-110282789D01*
X140499506Y-110417405D01*
X140610095Y-110527994D01*
X140616913Y-110532026D01*
X140616918Y-110532030D01*
X140634240Y-110542274D01*
X140682692Y-110594167D01*
X140696100Y-110650727D01*
X140696100Y-112611881D01*
X140676098Y-112680002D01*
X140623349Y-112726076D01*
X140616889Y-112729088D01*
X140616886Y-112729090D01*
X140611898Y-112731416D01*
X140607391Y-112734572D01*
X140607389Y-112734573D01*
X140439894Y-112851854D01*
X140439891Y-112851856D01*
X140435383Y-112855013D01*
X140283013Y-113007383D01*
X140279853Y-113011896D01*
X140277213Y-113015666D01*
X140221757Y-113059995D01*
X140151138Y-113067306D01*
X140087777Y-113035276D01*
X140051791Y-112974075D01*
X140047999Y-112943397D01*
X140047999Y-112907331D01*
X140047629Y-112900510D01*
X140042105Y-112849648D01*
X140038479Y-112834396D01*
X139993324Y-112713946D01*
X139984786Y-112698351D01*
X139908285Y-112596276D01*
X139895724Y-112583715D01*
X139793649Y-112507214D01*
X139778054Y-112498676D01*
X139657606Y-112453522D01*
X139642351Y-112449895D01*
X139591486Y-112444369D01*
X139584672Y-112444000D01*
X138962115Y-112444000D01*
X138946876Y-112448475D01*
X138945671Y-112449865D01*
X138944000Y-112457548D01*
X138944000Y-115141884D01*
X138948475Y-115157123D01*
X138949865Y-115158328D01*
X138957548Y-115159999D01*
X139584669Y-115159999D01*
X139591490Y-115159629D01*
X139642352Y-115154105D01*
X139657604Y-115150479D01*
X139778054Y-115105324D01*
X139793649Y-115096786D01*
X139895724Y-115020285D01*
X139908285Y-115007724D01*
X139984786Y-114905649D01*
X139993324Y-114890054D01*
X140038478Y-114769606D01*
X140042105Y-114754351D01*
X140047631Y-114703486D01*
X140048000Y-114696672D01*
X140048000Y-114660605D01*
X140068002Y-114592484D01*
X140121658Y-114545991D01*
X140191932Y-114535887D01*
X140256512Y-114565381D01*
X140277212Y-114588333D01*
X140283013Y-114596617D01*
X140435383Y-114748987D01*
X140439891Y-114752144D01*
X140439894Y-114752146D01*
X140443045Y-114754352D01*
X140611898Y-114872584D01*
X140616880Y-114874907D01*
X140616885Y-114874910D01*
X140802211Y-114961329D01*
X140807193Y-114963652D01*
X140812501Y-114965074D01*
X140812503Y-114965075D01*
X141010020Y-115017999D01*
X141010022Y-115017999D01*
X141015335Y-115019423D01*
X141230000Y-115038204D01*
X141444665Y-115019423D01*
X141449978Y-115017999D01*
X141449980Y-115017999D01*
X141647497Y-114965075D01*
X141647499Y-114965074D01*
X141652807Y-114963652D01*
X141657789Y-114961329D01*
X141843115Y-114874910D01*
X141843120Y-114874907D01*
X141848102Y-114872584D01*
X142016955Y-114754352D01*
X142020106Y-114752146D01*
X142020109Y-114752144D01*
X142024617Y-114748987D01*
X142176987Y-114596617D01*
X142300584Y-114420102D01*
X142302907Y-114415120D01*
X142302910Y-114415115D01*
X142385805Y-114237346D01*
X142432723Y-114184061D01*
X142501000Y-114164600D01*
X142568960Y-114185142D01*
X142614195Y-114237346D01*
X142697090Y-114415115D01*
X142697093Y-114415120D01*
X142699416Y-114420102D01*
X142823013Y-114596617D01*
X142975383Y-114748987D01*
X142979891Y-114752144D01*
X142979894Y-114752146D01*
X142983045Y-114754352D01*
X143151898Y-114872584D01*
X143156880Y-114874907D01*
X143156885Y-114874910D01*
X143342211Y-114961329D01*
X143347193Y-114963652D01*
X143352501Y-114965074D01*
X143352503Y-114965075D01*
X143550020Y-115017999D01*
X143550022Y-115017999D01*
X143555335Y-115019423D01*
X143770000Y-115038204D01*
X143984665Y-115019423D01*
X143989978Y-115017999D01*
X143989980Y-115017999D01*
X144187497Y-114965075D01*
X144187499Y-114965074D01*
X144192807Y-114963652D01*
X144197789Y-114961329D01*
X144383115Y-114874910D01*
X144383120Y-114874907D01*
X144388102Y-114872584D01*
X144556955Y-114754352D01*
X144560106Y-114752146D01*
X144560109Y-114752144D01*
X144564617Y-114748987D01*
X144716987Y-114596617D01*
X144840584Y-114420102D01*
X144842907Y-114415120D01*
X144842910Y-114415115D01*
X144925805Y-114237346D01*
X144972723Y-114184061D01*
X145041000Y-114164600D01*
X145108960Y-114185142D01*
X145154195Y-114237346D01*
X145237090Y-114415115D01*
X145237093Y-114415120D01*
X145239416Y-114420102D01*
X145363013Y-114596617D01*
X145515383Y-114748987D01*
X145519891Y-114752144D01*
X145519894Y-114752146D01*
X145523045Y-114754352D01*
X145691898Y-114872584D01*
X145696880Y-114874907D01*
X145696885Y-114874910D01*
X145882211Y-114961329D01*
X145887193Y-114963652D01*
X145892501Y-114965074D01*
X145892503Y-114965075D01*
X146090020Y-115017999D01*
X146090022Y-115017999D01*
X146095335Y-115019423D01*
X146310000Y-115038204D01*
X146524665Y-115019423D01*
X146529978Y-115017999D01*
X146529980Y-115017999D01*
X146727497Y-114965075D01*
X146727499Y-114965074D01*
X146732807Y-114963652D01*
X146737789Y-114961329D01*
X146923115Y-114874910D01*
X146923120Y-114874907D01*
X146928102Y-114872584D01*
X147096955Y-114754352D01*
X147100106Y-114752146D01*
X147100109Y-114752144D01*
X147104617Y-114748987D01*
X147256987Y-114596617D01*
X147380584Y-114420102D01*
X147382907Y-114415120D01*
X147382910Y-114415115D01*
X147469329Y-114229789D01*
X147469330Y-114229787D01*
X147471652Y-114224807D01*
X147512030Y-114074115D01*
X147525999Y-114021980D01*
X147525999Y-114021978D01*
X147527423Y-114016665D01*
X147546204Y-113802000D01*
X147527423Y-113587335D01*
X147516883Y-113548000D01*
X147493904Y-113462239D01*
X147495594Y-113391262D01*
X147526516Y-113340533D01*
X147527175Y-113339874D01*
X147530984Y-113336221D01*
X147568918Y-113301339D01*
X147575245Y-113295521D01*
X147597393Y-113259800D01*
X147604097Y-113250045D01*
X147629515Y-113216558D01*
X147634760Y-113203311D01*
X147644822Y-113183305D01*
X147647801Y-113178500D01*
X147652328Y-113171199D01*
X147664055Y-113130837D01*
X147667893Y-113119627D01*
X147683364Y-113080550D01*
X147684262Y-113072008D01*
X147684264Y-113071999D01*
X147684854Y-113066383D01*
X147689165Y-113044405D01*
X147691299Y-113037061D01*
X147691299Y-113037059D01*
X147693139Y-113030727D01*
X147693900Y-113020364D01*
X147693900Y-112986909D01*
X147694590Y-112973739D01*
X147697756Y-112943616D01*
X147698654Y-112935072D01*
X147695665Y-112917400D01*
X147693900Y-112896387D01*
X147693900Y-108824634D01*
X147694011Y-108819357D01*
X147696169Y-108767868D01*
X147696529Y-108759284D01*
X147691803Y-108739135D01*
X147686932Y-108718366D01*
X147684769Y-108706694D01*
X147680234Y-108673584D01*
X147680233Y-108673581D01*
X147679068Y-108665074D01*
X147675657Y-108657192D01*
X147675656Y-108657188D01*
X147673412Y-108652002D01*
X147666379Y-108630739D01*
X147663126Y-108616869D01*
X147642876Y-108580035D01*
X147637660Y-108569387D01*
X147632641Y-108557789D01*
X147620973Y-108530825D01*
X147612010Y-108519756D01*
X147599517Y-108501164D01*
X147595842Y-108494478D01*
X147595836Y-108494469D01*
X147592655Y-108488683D01*
X147588341Y-108483686D01*
X147588338Y-108483681D01*
X147587890Y-108483163D01*
X147585865Y-108480817D01*
X147562211Y-108457163D01*
X147553386Y-108447362D01*
X147534324Y-108423822D01*
X147534323Y-108423821D01*
X147528916Y-108417144D01*
X147521914Y-108412168D01*
X147521912Y-108412166D01*
X147514300Y-108406757D01*
X147498194Y-108393146D01*
X147203405Y-108098357D01*
X147169379Y-108036045D01*
X147166500Y-108009263D01*
X147166499Y-107910740D01*
X147186500Y-107842619D01*
X147203404Y-107821644D01*
X147456483Y-107568565D01*
X147460292Y-107564912D01*
X147498242Y-107530015D01*
X147504565Y-107524201D01*
X147509092Y-107516900D01*
X147526708Y-107488489D01*
X147533431Y-107478706D01*
X147539803Y-107470311D01*
X147558835Y-107445238D01*
X147564080Y-107431991D01*
X147574142Y-107411985D01*
X147581648Y-107399879D01*
X147593370Y-107359532D01*
X147597215Y-107348303D01*
X147609522Y-107317219D01*
X147609523Y-107317215D01*
X147612684Y-107309231D01*
X147614173Y-107295064D01*
X147618485Y-107273085D01*
X147620619Y-107265741D01*
X147620619Y-107265739D01*
X147622459Y-107259407D01*
X147623220Y-107249044D01*
X147623220Y-107215590D01*
X147623910Y-107202420D01*
X147627076Y-107172297D01*
X147627076Y-107172296D01*
X147627974Y-107163752D01*
X147624985Y-107146080D01*
X147623220Y-107125067D01*
X147623220Y-100879954D01*
X147623331Y-100874677D01*
X147625489Y-100823188D01*
X147625849Y-100814604D01*
X147617796Y-100780271D01*
X147616252Y-100773686D01*
X147614089Y-100762014D01*
X147609554Y-100728904D01*
X147609553Y-100728901D01*
X147608388Y-100720394D01*
X147604977Y-100712512D01*
X147604976Y-100712508D01*
X147602732Y-100707322D01*
X147595699Y-100686059D01*
X147592446Y-100672189D01*
X147588310Y-100664666D01*
X147588308Y-100664660D01*
X147572198Y-100635355D01*
X147566977Y-100624698D01*
X147553706Y-100594031D01*
X147553705Y-100594029D01*
X147550293Y-100586145D01*
X147541324Y-100575069D01*
X147528839Y-100556487D01*
X147525156Y-100549788D01*
X147521975Y-100544002D01*
X147515185Y-100536136D01*
X147491527Y-100512478D01*
X147482702Y-100502677D01*
X147463643Y-100479141D01*
X147458236Y-100472464D01*
X147451234Y-100467488D01*
X147451232Y-100467486D01*
X147443621Y-100462077D01*
X147427515Y-100448466D01*
X147203405Y-100224356D01*
X147169379Y-100162044D01*
X147166500Y-100135261D01*
X147166499Y-99725956D01*
X147166499Y-99723482D01*
X147163739Y-99688397D01*
X147120105Y-99538211D01*
X147040494Y-99403595D01*
X146929905Y-99293006D01*
X146795289Y-99213395D01*
X146787679Y-99211184D01*
X146651286Y-99171557D01*
X146651283Y-99171556D01*
X146645103Y-99169761D01*
X146632625Y-99168779D01*
X146612478Y-99167193D01*
X146612465Y-99167192D01*
X146610019Y-99167000D01*
X146310183Y-99167000D01*
X146009982Y-99167001D01*
X146002331Y-99167603D01*
X145981312Y-99169256D01*
X145981309Y-99169257D01*
X145974897Y-99169761D01*
X145824711Y-99213395D01*
X145690095Y-99293006D01*
X145604720Y-99378381D01*
X145542408Y-99412407D01*
X145471593Y-99407342D01*
X145426530Y-99378382D01*
X144746206Y-98698059D01*
X144712181Y-98635746D01*
X144709301Y-98608963D01*
X144709301Y-98176000D01*
X144729303Y-98107879D01*
X144782959Y-98061386D01*
X144835301Y-98050000D01*
X148493000Y-98050000D01*
X148561121Y-98070002D01*
X148607614Y-98123658D01*
X148619000Y-98176000D01*
X148619000Y-115993000D01*
X148598998Y-116061121D01*
X148545342Y-116107614D01*
X148493000Y-116119000D01*
X136507000Y-116119000D01*
X136438879Y-116098998D01*
X136392386Y-116045342D01*
X136381000Y-115993000D01*
X136381000Y-114696669D01*
X137332001Y-114696669D01*
X137332371Y-114703490D01*
X137337895Y-114754352D01*
X137341521Y-114769604D01*
X137386676Y-114890054D01*
X137395214Y-114905649D01*
X137471715Y-115007724D01*
X137484276Y-115020285D01*
X137586351Y-115096786D01*
X137601946Y-115105324D01*
X137722394Y-115150478D01*
X137737649Y-115154105D01*
X137788514Y-115159631D01*
X137795328Y-115160000D01*
X138417885Y-115160000D01*
X138433124Y-115155525D01*
X138434329Y-115154135D01*
X138436000Y-115146452D01*
X138436000Y-114074115D01*
X138431525Y-114058876D01*
X138430135Y-114057671D01*
X138422452Y-114056000D01*
X137350116Y-114056000D01*
X137334877Y-114060475D01*
X137333672Y-114061865D01*
X137332001Y-114069548D01*
X137332001Y-114696669D01*
X136381000Y-114696669D01*
X136381000Y-113529885D01*
X137332000Y-113529885D01*
X137336475Y-113545124D01*
X137337865Y-113546329D01*
X137345548Y-113548000D01*
X138417885Y-113548000D01*
X138433124Y-113543525D01*
X138434329Y-113542135D01*
X138436000Y-113534452D01*
X138436000Y-112462116D01*
X138431525Y-112446877D01*
X138430135Y-112445672D01*
X138422452Y-112444001D01*
X137795331Y-112444001D01*
X137788510Y-112444371D01*
X137737648Y-112449895D01*
X137722396Y-112453521D01*
X137601946Y-112498676D01*
X137586351Y-112507214D01*
X137484276Y-112583715D01*
X137471715Y-112596276D01*
X137395214Y-112698351D01*
X137386676Y-112713946D01*
X137341522Y-112834394D01*
X137337895Y-112849649D01*
X137332369Y-112900514D01*
X137332000Y-112907328D01*
X137332000Y-113529885D01*
X136381000Y-113529885D01*
X136381000Y-110067169D01*
X137432001Y-110067169D01*
X137432371Y-110073990D01*
X137437895Y-110124852D01*
X137441521Y-110140104D01*
X137486676Y-110260554D01*
X137495214Y-110276149D01*
X137571715Y-110378224D01*
X137584276Y-110390785D01*
X137686351Y-110467286D01*
X137701946Y-110475824D01*
X137822394Y-110520978D01*
X137837649Y-110524605D01*
X137888514Y-110530131D01*
X137895328Y-110530500D01*
X138417885Y-110530500D01*
X138433124Y-110526025D01*
X138434329Y-110524635D01*
X138436000Y-110516952D01*
X138436000Y-110512384D01*
X138944000Y-110512384D01*
X138948475Y-110527623D01*
X138949865Y-110528828D01*
X138957548Y-110530499D01*
X139484669Y-110530499D01*
X139491490Y-110530129D01*
X139542352Y-110524605D01*
X139557604Y-110520979D01*
X139678054Y-110475824D01*
X139693649Y-110467286D01*
X139795724Y-110390785D01*
X139808285Y-110378224D01*
X139884786Y-110276149D01*
X139893324Y-110260554D01*
X139938478Y-110140106D01*
X139942105Y-110124851D01*
X139947631Y-110073986D01*
X139948000Y-110067172D01*
X139948000Y-109794615D01*
X139943525Y-109779376D01*
X139942135Y-109778171D01*
X139934452Y-109776500D01*
X138962115Y-109776500D01*
X138946876Y-109780975D01*
X138945671Y-109782365D01*
X138944000Y-109790048D01*
X138944000Y-110512384D01*
X138436000Y-110512384D01*
X138436000Y-109794615D01*
X138431525Y-109779376D01*
X138430135Y-109778171D01*
X138422452Y-109776500D01*
X137450116Y-109776500D01*
X137434877Y-109780975D01*
X137433672Y-109782365D01*
X137432001Y-109790048D01*
X137432001Y-110067169D01*
X136381000Y-110067169D01*
X136381000Y-102157266D01*
X145327000Y-102157266D01*
X145327337Y-102163782D01*
X145337075Y-102257632D01*
X145339968Y-102271028D01*
X145390488Y-102422453D01*
X145396653Y-102435615D01*
X145480426Y-102570992D01*
X145489460Y-102582390D01*
X145602129Y-102694863D01*
X145613540Y-102703875D01*
X145749063Y-102787412D01*
X145762241Y-102793556D01*
X145913766Y-102843815D01*
X145927132Y-102846681D01*
X146019770Y-102856172D01*
X146026185Y-102856500D01*
X146037885Y-102856500D01*
X146053124Y-102852025D01*
X146054329Y-102850635D01*
X146056000Y-102842952D01*
X146056000Y-102083115D01*
X146051525Y-102067876D01*
X146050135Y-102066671D01*
X146042452Y-102065000D01*
X145345115Y-102065000D01*
X145329876Y-102069475D01*
X145328671Y-102070865D01*
X145327000Y-102078548D01*
X145327000Y-102157266D01*
X136381000Y-102157266D01*
X136381000Y-98176000D01*
X136401002Y-98107879D01*
X136454658Y-98061386D01*
X136507000Y-98050000D01*
X139564701Y-98050000D01*
X139632822Y-98070002D01*
G37*
%TD.AperFunction*%
%TA.AperFunction,Conductor*%
G36*
X144835011Y-107590512D02*
G01*
X144841594Y-107596642D01*
X144929195Y-107684243D01*
X144963221Y-107746555D01*
X144966100Y-107773338D01*
X144966100Y-108960366D01*
X144965989Y-108965643D01*
X144963471Y-109025717D01*
X144973068Y-109066632D01*
X144975231Y-109078306D01*
X144977239Y-109092962D01*
X144980932Y-109119926D01*
X144984343Y-109127809D01*
X144984344Y-109127811D01*
X144986587Y-109132995D01*
X144993619Y-109154258D01*
X144994910Y-109159761D01*
X144994913Y-109159768D01*
X144996874Y-109168131D01*
X145001011Y-109175657D01*
X145001014Y-109175664D01*
X145017122Y-109204965D01*
X145022343Y-109215622D01*
X145039027Y-109254175D01*
X145047996Y-109265251D01*
X145060481Y-109283833D01*
X145067345Y-109296318D01*
X145074135Y-109304184D01*
X145097793Y-109327842D01*
X145106618Y-109337643D01*
X145131084Y-109367856D01*
X145138086Y-109372832D01*
X145138088Y-109372834D01*
X145145699Y-109378243D01*
X145161805Y-109391854D01*
X145416595Y-109646644D01*
X145450621Y-109708956D01*
X145453500Y-109735738D01*
X145453501Y-109834260D01*
X145433500Y-109902381D01*
X145416596Y-109923356D01*
X144915030Y-110424922D01*
X144852718Y-110458948D01*
X144781903Y-110453883D01*
X144725067Y-110411336D01*
X144700256Y-110344816D01*
X144706342Y-110296160D01*
X144740315Y-110193734D01*
X144743181Y-110180368D01*
X144752672Y-110087730D01*
X144753000Y-110081315D01*
X144753000Y-110007115D01*
X144748525Y-109991876D01*
X144747135Y-109990671D01*
X144739452Y-109989000D01*
X144042115Y-109989000D01*
X144026876Y-109993475D01*
X144025671Y-109994865D01*
X144024000Y-110002548D01*
X144024000Y-110762385D01*
X144028475Y-110777624D01*
X144029865Y-110778829D01*
X144037548Y-110780500D01*
X144053766Y-110780500D01*
X144060282Y-110780163D01*
X144154132Y-110770425D01*
X144167528Y-110767532D01*
X144268526Y-110733836D01*
X144339475Y-110731252D01*
X144400559Y-110767435D01*
X144432384Y-110830899D01*
X144424845Y-110901495D01*
X144397497Y-110942455D01*
X143402837Y-111937115D01*
X143399028Y-111940768D01*
X143354755Y-111981479D01*
X143350229Y-111988779D01*
X143350228Y-111988780D01*
X143332612Y-112017191D01*
X143325889Y-112026974D01*
X143300485Y-112060442D01*
X143297325Y-112068424D01*
X143297324Y-112068425D01*
X143295241Y-112073687D01*
X143285179Y-112093693D01*
X143277672Y-112105801D01*
X143275275Y-112114050D01*
X143275275Y-112114051D01*
X143265950Y-112146148D01*
X143262105Y-112157377D01*
X143249798Y-112188461D01*
X143249797Y-112188465D01*
X143246636Y-112196449D01*
X143245739Y-112204987D01*
X143245738Y-112204990D01*
X143245147Y-112210616D01*
X143240835Y-112232594D01*
X143236861Y-112246273D01*
X143236100Y-112256636D01*
X143236100Y-112290090D01*
X143235410Y-112303260D01*
X143231346Y-112341928D01*
X143232779Y-112350400D01*
X143232779Y-112350402D01*
X143234335Y-112359600D01*
X143236100Y-112380613D01*
X143236100Y-112611881D01*
X143216098Y-112680002D01*
X143163349Y-112726076D01*
X143156889Y-112729088D01*
X143156886Y-112729090D01*
X143151898Y-112731416D01*
X143147391Y-112734572D01*
X143147389Y-112734573D01*
X142979894Y-112851854D01*
X142979891Y-112851856D01*
X142975383Y-112855013D01*
X142823013Y-113007383D01*
X142819856Y-113011891D01*
X142819854Y-113011894D01*
X142702573Y-113179389D01*
X142699416Y-113183898D01*
X142697093Y-113188880D01*
X142697090Y-113188885D01*
X142614195Y-113366654D01*
X142567277Y-113419939D01*
X142499000Y-113439400D01*
X142431040Y-113418858D01*
X142385805Y-113366654D01*
X142302910Y-113188885D01*
X142302907Y-113188880D01*
X142300584Y-113183898D01*
X142297427Y-113179389D01*
X142180146Y-113011894D01*
X142180144Y-113011891D01*
X142176987Y-113007383D01*
X142024617Y-112855013D01*
X142020109Y-112851856D01*
X142020106Y-112851854D01*
X141852611Y-112734573D01*
X141852609Y-112734572D01*
X141848102Y-112731416D01*
X141843114Y-112729090D01*
X141843111Y-112729088D01*
X141836651Y-112726076D01*
X141783366Y-112679160D01*
X141763900Y-112611881D01*
X141763900Y-110650727D01*
X141783902Y-110582606D01*
X141825760Y-110542274D01*
X141843082Y-110532030D01*
X141843087Y-110532026D01*
X141849905Y-110527994D01*
X141960494Y-110417405D01*
X142040105Y-110282789D01*
X142046565Y-110260554D01*
X142081943Y-110138786D01*
X142081944Y-110138781D01*
X142083739Y-110132603D01*
X142084721Y-110120125D01*
X142086307Y-110099978D01*
X142086308Y-110099965D01*
X142086500Y-110097519D01*
X142086500Y-110081266D01*
X142787000Y-110081266D01*
X142787337Y-110087782D01*
X142797075Y-110181632D01*
X142799968Y-110195028D01*
X142850488Y-110346453D01*
X142856653Y-110359615D01*
X142940426Y-110494992D01*
X142949460Y-110506390D01*
X143062129Y-110618863D01*
X143073540Y-110627875D01*
X143209063Y-110711412D01*
X143222241Y-110717556D01*
X143373766Y-110767815D01*
X143387132Y-110770681D01*
X143479770Y-110780172D01*
X143486185Y-110780500D01*
X143497885Y-110780500D01*
X143513124Y-110776025D01*
X143514329Y-110774635D01*
X143516000Y-110766952D01*
X143516000Y-110007115D01*
X143511525Y-109991876D01*
X143510135Y-109990671D01*
X143502452Y-109989000D01*
X142805115Y-109989000D01*
X142789876Y-109993475D01*
X142788671Y-109994865D01*
X142787000Y-110002548D01*
X142787000Y-110081266D01*
X142086500Y-110081266D01*
X142086499Y-109472482D01*
X142083739Y-109437397D01*
X142040105Y-109287211D01*
X141960494Y-109152595D01*
X141849905Y-109042006D01*
X141746671Y-108980954D01*
X141698218Y-108929061D01*
X141685513Y-108859211D01*
X141712588Y-108793579D01*
X141746671Y-108764046D01*
X141843084Y-108707028D01*
X141843085Y-108707028D01*
X141849905Y-108702994D01*
X141960494Y-108592405D01*
X141967803Y-108580047D01*
X141982165Y-108555761D01*
X142034058Y-108507308D01*
X142090619Y-108493900D01*
X142850563Y-108493900D01*
X142918684Y-108513902D01*
X142957274Y-108559339D01*
X142959895Y-108557789D01*
X142994835Y-108616869D01*
X143039506Y-108692405D01*
X143045112Y-108698011D01*
X143049968Y-108704271D01*
X143047649Y-108706070D01*
X143075033Y-108756218D01*
X143069968Y-108827033D01*
X143041085Y-108872018D01*
X142948641Y-108964624D01*
X142939625Y-108976040D01*
X142856088Y-109111563D01*
X142849944Y-109124741D01*
X142799685Y-109276266D01*
X142796819Y-109289632D01*
X142787328Y-109382270D01*
X142787000Y-109388685D01*
X142787000Y-109462885D01*
X142791475Y-109478124D01*
X142792865Y-109479329D01*
X142800548Y-109481000D01*
X144734885Y-109481000D01*
X144750124Y-109476525D01*
X144751329Y-109475135D01*
X144753000Y-109467452D01*
X144753000Y-109388734D01*
X144752663Y-109382218D01*
X144742925Y-109288368D01*
X144740032Y-109274972D01*
X144689512Y-109123547D01*
X144683347Y-109110385D01*
X144599574Y-108975008D01*
X144590540Y-108963610D01*
X144499007Y-108872237D01*
X144464928Y-108809955D01*
X144469931Y-108739135D01*
X144491556Y-108705453D01*
X144490032Y-108704271D01*
X144494888Y-108698011D01*
X144500494Y-108692405D01*
X144580105Y-108557789D01*
X144593693Y-108511019D01*
X144621943Y-108413786D01*
X144621944Y-108413783D01*
X144623739Y-108407603D01*
X144624877Y-108393146D01*
X144626307Y-108374978D01*
X144626308Y-108374965D01*
X144626500Y-108372519D01*
X144626499Y-107685737D01*
X144646501Y-107617616D01*
X144700157Y-107571123D01*
X144770430Y-107561019D01*
X144835011Y-107590512D01*
G37*
%TD.AperFunction*%
%TA.AperFunction,Conductor*%
G36*
X146568220Y-110674001D02*
G01*
X146614713Y-110727656D01*
X146626100Y-110779999D01*
X146626100Y-112455946D01*
X146606098Y-112524067D01*
X146552442Y-112570560D01*
X146489118Y-112581467D01*
X146315475Y-112566275D01*
X146310000Y-112565796D01*
X146095335Y-112584577D01*
X146090022Y-112586001D01*
X146090020Y-112586001D01*
X145892503Y-112638925D01*
X145892501Y-112638926D01*
X145887193Y-112640348D01*
X145882213Y-112642670D01*
X145882211Y-112642671D01*
X145696885Y-112729090D01*
X145696880Y-112729093D01*
X145691898Y-112731416D01*
X145687391Y-112734572D01*
X145687389Y-112734573D01*
X145519894Y-112851854D01*
X145519891Y-112851856D01*
X145515383Y-112855013D01*
X145363013Y-113007383D01*
X145359856Y-113011891D01*
X145359854Y-113011894D01*
X145242573Y-113179389D01*
X145239416Y-113183898D01*
X145237093Y-113188880D01*
X145237090Y-113188885D01*
X145154195Y-113366654D01*
X145107277Y-113419939D01*
X145039000Y-113439400D01*
X144971040Y-113418858D01*
X144925805Y-113366654D01*
X144842910Y-113188885D01*
X144842907Y-113188880D01*
X144840584Y-113183898D01*
X144837427Y-113179389D01*
X144720146Y-113011894D01*
X144720144Y-113011891D01*
X144716987Y-113007383D01*
X144564617Y-112855013D01*
X144560109Y-112851856D01*
X144560106Y-112851854D01*
X144392611Y-112734573D01*
X144392609Y-112734572D01*
X144388102Y-112731416D01*
X144383114Y-112729090D01*
X144383111Y-112729088D01*
X144376651Y-112726076D01*
X144323366Y-112679160D01*
X144303900Y-112611881D01*
X144303900Y-112598339D01*
X144323902Y-112530218D01*
X144340805Y-112509244D01*
X146159144Y-110690905D01*
X146221456Y-110656879D01*
X146248238Y-110654000D01*
X146329322Y-110654000D01*
X146500100Y-110653999D01*
X146568220Y-110674001D01*
G37*
%TD.AperFunction*%
%TA.AperFunction,Conductor*%
G36*
X142988541Y-105716354D02*
G01*
X143029707Y-105764832D01*
X143031168Y-105763947D01*
X143035614Y-105771289D01*
X143039027Y-105779175D01*
X143047996Y-105790251D01*
X143060481Y-105808833D01*
X143067345Y-105821318D01*
X143074135Y-105829184D01*
X143097793Y-105852842D01*
X143106618Y-105862643D01*
X143131084Y-105892856D01*
X143138086Y-105897832D01*
X143138088Y-105897834D01*
X143145699Y-105903243D01*
X143161799Y-105916848D01*
X144120859Y-106875907D01*
X144154882Y-106938217D01*
X144149818Y-107009032D01*
X144107271Y-107065868D01*
X144040751Y-107090679D01*
X144031762Y-107091000D01*
X143506428Y-107091001D01*
X143469982Y-107091001D01*
X143462331Y-107091603D01*
X143441312Y-107093256D01*
X143441309Y-107093257D01*
X143434897Y-107093761D01*
X143284711Y-107137395D01*
X143150095Y-107217006D01*
X143039506Y-107327595D01*
X143035473Y-107334415D01*
X143035472Y-107334416D01*
X143017835Y-107364239D01*
X142965942Y-107412692D01*
X142909381Y-107426100D01*
X142787000Y-107426100D01*
X142718879Y-107406098D01*
X142672386Y-107352442D01*
X142662282Y-107282168D01*
X142669848Y-107253716D01*
X142670200Y-107252828D01*
X142674760Y-107241311D01*
X142684822Y-107221305D01*
X142692328Y-107209199D01*
X142704050Y-107168852D01*
X142707895Y-107157623D01*
X142720202Y-107126539D01*
X142720203Y-107126535D01*
X142723364Y-107118551D01*
X142724853Y-107104384D01*
X142729165Y-107082405D01*
X142731299Y-107075061D01*
X142731299Y-107075059D01*
X142733139Y-107068727D01*
X142733900Y-107058364D01*
X142733900Y-107024910D01*
X142734590Y-107011740D01*
X142737756Y-106981617D01*
X142737756Y-106981616D01*
X142738654Y-106973072D01*
X142735665Y-106955400D01*
X142733900Y-106934387D01*
X142733900Y-105822352D01*
X142753902Y-105754231D01*
X142807558Y-105707738D01*
X142859900Y-105696352D01*
X142920420Y-105696352D01*
X142988541Y-105716354D01*
G37*
%TD.AperFunction*%
%TD*%
M02*
