%TF.GenerationSoftware,KiCad,Pcbnew,6.0.2*%
%TF.CreationDate,2022-03-10T16:51:49-05:00*%
%TF.ProjectId,prox-sense-single-mtch105-omni-v0.1-19.05mm-handsolder,70726f78-2d73-4656-9e73-652d73696e67,v0.1*%
%TF.SameCoordinates,Original*%
%TF.FileFunction,Legend,Top*%
%TF.FilePolarity,Positive*%
%FSLAX46Y46*%
G04 Gerber Fmt 4.6, Leading zero omitted, Abs format (unit mm)*
G04 Created by KiCad (PCBNEW 6.0.2) date 2022-03-10 16:51:49*
%MOMM*%
%LPD*%
G01*
G04 APERTURE LIST*
%ADD10C,0.125000*%
%ADD11C,0.127000*%
%ADD12C,0.150000*%
%ADD13C,0.120000*%
%ADD14C,0.010000*%
%ADD15C,0.100000*%
G04 APERTURE END LIST*
D10*
X138380946Y-70595725D02*
X138380946Y-71595725D01*
X138380946Y-70643344D02*
X138476184Y-70595725D01*
X138666660Y-70595725D01*
X138761898Y-70643344D01*
X138809517Y-70690963D01*
X138857136Y-70786201D01*
X138857136Y-71071915D01*
X138809517Y-71167153D01*
X138761898Y-71214772D01*
X138666660Y-71262391D01*
X138476184Y-71262391D01*
X138380946Y-71214772D01*
X139285708Y-71262391D02*
X139285708Y-70595725D01*
X139285708Y-70786201D02*
X139333327Y-70690963D01*
X139380946Y-70643344D01*
X139476184Y-70595725D01*
X139571422Y-70595725D01*
X140047613Y-71262391D02*
X139952374Y-71214772D01*
X139904755Y-71167153D01*
X139857136Y-71071915D01*
X139857136Y-70786201D01*
X139904755Y-70690963D01*
X139952374Y-70643344D01*
X140047613Y-70595725D01*
X140190470Y-70595725D01*
X140285708Y-70643344D01*
X140333327Y-70690963D01*
X140380946Y-70786201D01*
X140380946Y-71071915D01*
X140333327Y-71167153D01*
X140285708Y-71214772D01*
X140190470Y-71262391D01*
X140047613Y-71262391D01*
X140714279Y-71262391D02*
X141238089Y-70595725D01*
X140714279Y-70595725D02*
X141238089Y-71262391D01*
X141619041Y-70881439D02*
X142380946Y-70881439D01*
X142809517Y-71214772D02*
X142904755Y-71262391D01*
X143095232Y-71262391D01*
X143190470Y-71214772D01*
X143238089Y-71119534D01*
X143238089Y-71071915D01*
X143190470Y-70976677D01*
X143095232Y-70929058D01*
X142952374Y-70929058D01*
X142857136Y-70881439D01*
X142809517Y-70786201D01*
X142809517Y-70738582D01*
X142857136Y-70643344D01*
X142952374Y-70595725D01*
X143095232Y-70595725D01*
X143190470Y-70643344D01*
X144047613Y-71214772D02*
X143952374Y-71262391D01*
X143761898Y-71262391D01*
X143666660Y-71214772D01*
X143619041Y-71119534D01*
X143619041Y-70738582D01*
X143666660Y-70643344D01*
X143761898Y-70595725D01*
X143952374Y-70595725D01*
X144047613Y-70643344D01*
X144095232Y-70738582D01*
X144095232Y-70833820D01*
X143619041Y-70929058D01*
X144523803Y-70595725D02*
X144523803Y-71262391D01*
X144523803Y-70690963D02*
X144571422Y-70643344D01*
X144666660Y-70595725D01*
X144809517Y-70595725D01*
X144904755Y-70643344D01*
X144952374Y-70738582D01*
X144952374Y-71262391D01*
X145380946Y-71214772D02*
X145476184Y-71262391D01*
X145666660Y-71262391D01*
X145761898Y-71214772D01*
X145809517Y-71119534D01*
X145809517Y-71071915D01*
X145761898Y-70976677D01*
X145666660Y-70929058D01*
X145523803Y-70929058D01*
X145428565Y-70881439D01*
X145380946Y-70786201D01*
X145380946Y-70738582D01*
X145428565Y-70643344D01*
X145523803Y-70595725D01*
X145666660Y-70595725D01*
X145761898Y-70643344D01*
X146619041Y-71214772D02*
X146523803Y-71262391D01*
X146333327Y-71262391D01*
X146238089Y-71214772D01*
X146190470Y-71119534D01*
X146190470Y-70738582D01*
X146238089Y-70643344D01*
X146333327Y-70595725D01*
X146523803Y-70595725D01*
X146619041Y-70643344D01*
X146666660Y-70738582D01*
X146666660Y-70833820D01*
X146190470Y-70929058D01*
X136428565Y-72824772D02*
X136523803Y-72872391D01*
X136714279Y-72872391D01*
X136809517Y-72824772D01*
X136857136Y-72729534D01*
X136857136Y-72681915D01*
X136809517Y-72586677D01*
X136714279Y-72539058D01*
X136571422Y-72539058D01*
X136476184Y-72491439D01*
X136428565Y-72396201D01*
X136428565Y-72348582D01*
X136476184Y-72253344D01*
X136571422Y-72205725D01*
X136714279Y-72205725D01*
X136809517Y-72253344D01*
X137285708Y-72872391D02*
X137285708Y-72205725D01*
X137285708Y-71872391D02*
X137238089Y-71920011D01*
X137285708Y-71967630D01*
X137333327Y-71920011D01*
X137285708Y-71872391D01*
X137285708Y-71967630D01*
X137761898Y-72205725D02*
X137761898Y-72872391D01*
X137761898Y-72300963D02*
X137809517Y-72253344D01*
X137904755Y-72205725D01*
X138047613Y-72205725D01*
X138142851Y-72253344D01*
X138190470Y-72348582D01*
X138190470Y-72872391D01*
X139095232Y-72205725D02*
X139095232Y-73015249D01*
X139047613Y-73110487D01*
X138999994Y-73158106D01*
X138904755Y-73205725D01*
X138761898Y-73205725D01*
X138666660Y-73158106D01*
X139095232Y-72824772D02*
X138999994Y-72872391D01*
X138809517Y-72872391D01*
X138714279Y-72824772D01*
X138666660Y-72777153D01*
X138619041Y-72681915D01*
X138619041Y-72396201D01*
X138666660Y-72300963D01*
X138714279Y-72253344D01*
X138809517Y-72205725D01*
X138999994Y-72205725D01*
X139095232Y-72253344D01*
X139714279Y-72872391D02*
X139619041Y-72824772D01*
X139571422Y-72729534D01*
X139571422Y-71872391D01*
X140476184Y-72824772D02*
X140380946Y-72872391D01*
X140190470Y-72872391D01*
X140095232Y-72824772D01*
X140047613Y-72729534D01*
X140047613Y-72348582D01*
X140095232Y-72253344D01*
X140190470Y-72205725D01*
X140380946Y-72205725D01*
X140476184Y-72253344D01*
X140523803Y-72348582D01*
X140523803Y-72443820D01*
X140047613Y-72539058D01*
X140952374Y-72491439D02*
X141714279Y-72491439D01*
X142190470Y-72872391D02*
X142190470Y-71872391D01*
X142523803Y-72586677D01*
X142857136Y-71872391D01*
X142857136Y-72872391D01*
X143190470Y-71872391D02*
X143761898Y-71872391D01*
X143476184Y-72872391D02*
X143476184Y-71872391D01*
X144666660Y-72777153D02*
X144619041Y-72824772D01*
X144476184Y-72872391D01*
X144380946Y-72872391D01*
X144238089Y-72824772D01*
X144142851Y-72729534D01*
X144095232Y-72634296D01*
X144047613Y-72443820D01*
X144047613Y-72300963D01*
X144095232Y-72110487D01*
X144142851Y-72015249D01*
X144238089Y-71920011D01*
X144380946Y-71872391D01*
X144476184Y-71872391D01*
X144619041Y-71920011D01*
X144666660Y-71967630D01*
X145095232Y-72872391D02*
X145095232Y-71872391D01*
X145095232Y-72348582D02*
X145666660Y-72348582D01*
X145666660Y-72872391D02*
X145666660Y-71872391D01*
X146666660Y-72872391D02*
X146095232Y-72872391D01*
X146380946Y-72872391D02*
X146380946Y-71872391D01*
X146285708Y-72015249D01*
X146190470Y-72110487D01*
X146095232Y-72158106D01*
X147285708Y-71872391D02*
X147380946Y-71872391D01*
X147476184Y-71920011D01*
X147523803Y-71967630D01*
X147571422Y-72062868D01*
X147619041Y-72253344D01*
X147619041Y-72491439D01*
X147571422Y-72681915D01*
X147523803Y-72777153D01*
X147476184Y-72824772D01*
X147380946Y-72872391D01*
X147285708Y-72872391D01*
X147190470Y-72824772D01*
X147142851Y-72777153D01*
X147095232Y-72681915D01*
X147047613Y-72491439D01*
X147047613Y-72253344D01*
X147095232Y-72062868D01*
X147142851Y-71967630D01*
X147190470Y-71920011D01*
X147285708Y-71872391D01*
X148523803Y-71872391D02*
X148047613Y-71872391D01*
X147999993Y-72348582D01*
X148047613Y-72300963D01*
X148142851Y-72253344D01*
X148380946Y-72253344D01*
X148476184Y-72300963D01*
X148523803Y-72348582D01*
X148571422Y-72443820D01*
X148571422Y-72681915D01*
X148523803Y-72777153D01*
X148476184Y-72824772D01*
X148380946Y-72872391D01*
X148142851Y-72872391D01*
X148047613Y-72824772D01*
X147999993Y-72777153D01*
X141071422Y-74482391D02*
X140976184Y-74434772D01*
X140928565Y-74387153D01*
X140880946Y-74291915D01*
X140880946Y-74006201D01*
X140928565Y-73910963D01*
X140976184Y-73863344D01*
X141071422Y-73815725D01*
X141214279Y-73815725D01*
X141309517Y-73863344D01*
X141357136Y-73910963D01*
X141404755Y-74006201D01*
X141404755Y-74291915D01*
X141357136Y-74387153D01*
X141309517Y-74434772D01*
X141214279Y-74482391D01*
X141071422Y-74482391D01*
X141833327Y-74482391D02*
X141833327Y-73815725D01*
X141833327Y-73910963D02*
X141880946Y-73863344D01*
X141976184Y-73815725D01*
X142119041Y-73815725D01*
X142214279Y-73863344D01*
X142261898Y-73958582D01*
X142261898Y-74482391D01*
X142261898Y-73958582D02*
X142309517Y-73863344D01*
X142404755Y-73815725D01*
X142547613Y-73815725D01*
X142642851Y-73863344D01*
X142690470Y-73958582D01*
X142690470Y-74482391D01*
X143166660Y-73815725D02*
X143166660Y-74482391D01*
X143166660Y-73910963D02*
X143214279Y-73863344D01*
X143309517Y-73815725D01*
X143452374Y-73815725D01*
X143547613Y-73863344D01*
X143595232Y-73958582D01*
X143595232Y-74482391D01*
X144071422Y-74482391D02*
X144071422Y-73815725D01*
X144071422Y-73482391D02*
X144023803Y-73530011D01*
X144071422Y-73577630D01*
X144119041Y-73530011D01*
X144071422Y-73482391D01*
X144071422Y-73577630D01*
X136333327Y-75425725D02*
X136571422Y-76092391D01*
X136809517Y-75425725D01*
X137380946Y-75092391D02*
X137476184Y-75092391D01*
X137571422Y-75140011D01*
X137619041Y-75187630D01*
X137666660Y-75282868D01*
X137714279Y-75473344D01*
X137714279Y-75711439D01*
X137666660Y-75901915D01*
X137619041Y-75997153D01*
X137571422Y-76044772D01*
X137476184Y-76092391D01*
X137380946Y-76092391D01*
X137285708Y-76044772D01*
X137238089Y-75997153D01*
X137190470Y-75901915D01*
X137142851Y-75711439D01*
X137142851Y-75473344D01*
X137190470Y-75282868D01*
X137238089Y-75187630D01*
X137285708Y-75140011D01*
X137380946Y-75092391D01*
X138142851Y-75997153D02*
X138190470Y-76044772D01*
X138142851Y-76092391D01*
X138095232Y-76044772D01*
X138142851Y-75997153D01*
X138142851Y-76092391D01*
X139142851Y-76092391D02*
X138571422Y-76092391D01*
X138857136Y-76092391D02*
X138857136Y-75092391D01*
X138761898Y-75235249D01*
X138666660Y-75330487D01*
X138571422Y-75378106D01*
X139571422Y-75711439D02*
X140333327Y-75711439D01*
X140809517Y-76092391D02*
X140809517Y-75092391D01*
X141238089Y-76092391D02*
X141238089Y-75568582D01*
X141190470Y-75473344D01*
X141095232Y-75425725D01*
X140952374Y-75425725D01*
X140857136Y-75473344D01*
X140809517Y-75520963D01*
X142142851Y-76092391D02*
X142142851Y-75568582D01*
X142095232Y-75473344D01*
X141999994Y-75425725D01*
X141809517Y-75425725D01*
X141714279Y-75473344D01*
X142142851Y-76044772D02*
X142047613Y-76092391D01*
X141809517Y-76092391D01*
X141714279Y-76044772D01*
X141666660Y-75949534D01*
X141666660Y-75854296D01*
X141714279Y-75759058D01*
X141809517Y-75711439D01*
X142047613Y-75711439D01*
X142142851Y-75663820D01*
X142619041Y-75425725D02*
X142619041Y-76092391D01*
X142619041Y-75520963D02*
X142666660Y-75473344D01*
X142761898Y-75425725D01*
X142904755Y-75425725D01*
X142999994Y-75473344D01*
X143047613Y-75568582D01*
X143047613Y-76092391D01*
X143952374Y-76092391D02*
X143952374Y-75092391D01*
X143952374Y-76044772D02*
X143857136Y-76092391D01*
X143666660Y-76092391D01*
X143571422Y-76044772D01*
X143523803Y-75997153D01*
X143476184Y-75901915D01*
X143476184Y-75616201D01*
X143523803Y-75520963D01*
X143571422Y-75473344D01*
X143666660Y-75425725D01*
X143857136Y-75425725D01*
X143952374Y-75473344D01*
X144380946Y-76044772D02*
X144476184Y-76092391D01*
X144666660Y-76092391D01*
X144761898Y-76044772D01*
X144809517Y-75949534D01*
X144809517Y-75901915D01*
X144761898Y-75806677D01*
X144666660Y-75759058D01*
X144523803Y-75759058D01*
X144428565Y-75711439D01*
X144380946Y-75616201D01*
X144380946Y-75568582D01*
X144428565Y-75473344D01*
X144523803Y-75425725D01*
X144666660Y-75425725D01*
X144761898Y-75473344D01*
X145380946Y-76092391D02*
X145285708Y-76044772D01*
X145238089Y-75997153D01*
X145190470Y-75901915D01*
X145190470Y-75616201D01*
X145238089Y-75520963D01*
X145285708Y-75473344D01*
X145380946Y-75425725D01*
X145523803Y-75425725D01*
X145619041Y-75473344D01*
X145666660Y-75520963D01*
X145714279Y-75616201D01*
X145714279Y-75901915D01*
X145666660Y-75997153D01*
X145619041Y-76044772D01*
X145523803Y-76092391D01*
X145380946Y-76092391D01*
X146285708Y-76092391D02*
X146190470Y-76044772D01*
X146142851Y-75949534D01*
X146142851Y-75092391D01*
X147095232Y-76092391D02*
X147095232Y-75092391D01*
X147095232Y-76044772D02*
X146999994Y-76092391D01*
X146809517Y-76092391D01*
X146714279Y-76044772D01*
X146666660Y-75997153D01*
X146619041Y-75901915D01*
X146619041Y-75616201D01*
X146666660Y-75520963D01*
X146714279Y-75473344D01*
X146809517Y-75425725D01*
X146999994Y-75425725D01*
X147095232Y-75473344D01*
X147952374Y-76044772D02*
X147857136Y-76092391D01*
X147666660Y-76092391D01*
X147571422Y-76044772D01*
X147523803Y-75949534D01*
X147523803Y-75568582D01*
X147571422Y-75473344D01*
X147666660Y-75425725D01*
X147857136Y-75425725D01*
X147952374Y-75473344D01*
X147999994Y-75568582D01*
X147999994Y-75663820D01*
X147523803Y-75759058D01*
X148428565Y-76092391D02*
X148428565Y-75425725D01*
X148428565Y-75616201D02*
X148476184Y-75520963D01*
X148523803Y-75473344D01*
X148619041Y-75425725D01*
X148714279Y-75425725D01*
X139785708Y-77702391D02*
X139214279Y-77702391D01*
X139499994Y-77702391D02*
X139499994Y-76702391D01*
X139404755Y-76845249D01*
X139309517Y-76940487D01*
X139214279Y-76988106D01*
X140261898Y-77702391D02*
X140452374Y-77702391D01*
X140547613Y-77654772D01*
X140595232Y-77607153D01*
X140690470Y-77464296D01*
X140738089Y-77273820D01*
X140738089Y-76892868D01*
X140690470Y-76797630D01*
X140642851Y-76750011D01*
X140547613Y-76702391D01*
X140357136Y-76702391D01*
X140261898Y-76750011D01*
X140214279Y-76797630D01*
X140166660Y-76892868D01*
X140166660Y-77130963D01*
X140214279Y-77226201D01*
X140261898Y-77273820D01*
X140357136Y-77321439D01*
X140547613Y-77321439D01*
X140642851Y-77273820D01*
X140690470Y-77226201D01*
X140738089Y-77130963D01*
X141166660Y-77607153D02*
X141214279Y-77654772D01*
X141166660Y-77702391D01*
X141119041Y-77654772D01*
X141166660Y-77607153D01*
X141166660Y-77702391D01*
X141833327Y-76702391D02*
X141928565Y-76702391D01*
X142023803Y-76750011D01*
X142071422Y-76797630D01*
X142119041Y-76892868D01*
X142166660Y-77083344D01*
X142166660Y-77321439D01*
X142119041Y-77511915D01*
X142071422Y-77607153D01*
X142023803Y-77654772D01*
X141928565Y-77702391D01*
X141833327Y-77702391D01*
X141738089Y-77654772D01*
X141690470Y-77607153D01*
X141642851Y-77511915D01*
X141595232Y-77321439D01*
X141595232Y-77083344D01*
X141642851Y-76892868D01*
X141690470Y-76797630D01*
X141738089Y-76750011D01*
X141833327Y-76702391D01*
X143071422Y-76702391D02*
X142595232Y-76702391D01*
X142547613Y-77178582D01*
X142595232Y-77130963D01*
X142690470Y-77083344D01*
X142928565Y-77083344D01*
X143023803Y-77130963D01*
X143071422Y-77178582D01*
X143119041Y-77273820D01*
X143119041Y-77511915D01*
X143071422Y-77607153D01*
X143023803Y-77654772D01*
X142928565Y-77702391D01*
X142690470Y-77702391D01*
X142595232Y-77654772D01*
X142547613Y-77607153D01*
X143547613Y-77702391D02*
X143547613Y-77035725D01*
X143547613Y-77130963D02*
X143595232Y-77083344D01*
X143690470Y-77035725D01*
X143833327Y-77035725D01*
X143928565Y-77083344D01*
X143976184Y-77178582D01*
X143976184Y-77702391D01*
X143976184Y-77178582D02*
X144023803Y-77083344D01*
X144119041Y-77035725D01*
X144261898Y-77035725D01*
X144357136Y-77083344D01*
X144404755Y-77178582D01*
X144404755Y-77702391D01*
X144880946Y-77702391D02*
X144880946Y-77035725D01*
X144880946Y-77130963D02*
X144928565Y-77083344D01*
X145023803Y-77035725D01*
X145166660Y-77035725D01*
X145261898Y-77083344D01*
X145309517Y-77178582D01*
X145309517Y-77702391D01*
X145309517Y-77178582D02*
X145357136Y-77083344D01*
X145452374Y-77035725D01*
X145595232Y-77035725D01*
X145690470Y-77083344D01*
X145738089Y-77178582D01*
X145738089Y-77702391D01*
X135071422Y-80160487D02*
X134976184Y-80112868D01*
X134785708Y-80112868D01*
X134690470Y-80160487D01*
X134595232Y-80255725D01*
X134547613Y-80350963D01*
X134547613Y-80541439D01*
X134595232Y-80636677D01*
X134690470Y-80731915D01*
X134785708Y-80779534D01*
X134976184Y-80779534D01*
X135071422Y-80731915D01*
X134880946Y-79779534D02*
X134642851Y-79827153D01*
X134404755Y-79970011D01*
X134261898Y-80208106D01*
X134214279Y-80446201D01*
X134261898Y-80684296D01*
X134404755Y-80922391D01*
X134642851Y-81065249D01*
X134880946Y-81112868D01*
X135119041Y-81065249D01*
X135357136Y-80922391D01*
X135499994Y-80684296D01*
X135547613Y-80446201D01*
X135499994Y-80208106D01*
X135357136Y-79970011D01*
X135119041Y-79827153D01*
X134880946Y-79779534D01*
X136738089Y-80922391D02*
X136738089Y-79922391D01*
X137119041Y-79922391D01*
X137214279Y-79970011D01*
X137261898Y-80017630D01*
X137309517Y-80112868D01*
X137309517Y-80255725D01*
X137261898Y-80350963D01*
X137214279Y-80398582D01*
X137119041Y-80446201D01*
X136738089Y-80446201D01*
X138119041Y-80874772D02*
X138023803Y-80922391D01*
X137833327Y-80922391D01*
X137738089Y-80874772D01*
X137690470Y-80779534D01*
X137690470Y-80398582D01*
X137738089Y-80303344D01*
X137833327Y-80255725D01*
X138023803Y-80255725D01*
X138119041Y-80303344D01*
X138166660Y-80398582D01*
X138166660Y-80493820D01*
X137690470Y-80589058D01*
X138595232Y-80922391D02*
X138595232Y-80255725D01*
X138595232Y-80446201D02*
X138642851Y-80350963D01*
X138690470Y-80303344D01*
X138785708Y-80255725D01*
X138880946Y-80255725D01*
X139214279Y-80922391D02*
X139214279Y-80255725D01*
X139214279Y-80446201D02*
X139261898Y-80350963D01*
X139309517Y-80303344D01*
X139404755Y-80255725D01*
X139499994Y-80255725D01*
X139738089Y-80255725D02*
X139976184Y-80922391D01*
X140214279Y-80255725D02*
X139976184Y-80922391D01*
X139880946Y-81160487D01*
X139833327Y-81208106D01*
X139738089Y-81255725D01*
X141357136Y-80922391D02*
X141357136Y-79922391D01*
X141928565Y-80922391D01*
X141928565Y-79922391D01*
X142833327Y-80922391D02*
X142833327Y-80398582D01*
X142785708Y-80303344D01*
X142690470Y-80255725D01*
X142499994Y-80255725D01*
X142404755Y-80303344D01*
X142833327Y-80874772D02*
X142738089Y-80922391D01*
X142499994Y-80922391D01*
X142404755Y-80874772D01*
X142357136Y-80779534D01*
X142357136Y-80684296D01*
X142404755Y-80589058D01*
X142499994Y-80541439D01*
X142738089Y-80541439D01*
X142833327Y-80493820D01*
X143261898Y-80874772D02*
X143357136Y-80922391D01*
X143547613Y-80922391D01*
X143642851Y-80874772D01*
X143690470Y-80779534D01*
X143690470Y-80731915D01*
X143642851Y-80636677D01*
X143547613Y-80589058D01*
X143404755Y-80589058D01*
X143309517Y-80541439D01*
X143261898Y-80446201D01*
X143261898Y-80398582D01*
X143309517Y-80303344D01*
X143404755Y-80255725D01*
X143547613Y-80255725D01*
X143642851Y-80303344D01*
X144499994Y-80874772D02*
X144404755Y-80922391D01*
X144214279Y-80922391D01*
X144119041Y-80874772D01*
X144071422Y-80779534D01*
X144071422Y-80398582D01*
X144119041Y-80303344D01*
X144214279Y-80255725D01*
X144404755Y-80255725D01*
X144499994Y-80303344D01*
X144547613Y-80398582D01*
X144547613Y-80493820D01*
X144071422Y-80589058D01*
X145404755Y-80874772D02*
X145309517Y-80922391D01*
X145119041Y-80922391D01*
X145023803Y-80874772D01*
X144976184Y-80827153D01*
X144928565Y-80731915D01*
X144928565Y-80446201D01*
X144976184Y-80350963D01*
X145023803Y-80303344D01*
X145119041Y-80255725D01*
X145309517Y-80255725D01*
X145404755Y-80303344D01*
X145833327Y-80922391D02*
X145833327Y-79922391D01*
X145928565Y-80541439D02*
X146214279Y-80922391D01*
X146214279Y-80255725D02*
X145833327Y-80636677D01*
X147357136Y-80017630D02*
X147404755Y-79970011D01*
X147499994Y-79922391D01*
X147738089Y-79922391D01*
X147833327Y-79970011D01*
X147880946Y-80017630D01*
X147928565Y-80112868D01*
X147928565Y-80208106D01*
X147880946Y-80350963D01*
X147309517Y-80922391D01*
X147928565Y-80922391D01*
X148547613Y-79922391D02*
X148642851Y-79922391D01*
X148738089Y-79970011D01*
X148785708Y-80017630D01*
X148833327Y-80112868D01*
X148880946Y-80303344D01*
X148880946Y-80541439D01*
X148833327Y-80731915D01*
X148785708Y-80827153D01*
X148738089Y-80874772D01*
X148642851Y-80922391D01*
X148547613Y-80922391D01*
X148452374Y-80874772D01*
X148404755Y-80827153D01*
X148357136Y-80731915D01*
X148309517Y-80541439D01*
X148309517Y-80303344D01*
X148357136Y-80112868D01*
X148404755Y-80017630D01*
X148452374Y-79970011D01*
X148547613Y-79922391D01*
X149261898Y-80017630D02*
X149309517Y-79970011D01*
X149404755Y-79922391D01*
X149642851Y-79922391D01*
X149738089Y-79970011D01*
X149785708Y-80017630D01*
X149833327Y-80112868D01*
X149833327Y-80208106D01*
X149785708Y-80350963D01*
X149214279Y-80922391D01*
X149833327Y-80922391D01*
X150214279Y-80017630D02*
X150261898Y-79970011D01*
X150357136Y-79922391D01*
X150595232Y-79922391D01*
X150690470Y-79970011D01*
X150738089Y-80017630D01*
X150785708Y-80112868D01*
X150785708Y-80208106D01*
X150738089Y-80350963D01*
X150166660Y-80922391D01*
X150785708Y-80922391D01*
X131976184Y-82532391D02*
X131499994Y-82532391D01*
X131499994Y-81532391D01*
X132309517Y-82532391D02*
X132309517Y-81865725D01*
X132309517Y-81532391D02*
X132261898Y-81580011D01*
X132309517Y-81627630D01*
X132357136Y-81580011D01*
X132309517Y-81532391D01*
X132309517Y-81627630D01*
X133214279Y-82484772D02*
X133119041Y-82532391D01*
X132928565Y-82532391D01*
X132833327Y-82484772D01*
X132785708Y-82437153D01*
X132738089Y-82341915D01*
X132738089Y-82056201D01*
X132785708Y-81960963D01*
X132833327Y-81913344D01*
X132928565Y-81865725D01*
X133119041Y-81865725D01*
X133214279Y-81913344D01*
X134023803Y-82484772D02*
X133928565Y-82532391D01*
X133738089Y-82532391D01*
X133642851Y-82484772D01*
X133595232Y-82389534D01*
X133595232Y-82008582D01*
X133642851Y-81913344D01*
X133738089Y-81865725D01*
X133928565Y-81865725D01*
X134023803Y-81913344D01*
X134071422Y-82008582D01*
X134071422Y-82103820D01*
X133595232Y-82199058D01*
X134499994Y-81865725D02*
X134499994Y-82532391D01*
X134499994Y-81960963D02*
X134547613Y-81913344D01*
X134642851Y-81865725D01*
X134785708Y-81865725D01*
X134880946Y-81913344D01*
X134928565Y-82008582D01*
X134928565Y-82532391D01*
X135357136Y-82484772D02*
X135452374Y-82532391D01*
X135642851Y-82532391D01*
X135738089Y-82484772D01*
X135785708Y-82389534D01*
X135785708Y-82341915D01*
X135738089Y-82246677D01*
X135642851Y-82199058D01*
X135499994Y-82199058D01*
X135404755Y-82151439D01*
X135357136Y-82056201D01*
X135357136Y-82008582D01*
X135404755Y-81913344D01*
X135499994Y-81865725D01*
X135642851Y-81865725D01*
X135738089Y-81913344D01*
X136595232Y-82484772D02*
X136499994Y-82532391D01*
X136309517Y-82532391D01*
X136214279Y-82484772D01*
X136166660Y-82389534D01*
X136166660Y-82008582D01*
X136214279Y-81913344D01*
X136309517Y-81865725D01*
X136499994Y-81865725D01*
X136595232Y-81913344D01*
X136642851Y-82008582D01*
X136642851Y-82103820D01*
X136166660Y-82199058D01*
X137499994Y-82532391D02*
X137499994Y-81532391D01*
X137499994Y-82484772D02*
X137404755Y-82532391D01*
X137214279Y-82532391D01*
X137119041Y-82484772D01*
X137071422Y-82437153D01*
X137023803Y-82341915D01*
X137023803Y-82056201D01*
X137071422Y-81960963D01*
X137119041Y-81913344D01*
X137214279Y-81865725D01*
X137404755Y-81865725D01*
X137499994Y-81913344D01*
X139166660Y-81865725D02*
X139166660Y-82532391D01*
X138738089Y-81865725D02*
X138738089Y-82389534D01*
X138785708Y-82484772D01*
X138880946Y-82532391D01*
X139023803Y-82532391D01*
X139119041Y-82484772D01*
X139166660Y-82437153D01*
X139642851Y-81865725D02*
X139642851Y-82532391D01*
X139642851Y-81960963D02*
X139690470Y-81913344D01*
X139785708Y-81865725D01*
X139928565Y-81865725D01*
X140023803Y-81913344D01*
X140071422Y-82008582D01*
X140071422Y-82532391D01*
X140976184Y-82532391D02*
X140976184Y-81532391D01*
X140976184Y-82484772D02*
X140880946Y-82532391D01*
X140690470Y-82532391D01*
X140595232Y-82484772D01*
X140547613Y-82437153D01*
X140499994Y-82341915D01*
X140499994Y-82056201D01*
X140547613Y-81960963D01*
X140595232Y-81913344D01*
X140690470Y-81865725D01*
X140880946Y-81865725D01*
X140976184Y-81913344D01*
X141833327Y-82484772D02*
X141738089Y-82532391D01*
X141547613Y-82532391D01*
X141452374Y-82484772D01*
X141404755Y-82389534D01*
X141404755Y-82008582D01*
X141452374Y-81913344D01*
X141547613Y-81865725D01*
X141738089Y-81865725D01*
X141833327Y-81913344D01*
X141880946Y-82008582D01*
X141880946Y-82103820D01*
X141404755Y-82199058D01*
X142309517Y-82532391D02*
X142309517Y-81865725D01*
X142309517Y-82056201D02*
X142357136Y-81960963D01*
X142404755Y-81913344D01*
X142499994Y-81865725D01*
X142595232Y-81865725D01*
X144261898Y-82437153D02*
X144214279Y-82484772D01*
X144071422Y-82532391D01*
X143976184Y-82532391D01*
X143833327Y-82484772D01*
X143738089Y-82389534D01*
X143690470Y-82294296D01*
X143642851Y-82103820D01*
X143642851Y-81960963D01*
X143690470Y-81770487D01*
X143738089Y-81675249D01*
X143833327Y-81580011D01*
X143976184Y-81532391D01*
X144071422Y-81532391D01*
X144214279Y-81580011D01*
X144261898Y-81627630D01*
X144690470Y-82008582D02*
X145023803Y-82008582D01*
X145166660Y-82532391D02*
X144690470Y-82532391D01*
X144690470Y-81532391D01*
X145166660Y-81532391D01*
X146166660Y-82532391D02*
X145833327Y-82056201D01*
X145595232Y-82532391D02*
X145595232Y-81532391D01*
X145976184Y-81532391D01*
X146071422Y-81580011D01*
X146119041Y-81627630D01*
X146166660Y-81722868D01*
X146166660Y-81865725D01*
X146119041Y-81960963D01*
X146071422Y-82008582D01*
X145976184Y-82056201D01*
X145595232Y-82056201D01*
X146595232Y-82532391D02*
X146595232Y-81532391D01*
X147166660Y-82532391D01*
X147166660Y-81532391D01*
X147642851Y-82151439D02*
X148404755Y-82151439D01*
X149071422Y-81532391D02*
X149261898Y-81532391D01*
X149357136Y-81580011D01*
X149452374Y-81675249D01*
X149499994Y-81865725D01*
X149499994Y-82199058D01*
X149452374Y-82389534D01*
X149357136Y-82484772D01*
X149261898Y-82532391D01*
X149071422Y-82532391D01*
X148976184Y-82484772D01*
X148880946Y-82389534D01*
X148833327Y-82199058D01*
X148833327Y-81865725D01*
X148880946Y-81675249D01*
X148976184Y-81580011D01*
X149071422Y-81532391D01*
X149928565Y-82532391D02*
X149928565Y-81532391D01*
X149928565Y-82008582D02*
X150499994Y-82008582D01*
X150499994Y-82532391D02*
X150499994Y-81532391D01*
X151452374Y-82532391D02*
X150976184Y-82532391D01*
X150976184Y-81532391D01*
X151785708Y-82151439D02*
X152547613Y-82151439D01*
X152976184Y-82484772D02*
X153119041Y-82532391D01*
X153357136Y-82532391D01*
X153452374Y-82484772D01*
X153499994Y-82437153D01*
X153547613Y-82341915D01*
X153547613Y-82246677D01*
X153499994Y-82151439D01*
X153452374Y-82103820D01*
X153357136Y-82056201D01*
X153166660Y-82008582D01*
X153071422Y-81960963D01*
X153023803Y-81913344D01*
X152976184Y-81818106D01*
X152976184Y-81722868D01*
X153023803Y-81627630D01*
X153071422Y-81580011D01*
X153166660Y-81532391D01*
X153404755Y-81532391D01*
X153547613Y-81580011D01*
X133809517Y-83475725D02*
X134047613Y-84142391D01*
X134285708Y-83475725D01*
X134619041Y-83237630D02*
X134666660Y-83190011D01*
X134761898Y-83142391D01*
X134999994Y-83142391D01*
X135095232Y-83190011D01*
X135142851Y-83237630D01*
X135190470Y-83332868D01*
X135190470Y-83428106D01*
X135142851Y-83570963D01*
X134571422Y-84142391D01*
X135190470Y-84142391D01*
X136523803Y-84142391D02*
X136428565Y-84094772D01*
X136380946Y-84047153D01*
X136333327Y-83951915D01*
X136333327Y-83666201D01*
X136380946Y-83570963D01*
X136428565Y-83523344D01*
X136523803Y-83475725D01*
X136666660Y-83475725D01*
X136761898Y-83523344D01*
X136809517Y-83570963D01*
X136857136Y-83666201D01*
X136857136Y-83951915D01*
X136809517Y-84047153D01*
X136761898Y-84094772D01*
X136666660Y-84142391D01*
X136523803Y-84142391D01*
X137285708Y-84142391D02*
X137285708Y-83475725D01*
X137285708Y-83666201D02*
X137333327Y-83570963D01*
X137380946Y-83523344D01*
X137476184Y-83475725D01*
X137571422Y-83475725D01*
X139095232Y-84142391D02*
X139095232Y-83618582D01*
X139047613Y-83523344D01*
X138952374Y-83475725D01*
X138761898Y-83475725D01*
X138666660Y-83523344D01*
X139095232Y-84094772D02*
X138999994Y-84142391D01*
X138761898Y-84142391D01*
X138666660Y-84094772D01*
X138619041Y-83999534D01*
X138619041Y-83904296D01*
X138666660Y-83809058D01*
X138761898Y-83761439D01*
X138999994Y-83761439D01*
X139095232Y-83713820D01*
X139571422Y-83475725D02*
X139571422Y-84142391D01*
X139571422Y-83570963D02*
X139619041Y-83523344D01*
X139714279Y-83475725D01*
X139857136Y-83475725D01*
X139952374Y-83523344D01*
X139999994Y-83618582D01*
X139999994Y-84142391D01*
X140380946Y-83475725D02*
X140619041Y-84142391D01*
X140857136Y-83475725D02*
X140619041Y-84142391D01*
X140523803Y-84380487D01*
X140476184Y-84428106D01*
X140380946Y-84475725D01*
X142142851Y-84142391D02*
X142047613Y-84094772D01*
X141999994Y-83999534D01*
X141999994Y-83142391D01*
X142952374Y-84142391D02*
X142952374Y-83618582D01*
X142904755Y-83523344D01*
X142809517Y-83475725D01*
X142619041Y-83475725D01*
X142523803Y-83523344D01*
X142952374Y-84094772D02*
X142857136Y-84142391D01*
X142619041Y-84142391D01*
X142523803Y-84094772D01*
X142476184Y-83999534D01*
X142476184Y-83904296D01*
X142523803Y-83809058D01*
X142619041Y-83761439D01*
X142857136Y-83761439D01*
X142952374Y-83713820D01*
X143285708Y-83475725D02*
X143666660Y-83475725D01*
X143428565Y-83142391D02*
X143428565Y-83999534D01*
X143476184Y-84094772D01*
X143571422Y-84142391D01*
X143666660Y-84142391D01*
X144380946Y-84094772D02*
X144285708Y-84142391D01*
X144095232Y-84142391D01*
X143999994Y-84094772D01*
X143952374Y-83999534D01*
X143952374Y-83618582D01*
X143999994Y-83523344D01*
X144095232Y-83475725D01*
X144285708Y-83475725D01*
X144380946Y-83523344D01*
X144428565Y-83618582D01*
X144428565Y-83713820D01*
X143952374Y-83809058D01*
X144857136Y-84142391D02*
X144857136Y-83475725D01*
X144857136Y-83666201D02*
X144904755Y-83570963D01*
X144952374Y-83523344D01*
X145047613Y-83475725D01*
X145142851Y-83475725D01*
X146142851Y-83475725D02*
X146380946Y-84142391D01*
X146619041Y-83475725D01*
X147380946Y-84094772D02*
X147285708Y-84142391D01*
X147095232Y-84142391D01*
X146999994Y-84094772D01*
X146952374Y-83999534D01*
X146952374Y-83618582D01*
X146999994Y-83523344D01*
X147095232Y-83475725D01*
X147285708Y-83475725D01*
X147380946Y-83523344D01*
X147428565Y-83618582D01*
X147428565Y-83713820D01*
X146952374Y-83809058D01*
X147857136Y-84142391D02*
X147857136Y-83475725D01*
X147857136Y-83666201D02*
X147904755Y-83570963D01*
X147952374Y-83523344D01*
X148047613Y-83475725D01*
X148142851Y-83475725D01*
X148428565Y-84094772D02*
X148523803Y-84142391D01*
X148714279Y-84142391D01*
X148809517Y-84094772D01*
X148857136Y-83999534D01*
X148857136Y-83951915D01*
X148809517Y-83856677D01*
X148714279Y-83809058D01*
X148571422Y-83809058D01*
X148476184Y-83761439D01*
X148428565Y-83666201D01*
X148428565Y-83618582D01*
X148476184Y-83523344D01*
X148571422Y-83475725D01*
X148714279Y-83475725D01*
X148809517Y-83523344D01*
X149285708Y-84142391D02*
X149285708Y-83475725D01*
X149285708Y-83142391D02*
X149238089Y-83190011D01*
X149285708Y-83237630D01*
X149333327Y-83190011D01*
X149285708Y-83142391D01*
X149285708Y-83237630D01*
X149904755Y-84142391D02*
X149809517Y-84094772D01*
X149761898Y-84047153D01*
X149714279Y-83951915D01*
X149714279Y-83666201D01*
X149761898Y-83570963D01*
X149809517Y-83523344D01*
X149904755Y-83475725D01*
X150047613Y-83475725D01*
X150142851Y-83523344D01*
X150190470Y-83570963D01*
X150238089Y-83666201D01*
X150238089Y-83951915D01*
X150190470Y-84047153D01*
X150142851Y-84094772D01*
X150047613Y-84142391D01*
X149904755Y-84142391D01*
X150666660Y-83475725D02*
X150666660Y-84142391D01*
X150666660Y-83570963D02*
X150714279Y-83523344D01*
X150809517Y-83475725D01*
X150952374Y-83475725D01*
X151047613Y-83523344D01*
X151095232Y-83618582D01*
X151095232Y-84142391D01*
D11*
X138109428Y-111269000D02*
X138036857Y-111232714D01*
X137928000Y-111232714D01*
X137819142Y-111269000D01*
X137746571Y-111341571D01*
X137710285Y-111414142D01*
X137674000Y-111559285D01*
X137674000Y-111668142D01*
X137710285Y-111813285D01*
X137746571Y-111885857D01*
X137819142Y-111958428D01*
X137928000Y-111994714D01*
X138000571Y-111994714D01*
X138109428Y-111958428D01*
X138145714Y-111922142D01*
X138145714Y-111668142D01*
X138000571Y-111668142D01*
X138472285Y-111994714D02*
X138472285Y-111232714D01*
X138907714Y-111994714D01*
X138907714Y-111232714D01*
X139270571Y-111994714D02*
X139270571Y-111232714D01*
X139452000Y-111232714D01*
X139560857Y-111269000D01*
X139633428Y-111341571D01*
X139669714Y-111414142D01*
X139706000Y-111559285D01*
X139706000Y-111668142D01*
X139669714Y-111813285D01*
X139633428Y-111885857D01*
X139560857Y-111958428D01*
X139452000Y-111994714D01*
X139270571Y-111994714D01*
X143008000Y-111232714D02*
X143153142Y-111232714D01*
X143225714Y-111269000D01*
X143298285Y-111341571D01*
X143334571Y-111486714D01*
X143334571Y-111740714D01*
X143298285Y-111885857D01*
X143225714Y-111958428D01*
X143153142Y-111994714D01*
X143008000Y-111994714D01*
X142935428Y-111958428D01*
X142862857Y-111885857D01*
X142826571Y-111740714D01*
X142826571Y-111486714D01*
X142862857Y-111341571D01*
X142935428Y-111269000D01*
X143008000Y-111232714D01*
X143661142Y-111232714D02*
X143661142Y-111849571D01*
X143697428Y-111922142D01*
X143733714Y-111958428D01*
X143806285Y-111994714D01*
X143951428Y-111994714D01*
X144024000Y-111958428D01*
X144060285Y-111922142D01*
X144096571Y-111849571D01*
X144096571Y-111232714D01*
X144350571Y-111232714D02*
X144786000Y-111232714D01*
X144568285Y-111994714D02*
X144568285Y-111232714D01*
X140268428Y-111958428D02*
X140377285Y-111994714D01*
X140558714Y-111994714D01*
X140631285Y-111958428D01*
X140667571Y-111922142D01*
X140703857Y-111849571D01*
X140703857Y-111777000D01*
X140667571Y-111704428D01*
X140631285Y-111668142D01*
X140558714Y-111631857D01*
X140413571Y-111595571D01*
X140341000Y-111559285D01*
X140304714Y-111523000D01*
X140268428Y-111450428D01*
X140268428Y-111377857D01*
X140304714Y-111305285D01*
X140341000Y-111269000D01*
X140413571Y-111232714D01*
X140595000Y-111232714D01*
X140703857Y-111269000D01*
X141030428Y-111595571D02*
X141284428Y-111595571D01*
X141393285Y-111994714D02*
X141030428Y-111994714D01*
X141030428Y-111232714D01*
X141393285Y-111232714D01*
X141719857Y-111994714D02*
X141719857Y-111232714D01*
X142155285Y-111994714D01*
X142155285Y-111232714D01*
X145402857Y-111232714D02*
X145874571Y-111232714D01*
X145620571Y-111523000D01*
X145729428Y-111523000D01*
X145802000Y-111559285D01*
X145838285Y-111595571D01*
X145874571Y-111668142D01*
X145874571Y-111849571D01*
X145838285Y-111922142D01*
X145802000Y-111958428D01*
X145729428Y-111994714D01*
X145511714Y-111994714D01*
X145439142Y-111958428D01*
X145402857Y-111922142D01*
X146128571Y-111486714D02*
X146310000Y-111994714D01*
X146491428Y-111486714D01*
X146709142Y-111232714D02*
X147180857Y-111232714D01*
X146926857Y-111523000D01*
X147035714Y-111523000D01*
X147108285Y-111559285D01*
X147144571Y-111595571D01*
X147180857Y-111668142D01*
X147180857Y-111849571D01*
X147144571Y-111922142D01*
X147108285Y-111958428D01*
X147035714Y-111994714D01*
X146818000Y-111994714D01*
X146745428Y-111958428D01*
X146709142Y-111922142D01*
D12*
%TO.C,R4*%
X141063333Y-107002380D02*
X140730000Y-106526190D01*
X140491904Y-107002380D02*
X140491904Y-106002380D01*
X140872857Y-106002380D01*
X140968095Y-106050000D01*
X141015714Y-106097619D01*
X141063333Y-106192857D01*
X141063333Y-106335714D01*
X141015714Y-106430952D01*
X140968095Y-106478571D01*
X140872857Y-106526190D01*
X140491904Y-106526190D01*
X141920476Y-106335714D02*
X141920476Y-107002380D01*
X141682380Y-105954761D02*
X141444285Y-106669047D01*
X142063333Y-106669047D01*
%TO.C,C1*%
X148097142Y-101115166D02*
X148144761Y-101162785D01*
X148192380Y-101305642D01*
X148192380Y-101400880D01*
X148144761Y-101543738D01*
X148049523Y-101638976D01*
X147954285Y-101686595D01*
X147763809Y-101734214D01*
X147620952Y-101734214D01*
X147430476Y-101686595D01*
X147335238Y-101638976D01*
X147240000Y-101543738D01*
X147192380Y-101400880D01*
X147192380Y-101305642D01*
X147240000Y-101162785D01*
X147287619Y-101115166D01*
X148192380Y-100162785D02*
X148192380Y-100734214D01*
X148192380Y-100448500D02*
X147192380Y-100448500D01*
X147335238Y-100543738D01*
X147430476Y-100638976D01*
X147478095Y-100734214D01*
%TO.C,U1*%
X136699380Y-102498904D02*
X137508904Y-102498904D01*
X137604142Y-102451285D01*
X137651761Y-102403666D01*
X137699380Y-102308428D01*
X137699380Y-102117952D01*
X137651761Y-102022714D01*
X137604142Y-101975095D01*
X137508904Y-101927476D01*
X136699380Y-101927476D01*
X137699380Y-100927476D02*
X137699380Y-101498904D01*
X137699380Y-101213190D02*
X136699380Y-101213190D01*
X136842238Y-101308428D01*
X136937476Y-101403666D01*
X136985095Y-101498904D01*
X139096380Y-104925518D02*
X138096380Y-104925518D01*
X138810666Y-104592185D01*
X138096380Y-104258852D01*
X139096380Y-104258852D01*
X138096380Y-103925518D02*
X138096380Y-103354090D01*
X139096380Y-103639804D02*
X138096380Y-103639804D01*
X139001142Y-102449328D02*
X139048761Y-102496947D01*
X139096380Y-102639804D01*
X139096380Y-102735042D01*
X139048761Y-102877899D01*
X138953523Y-102973137D01*
X138858285Y-103020756D01*
X138667809Y-103068375D01*
X138524952Y-103068375D01*
X138334476Y-103020756D01*
X138239238Y-102973137D01*
X138144000Y-102877899D01*
X138096380Y-102735042D01*
X138096380Y-102639804D01*
X138144000Y-102496947D01*
X138191619Y-102449328D01*
X139096380Y-102020756D02*
X138096380Y-102020756D01*
X138572571Y-102020756D02*
X138572571Y-101449328D01*
X139096380Y-101449328D02*
X138096380Y-101449328D01*
X139096380Y-100449328D02*
X139096380Y-101020756D01*
X139096380Y-100735042D02*
X138096380Y-100735042D01*
X138239238Y-100830280D01*
X138334476Y-100925518D01*
X138382095Y-101020756D01*
X138096380Y-99830280D02*
X138096380Y-99735042D01*
X138144000Y-99639804D01*
X138191619Y-99592185D01*
X138286857Y-99544566D01*
X138477333Y-99496947D01*
X138715428Y-99496947D01*
X138905904Y-99544566D01*
X139001142Y-99592185D01*
X139048761Y-99639804D01*
X139096380Y-99735042D01*
X139096380Y-99830280D01*
X139048761Y-99925518D01*
X139001142Y-99973137D01*
X138905904Y-100020756D01*
X138715428Y-100068375D01*
X138477333Y-100068375D01*
X138286857Y-100020756D01*
X138191619Y-99973137D01*
X138144000Y-99925518D01*
X138096380Y-99830280D01*
X138096380Y-98592185D02*
X138096380Y-99068375D01*
X138572571Y-99115994D01*
X138524952Y-99068375D01*
X138477333Y-98973137D01*
X138477333Y-98735042D01*
X138524952Y-98639804D01*
X138572571Y-98592185D01*
X138667809Y-98544566D01*
X138905904Y-98544566D01*
X139001142Y-98592185D01*
X139048761Y-98639804D01*
X139096380Y-98735042D01*
X139096380Y-98973137D01*
X139048761Y-99068375D01*
X139001142Y-99115994D01*
X145100980Y-98602902D02*
X145339076Y-98602902D01*
X145243838Y-98840997D02*
X145339076Y-98602902D01*
X145243838Y-98364806D01*
X145529552Y-98745759D02*
X145339076Y-98602902D01*
X145529552Y-98460044D01*
X145100980Y-98602902D02*
X145339076Y-98602902D01*
X145243838Y-98840997D02*
X145339076Y-98602902D01*
X145243838Y-98364806D01*
X145529552Y-98745759D02*
X145339076Y-98602902D01*
X145529552Y-98460044D01*
%TO.C,R1*%
X141333333Y-93426380D02*
X141000000Y-92950190D01*
X140761904Y-93426380D02*
X140761904Y-92426380D01*
X141142857Y-92426380D01*
X141238095Y-92474000D01*
X141285714Y-92521619D01*
X141333333Y-92616857D01*
X141333333Y-92759714D01*
X141285714Y-92854952D01*
X141238095Y-92902571D01*
X141142857Y-92950190D01*
X140761904Y-92950190D01*
X142285714Y-93426380D02*
X141714285Y-93426380D01*
X142000000Y-93426380D02*
X142000000Y-92426380D01*
X141904761Y-92569238D01*
X141809523Y-92664476D01*
X141714285Y-92712095D01*
%TO.C,R3*%
X146143333Y-107002380D02*
X145810000Y-106526190D01*
X145571904Y-107002380D02*
X145571904Y-106002380D01*
X145952857Y-106002380D01*
X146048095Y-106050000D01*
X146095714Y-106097619D01*
X146143333Y-106192857D01*
X146143333Y-106335714D01*
X146095714Y-106430952D01*
X146048095Y-106478571D01*
X145952857Y-106526190D01*
X145571904Y-106526190D01*
X146476666Y-106002380D02*
X147095714Y-106002380D01*
X146762380Y-106383333D01*
X146905238Y-106383333D01*
X147000476Y-106430952D01*
X147048095Y-106478571D01*
X147095714Y-106573809D01*
X147095714Y-106811904D01*
X147048095Y-106907142D01*
X147000476Y-106954761D01*
X146905238Y-107002380D01*
X146619523Y-107002380D01*
X146524285Y-106954761D01*
X146476666Y-106907142D01*
%TO.C,C2*%
X143603333Y-106907142D02*
X143555714Y-106954761D01*
X143412857Y-107002380D01*
X143317619Y-107002380D01*
X143174761Y-106954761D01*
X143079523Y-106859523D01*
X143031904Y-106764285D01*
X142984285Y-106573809D01*
X142984285Y-106430952D01*
X143031904Y-106240476D01*
X143079523Y-106145238D01*
X143174761Y-106050000D01*
X143317619Y-106002380D01*
X143412857Y-106002380D01*
X143555714Y-106050000D01*
X143603333Y-106097619D01*
X143984285Y-106097619D02*
X144031904Y-106050000D01*
X144127142Y-106002380D01*
X144365238Y-106002380D01*
X144460476Y-106050000D01*
X144508095Y-106097619D01*
X144555714Y-106192857D01*
X144555714Y-106288095D01*
X144508095Y-106430952D01*
X143936666Y-107002380D01*
X144555714Y-107002380D01*
%TO.C,JP1*%
X137856666Y-106002380D02*
X137856666Y-106716666D01*
X137809047Y-106859523D01*
X137713809Y-106954761D01*
X137570952Y-107002380D01*
X137475714Y-107002380D01*
X138332857Y-107002380D02*
X138332857Y-106002380D01*
X138713809Y-106002380D01*
X138809047Y-106050000D01*
X138856666Y-106097619D01*
X138904285Y-106192857D01*
X138904285Y-106335714D01*
X138856666Y-106430952D01*
X138809047Y-106478571D01*
X138713809Y-106526190D01*
X138332857Y-106526190D01*
X139856666Y-107002380D02*
X139285238Y-107002380D01*
X139570952Y-107002380D02*
X139570952Y-106002380D01*
X139475714Y-106145238D01*
X139380476Y-106240476D01*
X139285238Y-106288095D01*
%TO.C,R2*%
X143333333Y-93426380D02*
X143000000Y-92950190D01*
X142761904Y-93426380D02*
X142761904Y-92426380D01*
X143142857Y-92426380D01*
X143238095Y-92474000D01*
X143285714Y-92521619D01*
X143333333Y-92616857D01*
X143333333Y-92759714D01*
X143285714Y-92854952D01*
X143238095Y-92902571D01*
X143142857Y-92950190D01*
X142761904Y-92950190D01*
X143714285Y-92521619D02*
X143761904Y-92474000D01*
X143857142Y-92426380D01*
X144095238Y-92426380D01*
X144190476Y-92474000D01*
X144238095Y-92521619D01*
X144285714Y-92616857D01*
X144285714Y-92712095D01*
X144238095Y-92854952D01*
X143666666Y-93426380D01*
X144285714Y-93426380D01*
D13*
%TO.C,R4*%
X140707500Y-109127224D02*
X140707500Y-108617776D01*
X141752500Y-109127224D02*
X141752500Y-108617776D01*
D14*
%TO.C,REF\u002A\u002A*%
X144710299Y-88963880D02*
X144783153Y-88994830D01*
X144783153Y-88994830D02*
X144806100Y-89009895D01*
X144806100Y-89009895D02*
X144835427Y-89033048D01*
X144835427Y-89033048D02*
X144853837Y-89051253D01*
X144853837Y-89051253D02*
X144857034Y-89057183D01*
X144857034Y-89057183D02*
X144848008Y-89070340D01*
X144848008Y-89070340D02*
X144824910Y-89092667D01*
X144824910Y-89092667D02*
X144806417Y-89108250D01*
X144806417Y-89108250D02*
X144755801Y-89148926D01*
X144755801Y-89148926D02*
X144715833Y-89115295D01*
X144715833Y-89115295D02*
X144684947Y-89093584D01*
X144684947Y-89093584D02*
X144654832Y-89086090D01*
X144654832Y-89086090D02*
X144620365Y-89087920D01*
X144620365Y-89087920D02*
X144565634Y-89101528D01*
X144565634Y-89101528D02*
X144527959Y-89129772D01*
X144527959Y-89129772D02*
X144505064Y-89175433D01*
X144505064Y-89175433D02*
X144494670Y-89241289D01*
X144494670Y-89241289D02*
X144494668Y-89241331D01*
X144494668Y-89241331D02*
X144495567Y-89314939D01*
X144495567Y-89314939D02*
X144509536Y-89368946D01*
X144509536Y-89368946D02*
X144537401Y-89405716D01*
X144537401Y-89405716D02*
X144556398Y-89418168D01*
X144556398Y-89418168D02*
X144606849Y-89433673D01*
X144606849Y-89433673D02*
X144660736Y-89433683D01*
X144660736Y-89433683D02*
X144707619Y-89418638D01*
X144707619Y-89418638D02*
X144718717Y-89411287D01*
X144718717Y-89411287D02*
X144746549Y-89392511D01*
X144746549Y-89392511D02*
X144768309Y-89389434D01*
X144768309Y-89389434D02*
X144791777Y-89403409D01*
X144791777Y-89403409D02*
X144817722Y-89428510D01*
X144817722Y-89428510D02*
X144858789Y-89470880D01*
X144858789Y-89470880D02*
X144813194Y-89508464D01*
X144813194Y-89508464D02*
X144742747Y-89550882D01*
X144742747Y-89550882D02*
X144663306Y-89571785D01*
X144663306Y-89571785D02*
X144580288Y-89570272D01*
X144580288Y-89570272D02*
X144525767Y-89556411D01*
X144525767Y-89556411D02*
X144462043Y-89522135D01*
X144462043Y-89522135D02*
X144411078Y-89468212D01*
X144411078Y-89468212D02*
X144387924Y-89430149D01*
X144387924Y-89430149D02*
X144369172Y-89375536D01*
X144369172Y-89375536D02*
X144359788Y-89306369D01*
X144359788Y-89306369D02*
X144359716Y-89231407D01*
X144359716Y-89231407D02*
X144368897Y-89159409D01*
X144368897Y-89159409D02*
X144387272Y-89099137D01*
X144387272Y-89099137D02*
X144390166Y-89092958D01*
X144390166Y-89092958D02*
X144433025Y-89032351D01*
X144433025Y-89032351D02*
X144491052Y-88988224D01*
X144491052Y-88988224D02*
X144559664Y-88961493D01*
X144559664Y-88961493D02*
X144634274Y-88953073D01*
X144634274Y-88953073D02*
X144710299Y-88963880D01*
X144710299Y-88963880D02*
X144710299Y-88963880D01*
G36*
X144710299Y-88963880D02*
G01*
X144783153Y-88994830D01*
X144806100Y-89009895D01*
X144835427Y-89033048D01*
X144853837Y-89051253D01*
X144857034Y-89057183D01*
X144848008Y-89070340D01*
X144824910Y-89092667D01*
X144806417Y-89108250D01*
X144755801Y-89148926D01*
X144715833Y-89115295D01*
X144684947Y-89093584D01*
X144654832Y-89086090D01*
X144620365Y-89087920D01*
X144565634Y-89101528D01*
X144527959Y-89129772D01*
X144505064Y-89175433D01*
X144494670Y-89241289D01*
X144494668Y-89241331D01*
X144495567Y-89314939D01*
X144509536Y-89368946D01*
X144537401Y-89405716D01*
X144556398Y-89418168D01*
X144606849Y-89433673D01*
X144660736Y-89433683D01*
X144707619Y-89418638D01*
X144718717Y-89411287D01*
X144746549Y-89392511D01*
X144768309Y-89389434D01*
X144791777Y-89403409D01*
X144817722Y-89428510D01*
X144858789Y-89470880D01*
X144813194Y-89508464D01*
X144742747Y-89550882D01*
X144663306Y-89571785D01*
X144580288Y-89570272D01*
X144525767Y-89556411D01*
X144462043Y-89522135D01*
X144411078Y-89468212D01*
X144387924Y-89430149D01*
X144369172Y-89375536D01*
X144359788Y-89306369D01*
X144359716Y-89231407D01*
X144368897Y-89159409D01*
X144387272Y-89099137D01*
X144390166Y-89092958D01*
X144433025Y-89032351D01*
X144491052Y-88988224D01*
X144559664Y-88961493D01*
X144634274Y-88953073D01*
X144710299Y-88963880D01*
G37*
X144710299Y-88963880D02*
X144783153Y-88994830D01*
X144806100Y-89009895D01*
X144835427Y-89033048D01*
X144853837Y-89051253D01*
X144857034Y-89057183D01*
X144848008Y-89070340D01*
X144824910Y-89092667D01*
X144806417Y-89108250D01*
X144755801Y-89148926D01*
X144715833Y-89115295D01*
X144684947Y-89093584D01*
X144654832Y-89086090D01*
X144620365Y-89087920D01*
X144565634Y-89101528D01*
X144527959Y-89129772D01*
X144505064Y-89175433D01*
X144494670Y-89241289D01*
X144494668Y-89241331D01*
X144495567Y-89314939D01*
X144509536Y-89368946D01*
X144537401Y-89405716D01*
X144556398Y-89418168D01*
X144606849Y-89433673D01*
X144660736Y-89433683D01*
X144707619Y-89418638D01*
X144718717Y-89411287D01*
X144746549Y-89392511D01*
X144768309Y-89389434D01*
X144791777Y-89403409D01*
X144817722Y-89428510D01*
X144858789Y-89470880D01*
X144813194Y-89508464D01*
X144742747Y-89550882D01*
X144663306Y-89571785D01*
X144580288Y-89570272D01*
X144525767Y-89556411D01*
X144462043Y-89522135D01*
X144411078Y-89468212D01*
X144387924Y-89430149D01*
X144369172Y-89375536D01*
X144359788Y-89306369D01*
X144359716Y-89231407D01*
X144368897Y-89159409D01*
X144387272Y-89099137D01*
X144390166Y-89092958D01*
X144433025Y-89032351D01*
X144491052Y-88988224D01*
X144559664Y-88961493D01*
X144634274Y-88953073D01*
X144710299Y-88963880D01*
X142774597Y-89904237D02*
X142824328Y-89907971D01*
X142824328Y-89907971D02*
X142954364Y-90297773D01*
X142954364Y-90297773D02*
X142974751Y-90228614D01*
X142974751Y-90228614D02*
X142987019Y-90185874D01*
X142987019Y-90185874D02*
X143003158Y-90128115D01*
X143003158Y-90128115D02*
X143020585Y-90064625D01*
X143020585Y-90064625D02*
X143029799Y-90030570D01*
X143029799Y-90030570D02*
X143064461Y-89901683D01*
X143064461Y-89901683D02*
X143207464Y-89901683D01*
X143207464Y-89901683D02*
X143164719Y-90036857D01*
X143164719Y-90036857D02*
X143143669Y-90103342D01*
X143143669Y-90103342D02*
X143118240Y-90183539D01*
X143118240Y-90183539D02*
X143091683Y-90267193D01*
X143091683Y-90267193D02*
X143067975Y-90341782D01*
X143067975Y-90341782D02*
X143013975Y-90511535D01*
X143013975Y-90511535D02*
X142955671Y-90515328D01*
X142955671Y-90515328D02*
X142897368Y-90519122D01*
X142897368Y-90519122D02*
X142865752Y-90414734D01*
X142865752Y-90414734D02*
X142846255Y-90349889D01*
X142846255Y-90349889D02*
X142824977Y-90278400D01*
X142824977Y-90278400D02*
X142806381Y-90215263D01*
X142806381Y-90215263D02*
X142805647Y-90212750D01*
X142805647Y-90212750D02*
X142791757Y-90169969D01*
X142791757Y-90169969D02*
X142779502Y-90140779D01*
X142779502Y-90140779D02*
X142770919Y-90129741D01*
X142770919Y-90129741D02*
X142769155Y-90131018D01*
X142769155Y-90131018D02*
X142762964Y-90148130D01*
X142762964Y-90148130D02*
X142751201Y-90184787D01*
X142751201Y-90184787D02*
X142735298Y-90236378D01*
X142735298Y-90236378D02*
X142716687Y-90298294D01*
X142716687Y-90298294D02*
X142706616Y-90332352D01*
X142706616Y-90332352D02*
X142652080Y-90517822D01*
X142652080Y-90517822D02*
X142536337Y-90517822D01*
X142536337Y-90517822D02*
X142443810Y-90225471D01*
X142443810Y-90225471D02*
X142417817Y-90143462D01*
X142417817Y-90143462D02*
X142394139Y-90068987D01*
X142394139Y-90068987D02*
X142373893Y-90005544D01*
X142373893Y-90005544D02*
X142358199Y-89956632D01*
X142358199Y-89956632D02*
X142348175Y-89925749D01*
X142348175Y-89925749D02*
X142345128Y-89916726D01*
X142345128Y-89916726D02*
X142347540Y-89907487D01*
X142347540Y-89907487D02*
X142366481Y-89903441D01*
X142366481Y-89903441D02*
X142405896Y-89903846D01*
X142405896Y-89903846D02*
X142412066Y-89904152D01*
X142412066Y-89904152D02*
X142485159Y-89907971D01*
X142485159Y-89907971D02*
X142533030Y-90084010D01*
X142533030Y-90084010D02*
X142550626Y-90148211D01*
X142550626Y-90148211D02*
X142566350Y-90204649D01*
X142566350Y-90204649D02*
X142578819Y-90248422D01*
X142578819Y-90248422D02*
X142586647Y-90274630D01*
X142586647Y-90274630D02*
X142588093Y-90278903D01*
X142588093Y-90278903D02*
X142594087Y-90273990D01*
X142594087Y-90273990D02*
X142606174Y-90248532D01*
X142606174Y-90248532D02*
X142622966Y-90205997D01*
X142622966Y-90205997D02*
X142643076Y-90149850D01*
X142643076Y-90149850D02*
X142660076Y-90099130D01*
X142660076Y-90099130D02*
X142724867Y-89900504D01*
X142724867Y-89900504D02*
X142774597Y-89904237D01*
X142774597Y-89904237D02*
X142774597Y-89904237D01*
G36*
X142774597Y-89904237D02*
G01*
X142824328Y-89907971D01*
X142954364Y-90297773D01*
X142974751Y-90228614D01*
X142987019Y-90185874D01*
X143003158Y-90128115D01*
X143020585Y-90064625D01*
X143029799Y-90030570D01*
X143064461Y-89901683D01*
X143207464Y-89901683D01*
X143164719Y-90036857D01*
X143143669Y-90103342D01*
X143118240Y-90183539D01*
X143091683Y-90267193D01*
X143067975Y-90341782D01*
X143013975Y-90511535D01*
X142955671Y-90515328D01*
X142897368Y-90519122D01*
X142865752Y-90414734D01*
X142846255Y-90349889D01*
X142824977Y-90278400D01*
X142806381Y-90215263D01*
X142805647Y-90212750D01*
X142791757Y-90169969D01*
X142779502Y-90140779D01*
X142770919Y-90129741D01*
X142769155Y-90131018D01*
X142762964Y-90148130D01*
X142751201Y-90184787D01*
X142735298Y-90236378D01*
X142716687Y-90298294D01*
X142706616Y-90332352D01*
X142652080Y-90517822D01*
X142536337Y-90517822D01*
X142443810Y-90225471D01*
X142417817Y-90143462D01*
X142394139Y-90068987D01*
X142373893Y-90005544D01*
X142358199Y-89956632D01*
X142348175Y-89925749D01*
X142345128Y-89916726D01*
X142347540Y-89907487D01*
X142366481Y-89903441D01*
X142405896Y-89903846D01*
X142412066Y-89904152D01*
X142485159Y-89907971D01*
X142533030Y-90084010D01*
X142550626Y-90148211D01*
X142566350Y-90204649D01*
X142578819Y-90248422D01*
X142586647Y-90274630D01*
X142588093Y-90278903D01*
X142594087Y-90273990D01*
X142606174Y-90248532D01*
X142622966Y-90205997D01*
X142643076Y-90149850D01*
X142660076Y-90099130D01*
X142724867Y-89900504D01*
X142774597Y-89904237D01*
G37*
X142774597Y-89904237D02*
X142824328Y-89907971D01*
X142954364Y-90297773D01*
X142974751Y-90228614D01*
X142987019Y-90185874D01*
X143003158Y-90128115D01*
X143020585Y-90064625D01*
X143029799Y-90030570D01*
X143064461Y-89901683D01*
X143207464Y-89901683D01*
X143164719Y-90036857D01*
X143143669Y-90103342D01*
X143118240Y-90183539D01*
X143091683Y-90267193D01*
X143067975Y-90341782D01*
X143013975Y-90511535D01*
X142955671Y-90515328D01*
X142897368Y-90519122D01*
X142865752Y-90414734D01*
X142846255Y-90349889D01*
X142824977Y-90278400D01*
X142806381Y-90215263D01*
X142805647Y-90212750D01*
X142791757Y-90169969D01*
X142779502Y-90140779D01*
X142770919Y-90129741D01*
X142769155Y-90131018D01*
X142762964Y-90148130D01*
X142751201Y-90184787D01*
X142735298Y-90236378D01*
X142716687Y-90298294D01*
X142706616Y-90332352D01*
X142652080Y-90517822D01*
X142536337Y-90517822D01*
X142443810Y-90225471D01*
X142417817Y-90143462D01*
X142394139Y-90068987D01*
X142373893Y-90005544D01*
X142358199Y-89956632D01*
X142348175Y-89925749D01*
X142345128Y-89916726D01*
X142347540Y-89907487D01*
X142366481Y-89903441D01*
X142405896Y-89903846D01*
X142412066Y-89904152D01*
X142485159Y-89907971D01*
X142533030Y-90084010D01*
X142550626Y-90148211D01*
X142566350Y-90204649D01*
X142578819Y-90248422D01*
X142586647Y-90274630D01*
X142588093Y-90278903D01*
X142594087Y-90273990D01*
X142606174Y-90248532D01*
X142622966Y-90205997D01*
X142643076Y-90149850D01*
X142660076Y-90099130D01*
X142724867Y-89900504D01*
X142774597Y-89904237D01*
X139954812Y-88965148D02*
X140020594Y-88994231D01*
X140020594Y-88994231D02*
X140070533Y-89042793D01*
X140070533Y-89042793D02*
X140104699Y-89110908D01*
X140104699Y-89110908D02*
X140123166Y-89198651D01*
X140123166Y-89198651D02*
X140124490Y-89212351D01*
X140124490Y-89212351D02*
X140125527Y-89308939D01*
X140125527Y-89308939D02*
X140112080Y-89393602D01*
X140112080Y-89393602D02*
X140084965Y-89462221D01*
X140084965Y-89462221D02*
X140070446Y-89484294D01*
X140070446Y-89484294D02*
X140019872Y-89531011D01*
X140019872Y-89531011D02*
X139955464Y-89561268D01*
X139955464Y-89561268D02*
X139883407Y-89573824D01*
X139883407Y-89573824D02*
X139809888Y-89567439D01*
X139809888Y-89567439D02*
X139754001Y-89547772D01*
X139754001Y-89547772D02*
X139705941Y-89514629D01*
X139705941Y-89514629D02*
X139666661Y-89471175D01*
X139666661Y-89471175D02*
X139665981Y-89470158D01*
X139665981Y-89470158D02*
X139650029Y-89443338D01*
X139650029Y-89443338D02*
X139639663Y-89416368D01*
X139639663Y-89416368D02*
X139633385Y-89382332D01*
X139633385Y-89382332D02*
X139629700Y-89334310D01*
X139629700Y-89334310D02*
X139628076Y-89294931D01*
X139628076Y-89294931D02*
X139627401Y-89259219D01*
X139627401Y-89259219D02*
X139753118Y-89259219D01*
X139753118Y-89259219D02*
X139754347Y-89294770D01*
X139754347Y-89294770D02*
X139758807Y-89342094D01*
X139758807Y-89342094D02*
X139766676Y-89372465D01*
X139766676Y-89372465D02*
X139780866Y-89394072D01*
X139780866Y-89394072D02*
X139794156Y-89406694D01*
X139794156Y-89406694D02*
X139841271Y-89433122D01*
X139841271Y-89433122D02*
X139890568Y-89436653D01*
X139890568Y-89436653D02*
X139936480Y-89417639D01*
X139936480Y-89417639D02*
X139959435Y-89396331D01*
X139959435Y-89396331D02*
X139975977Y-89374859D01*
X139975977Y-89374859D02*
X139985652Y-89354313D01*
X139985652Y-89354313D02*
X139989899Y-89327574D01*
X139989899Y-89327574D02*
X139990153Y-89287523D01*
X139990153Y-89287523D02*
X139988845Y-89250638D01*
X139988845Y-89250638D02*
X139986030Y-89197947D01*
X139986030Y-89197947D02*
X139981568Y-89163772D01*
X139981568Y-89163772D02*
X139973525Y-89141480D01*
X139973525Y-89141480D02*
X139959970Y-89124442D01*
X139959970Y-89124442D02*
X139949228Y-89114703D01*
X139949228Y-89114703D02*
X139904296Y-89089123D01*
X139904296Y-89089123D02*
X139855824Y-89087847D01*
X139855824Y-89087847D02*
X139815179Y-89102999D01*
X139815179Y-89102999D02*
X139780506Y-89134642D01*
X139780506Y-89134642D02*
X139759849Y-89186620D01*
X139759849Y-89186620D02*
X139753118Y-89259219D01*
X139753118Y-89259219D02*
X139627401Y-89259219D01*
X139627401Y-89259219D02*
X139626594Y-89216621D01*
X139626594Y-89216621D02*
X139629125Y-89158056D01*
X139629125Y-89158056D02*
X139636711Y-89114007D01*
X139636711Y-89114007D02*
X139650392Y-89079248D01*
X139650392Y-89079248D02*
X139671208Y-89048551D01*
X139671208Y-89048551D02*
X139678926Y-89039436D01*
X139678926Y-89039436D02*
X139727184Y-88994021D01*
X139727184Y-88994021D02*
X139778945Y-88967493D01*
X139778945Y-88967493D02*
X139842245Y-88956379D01*
X139842245Y-88956379D02*
X139873112Y-88955471D01*
X139873112Y-88955471D02*
X139954812Y-88965148D01*
X139954812Y-88965148D02*
X139954812Y-88965148D01*
G36*
X139629125Y-89158056D02*
G01*
X139636711Y-89114007D01*
X139650392Y-89079248D01*
X139671208Y-89048551D01*
X139678926Y-89039436D01*
X139727184Y-88994021D01*
X139778945Y-88967493D01*
X139842245Y-88956379D01*
X139873112Y-88955471D01*
X139954812Y-88965148D01*
X140020594Y-88994231D01*
X140070533Y-89042793D01*
X140104699Y-89110908D01*
X140123166Y-89198651D01*
X140124490Y-89212351D01*
X140125527Y-89308939D01*
X140112080Y-89393602D01*
X140084965Y-89462221D01*
X140070446Y-89484294D01*
X140019872Y-89531011D01*
X139955464Y-89561268D01*
X139883407Y-89573824D01*
X139809888Y-89567439D01*
X139754001Y-89547772D01*
X139705941Y-89514629D01*
X139666661Y-89471175D01*
X139665981Y-89470158D01*
X139650029Y-89443338D01*
X139639663Y-89416368D01*
X139633385Y-89382332D01*
X139629700Y-89334310D01*
X139628076Y-89294931D01*
X139627401Y-89259219D01*
X139753118Y-89259219D01*
X139754347Y-89294770D01*
X139758807Y-89342094D01*
X139766676Y-89372465D01*
X139780866Y-89394072D01*
X139794156Y-89406694D01*
X139841271Y-89433122D01*
X139890568Y-89436653D01*
X139936480Y-89417639D01*
X139959435Y-89396331D01*
X139975977Y-89374859D01*
X139985652Y-89354313D01*
X139989899Y-89327574D01*
X139990153Y-89287523D01*
X139988845Y-89250638D01*
X139986030Y-89197947D01*
X139981568Y-89163772D01*
X139973525Y-89141480D01*
X139959970Y-89124442D01*
X139949228Y-89114703D01*
X139904296Y-89089123D01*
X139855824Y-89087847D01*
X139815179Y-89102999D01*
X139780506Y-89134642D01*
X139759849Y-89186620D01*
X139753118Y-89259219D01*
X139627401Y-89259219D01*
X139626594Y-89216621D01*
X139629125Y-89158056D01*
G37*
X139629125Y-89158056D02*
X139636711Y-89114007D01*
X139650392Y-89079248D01*
X139671208Y-89048551D01*
X139678926Y-89039436D01*
X139727184Y-88994021D01*
X139778945Y-88967493D01*
X139842245Y-88956379D01*
X139873112Y-88955471D01*
X139954812Y-88965148D01*
X140020594Y-88994231D01*
X140070533Y-89042793D01*
X140104699Y-89110908D01*
X140123166Y-89198651D01*
X140124490Y-89212351D01*
X140125527Y-89308939D01*
X140112080Y-89393602D01*
X140084965Y-89462221D01*
X140070446Y-89484294D01*
X140019872Y-89531011D01*
X139955464Y-89561268D01*
X139883407Y-89573824D01*
X139809888Y-89567439D01*
X139754001Y-89547772D01*
X139705941Y-89514629D01*
X139666661Y-89471175D01*
X139665981Y-89470158D01*
X139650029Y-89443338D01*
X139639663Y-89416368D01*
X139633385Y-89382332D01*
X139629700Y-89334310D01*
X139628076Y-89294931D01*
X139627401Y-89259219D01*
X139753118Y-89259219D01*
X139754347Y-89294770D01*
X139758807Y-89342094D01*
X139766676Y-89372465D01*
X139780866Y-89394072D01*
X139794156Y-89406694D01*
X139841271Y-89433122D01*
X139890568Y-89436653D01*
X139936480Y-89417639D01*
X139959435Y-89396331D01*
X139975977Y-89374859D01*
X139985652Y-89354313D01*
X139989899Y-89327574D01*
X139990153Y-89287523D01*
X139988845Y-89250638D01*
X139986030Y-89197947D01*
X139981568Y-89163772D01*
X139973525Y-89141480D01*
X139959970Y-89124442D01*
X139949228Y-89114703D01*
X139904296Y-89089123D01*
X139855824Y-89087847D01*
X139815179Y-89102999D01*
X139780506Y-89134642D01*
X139759849Y-89186620D01*
X139753118Y-89259219D01*
X139627401Y-89259219D01*
X139626594Y-89216621D01*
X139629125Y-89158056D01*
X141739061Y-88969002D02*
X141770356Y-88983950D01*
X141770356Y-88983950D02*
X141800664Y-89005541D01*
X141800664Y-89005541D02*
X141823755Y-89030391D01*
X141823755Y-89030391D02*
X141840573Y-89062087D01*
X141840573Y-89062087D02*
X141852067Y-89104214D01*
X141852067Y-89104214D02*
X141859182Y-89160358D01*
X141859182Y-89160358D02*
X141862866Y-89234106D01*
X141862866Y-89234106D02*
X141864065Y-89329044D01*
X141864065Y-89329044D02*
X141864084Y-89338985D01*
X141864084Y-89338985D02*
X141864360Y-89562179D01*
X141864360Y-89562179D02*
X141726043Y-89562179D01*
X141726043Y-89562179D02*
X141726043Y-89356418D01*
X141726043Y-89356418D02*
X141725945Y-89280189D01*
X141725945Y-89280189D02*
X141725264Y-89224939D01*
X141725264Y-89224939D02*
X141723422Y-89186501D01*
X141723422Y-89186501D02*
X141719840Y-89160706D01*
X141719840Y-89160706D02*
X141713941Y-89143384D01*
X141713941Y-89143384D02*
X141705146Y-89130368D01*
X141705146Y-89130368D02*
X141692893Y-89117507D01*
X141692893Y-89117507D02*
X141650026Y-89089873D01*
X141650026Y-89089873D02*
X141603230Y-89084745D01*
X141603230Y-89084745D02*
X141558649Y-89102217D01*
X141558649Y-89102217D02*
X141543145Y-89115221D01*
X141543145Y-89115221D02*
X141531763Y-89127447D01*
X141531763Y-89127447D02*
X141523592Y-89140540D01*
X141523592Y-89140540D02*
X141518099Y-89158615D01*
X141518099Y-89158615D02*
X141514753Y-89185787D01*
X141514753Y-89185787D02*
X141513022Y-89226170D01*
X141513022Y-89226170D02*
X141512376Y-89283879D01*
X141512376Y-89283879D02*
X141512281Y-89354132D01*
X141512281Y-89354132D02*
X141512281Y-89562179D01*
X141512281Y-89562179D02*
X141373964Y-89562179D01*
X141373964Y-89562179D02*
X141373964Y-88958614D01*
X141373964Y-88958614D02*
X141443123Y-88958614D01*
X141443123Y-88958614D02*
X141484645Y-88960256D01*
X141484645Y-88960256D02*
X141506067Y-88966087D01*
X141506067Y-88966087D02*
X141512278Y-88977461D01*
X141512278Y-88977461D02*
X141512281Y-88977798D01*
X141512281Y-88977798D02*
X141515163Y-88988938D01*
X141515163Y-88988938D02*
X141527874Y-88987674D01*
X141527874Y-88987674D02*
X141553147Y-88975434D01*
X141553147Y-88975434D02*
X141610468Y-88957424D01*
X141610468Y-88957424D02*
X141676036Y-88955421D01*
X141676036Y-88955421D02*
X141739061Y-88969002D01*
X141739061Y-88969002D02*
X141739061Y-88969002D01*
G36*
X141739061Y-88969002D02*
G01*
X141770356Y-88983950D01*
X141800664Y-89005541D01*
X141823755Y-89030391D01*
X141840573Y-89062087D01*
X141852067Y-89104214D01*
X141859182Y-89160358D01*
X141862866Y-89234106D01*
X141864065Y-89329044D01*
X141864084Y-89338985D01*
X141864360Y-89562179D01*
X141726043Y-89562179D01*
X141726043Y-89356418D01*
X141725945Y-89280189D01*
X141725264Y-89224939D01*
X141723422Y-89186501D01*
X141719840Y-89160706D01*
X141713941Y-89143384D01*
X141705146Y-89130368D01*
X141692893Y-89117507D01*
X141650026Y-89089873D01*
X141603230Y-89084745D01*
X141558649Y-89102217D01*
X141543145Y-89115221D01*
X141531763Y-89127447D01*
X141523592Y-89140540D01*
X141518099Y-89158615D01*
X141514753Y-89185787D01*
X141513022Y-89226170D01*
X141512376Y-89283879D01*
X141512281Y-89354132D01*
X141512281Y-89562179D01*
X141373964Y-89562179D01*
X141373964Y-88958614D01*
X141443123Y-88958614D01*
X141484645Y-88960256D01*
X141506067Y-88966087D01*
X141512278Y-88977461D01*
X141512281Y-88977798D01*
X141515163Y-88988938D01*
X141527874Y-88987674D01*
X141553147Y-88975434D01*
X141610468Y-88957424D01*
X141676036Y-88955421D01*
X141739061Y-88969002D01*
G37*
X141739061Y-88969002D02*
X141770356Y-88983950D01*
X141800664Y-89005541D01*
X141823755Y-89030391D01*
X141840573Y-89062087D01*
X141852067Y-89104214D01*
X141859182Y-89160358D01*
X141862866Y-89234106D01*
X141864065Y-89329044D01*
X141864084Y-89338985D01*
X141864360Y-89562179D01*
X141726043Y-89562179D01*
X141726043Y-89356418D01*
X141725945Y-89280189D01*
X141725264Y-89224939D01*
X141723422Y-89186501D01*
X141719840Y-89160706D01*
X141713941Y-89143384D01*
X141705146Y-89130368D01*
X141692893Y-89117507D01*
X141650026Y-89089873D01*
X141603230Y-89084745D01*
X141558649Y-89102217D01*
X141543145Y-89115221D01*
X141531763Y-89127447D01*
X141523592Y-89140540D01*
X141518099Y-89158615D01*
X141514753Y-89185787D01*
X141513022Y-89226170D01*
X141512376Y-89283879D01*
X141512281Y-89354132D01*
X141512281Y-89562179D01*
X141373964Y-89562179D01*
X141373964Y-88958614D01*
X141443123Y-88958614D01*
X141484645Y-88960256D01*
X141506067Y-88966087D01*
X141512278Y-88977461D01*
X141512281Y-88977798D01*
X141515163Y-88988938D01*
X141527874Y-88987674D01*
X141553147Y-88975434D01*
X141610468Y-88957424D01*
X141676036Y-88955421D01*
X141739061Y-88969002D01*
X145170971Y-88956457D02*
X145203169Y-88964279D01*
X145203169Y-88964279D02*
X145264898Y-88992921D01*
X145264898Y-88992921D02*
X145317683Y-89036667D01*
X145317683Y-89036667D02*
X145354214Y-89089117D01*
X145354214Y-89089117D02*
X145359233Y-89100893D01*
X145359233Y-89100893D02*
X145366118Y-89131740D01*
X145366118Y-89131740D02*
X145370937Y-89177371D01*
X145370937Y-89177371D02*
X145372578Y-89223492D01*
X145372578Y-89223492D02*
X145372578Y-89310693D01*
X145372578Y-89310693D02*
X145190251Y-89310693D01*
X145190251Y-89310693D02*
X145115052Y-89310978D01*
X145115052Y-89310978D02*
X145062076Y-89312704D01*
X145062076Y-89312704D02*
X145028398Y-89317181D01*
X145028398Y-89317181D02*
X145011093Y-89325720D01*
X145011093Y-89325720D02*
X145007236Y-89339630D01*
X145007236Y-89339630D02*
X145013902Y-89360222D01*
X145013902Y-89360222D02*
X145025843Y-89384315D01*
X145025843Y-89384315D02*
X145059153Y-89424525D01*
X145059153Y-89424525D02*
X145105441Y-89444558D01*
X145105441Y-89444558D02*
X145162017Y-89443905D01*
X145162017Y-89443905D02*
X145226104Y-89422101D01*
X145226104Y-89422101D02*
X145281490Y-89395193D01*
X145281490Y-89395193D02*
X145327448Y-89431532D01*
X145327448Y-89431532D02*
X145373406Y-89467872D01*
X145373406Y-89467872D02*
X145330169Y-89507819D01*
X145330169Y-89507819D02*
X145272447Y-89545563D01*
X145272447Y-89545563D02*
X145201459Y-89568320D01*
X145201459Y-89568320D02*
X145125102Y-89574688D01*
X145125102Y-89574688D02*
X145051272Y-89563268D01*
X145051272Y-89563268D02*
X145039360Y-89559393D01*
X145039360Y-89559393D02*
X144974472Y-89525506D01*
X144974472Y-89525506D02*
X144926203Y-89474986D01*
X144926203Y-89474986D02*
X144893538Y-89406325D01*
X144893538Y-89406325D02*
X144875458Y-89318014D01*
X144875458Y-89318014D02*
X144875248Y-89316121D01*
X144875248Y-89316121D02*
X144873629Y-89219878D01*
X144873629Y-89219878D02*
X144880173Y-89185542D01*
X144880173Y-89185542D02*
X145007925Y-89185542D01*
X145007925Y-89185542D02*
X145019657Y-89190822D01*
X145019657Y-89190822D02*
X145051511Y-89194867D01*
X145051511Y-89194867D02*
X145098470Y-89197176D01*
X145098470Y-89197176D02*
X145128227Y-89197525D01*
X145128227Y-89197525D02*
X145183721Y-89197306D01*
X145183721Y-89197306D02*
X145218419Y-89195916D01*
X145218419Y-89195916D02*
X145236674Y-89192251D01*
X145236674Y-89192251D02*
X145242839Y-89185210D01*
X145242839Y-89185210D02*
X145241268Y-89173690D01*
X145241268Y-89173690D02*
X145239951Y-89169233D01*
X145239951Y-89169233D02*
X145217455Y-89127355D01*
X145217455Y-89127355D02*
X145182076Y-89093604D01*
X145182076Y-89093604D02*
X145150853Y-89078773D01*
X145150853Y-89078773D02*
X145109374Y-89079668D01*
X145109374Y-89079668D02*
X145067342Y-89098164D01*
X145067342Y-89098164D02*
X145032085Y-89128786D01*
X145032085Y-89128786D02*
X145010927Y-89166062D01*
X145010927Y-89166062D02*
X145007925Y-89185542D01*
X145007925Y-89185542D02*
X144880173Y-89185542D01*
X144880173Y-89185542D02*
X144889763Y-89135229D01*
X144889763Y-89135229D02*
X144921771Y-89064191D01*
X144921771Y-89064191D02*
X144967774Y-89008779D01*
X144967774Y-89008779D02*
X145025894Y-88971009D01*
X145025894Y-88971009D02*
X145094253Y-88952896D01*
X145094253Y-88952896D02*
X145170971Y-88956457D01*
X145170971Y-88956457D02*
X145170971Y-88956457D01*
G36*
X144921771Y-89064191D02*
G01*
X144967774Y-89008779D01*
X145025894Y-88971009D01*
X145094253Y-88952896D01*
X145170971Y-88956457D01*
X145203169Y-88964279D01*
X145264898Y-88992921D01*
X145317683Y-89036667D01*
X145354214Y-89089117D01*
X145359233Y-89100893D01*
X145366118Y-89131740D01*
X145370937Y-89177371D01*
X145372578Y-89223492D01*
X145372578Y-89310693D01*
X145190251Y-89310693D01*
X145115052Y-89310978D01*
X145062076Y-89312704D01*
X145028398Y-89317181D01*
X145011093Y-89325720D01*
X145007236Y-89339630D01*
X145013902Y-89360222D01*
X145025843Y-89384315D01*
X145059153Y-89424525D01*
X145105441Y-89444558D01*
X145162017Y-89443905D01*
X145226104Y-89422101D01*
X145281490Y-89395193D01*
X145327448Y-89431532D01*
X145373406Y-89467872D01*
X145330169Y-89507819D01*
X145272447Y-89545563D01*
X145201459Y-89568320D01*
X145125102Y-89574688D01*
X145051272Y-89563268D01*
X145039360Y-89559393D01*
X144974472Y-89525506D01*
X144926203Y-89474986D01*
X144893538Y-89406325D01*
X144875458Y-89318014D01*
X144875248Y-89316121D01*
X144873629Y-89219878D01*
X144880173Y-89185542D01*
X145007925Y-89185542D01*
X145019657Y-89190822D01*
X145051511Y-89194867D01*
X145098470Y-89197176D01*
X145128227Y-89197525D01*
X145183721Y-89197306D01*
X145218419Y-89195916D01*
X145236674Y-89192251D01*
X145242839Y-89185210D01*
X145241268Y-89173690D01*
X145239951Y-89169233D01*
X145217455Y-89127355D01*
X145182076Y-89093604D01*
X145150853Y-89078773D01*
X145109374Y-89079668D01*
X145067342Y-89098164D01*
X145032085Y-89128786D01*
X145010927Y-89166062D01*
X145007925Y-89185542D01*
X144880173Y-89185542D01*
X144889763Y-89135229D01*
X144921771Y-89064191D01*
G37*
X144921771Y-89064191D02*
X144967774Y-89008779D01*
X145025894Y-88971009D01*
X145094253Y-88952896D01*
X145170971Y-88956457D01*
X145203169Y-88964279D01*
X145264898Y-88992921D01*
X145317683Y-89036667D01*
X145354214Y-89089117D01*
X145359233Y-89100893D01*
X145366118Y-89131740D01*
X145370937Y-89177371D01*
X145372578Y-89223492D01*
X145372578Y-89310693D01*
X145190251Y-89310693D01*
X145115052Y-89310978D01*
X145062076Y-89312704D01*
X145028398Y-89317181D01*
X145011093Y-89325720D01*
X145007236Y-89339630D01*
X145013902Y-89360222D01*
X145025843Y-89384315D01*
X145059153Y-89424525D01*
X145105441Y-89444558D01*
X145162017Y-89443905D01*
X145226104Y-89422101D01*
X145281490Y-89395193D01*
X145327448Y-89431532D01*
X145373406Y-89467872D01*
X145330169Y-89507819D01*
X145272447Y-89545563D01*
X145201459Y-89568320D01*
X145125102Y-89574688D01*
X145051272Y-89563268D01*
X145039360Y-89559393D01*
X144974472Y-89525506D01*
X144926203Y-89474986D01*
X144893538Y-89406325D01*
X144875458Y-89318014D01*
X144875248Y-89316121D01*
X144873629Y-89219878D01*
X144880173Y-89185542D01*
X145007925Y-89185542D01*
X145019657Y-89190822D01*
X145051511Y-89194867D01*
X145098470Y-89197176D01*
X145128227Y-89197525D01*
X145183721Y-89197306D01*
X145218419Y-89195916D01*
X145236674Y-89192251D01*
X145242839Y-89185210D01*
X145241268Y-89173690D01*
X145239951Y-89169233D01*
X145217455Y-89127355D01*
X145182076Y-89093604D01*
X145150853Y-89078773D01*
X145109374Y-89079668D01*
X145067342Y-89098164D01*
X145032085Y-89128786D01*
X145010927Y-89166062D01*
X145007925Y-89185542D01*
X144880173Y-89185542D01*
X144889763Y-89135229D01*
X144921771Y-89064191D01*
X140584314Y-88969184D02*
X140610826Y-88982282D01*
X140610826Y-88982282D02*
X140643520Y-89005106D01*
X140643520Y-89005106D02*
X140667348Y-89029996D01*
X140667348Y-89029996D02*
X140683667Y-89061249D01*
X140683667Y-89061249D02*
X140693833Y-89103166D01*
X140693833Y-89103166D02*
X140699201Y-89160044D01*
X140699201Y-89160044D02*
X140701129Y-89236184D01*
X140701129Y-89236184D02*
X140701242Y-89268917D01*
X140701242Y-89268917D02*
X140700912Y-89340656D01*
X140700912Y-89340656D02*
X140699546Y-89391927D01*
X140699546Y-89391927D02*
X140696573Y-89427404D01*
X140696573Y-89427404D02*
X140691424Y-89451763D01*
X140691424Y-89451763D02*
X140683530Y-89469680D01*
X140683530Y-89469680D02*
X140675316Y-89481902D01*
X140675316Y-89481902D02*
X140622886Y-89533905D01*
X140622886Y-89533905D02*
X140561143Y-89565184D01*
X140561143Y-89565184D02*
X140494537Y-89574592D01*
X140494537Y-89574592D02*
X140427515Y-89560980D01*
X140427515Y-89560980D02*
X140406281Y-89551354D01*
X140406281Y-89551354D02*
X140355449Y-89524859D01*
X140355449Y-89524859D02*
X140355449Y-89940052D01*
X140355449Y-89940052D02*
X140392548Y-89920868D01*
X140392548Y-89920868D02*
X140441430Y-89906025D01*
X140441430Y-89906025D02*
X140501512Y-89902222D01*
X140501512Y-89902222D02*
X140561509Y-89909243D01*
X140561509Y-89909243D02*
X140606817Y-89925013D01*
X140606817Y-89925013D02*
X140644398Y-89955047D01*
X140644398Y-89955047D02*
X140676509Y-89998024D01*
X140676509Y-89998024D02*
X140678923Y-90002436D01*
X140678923Y-90002436D02*
X140689106Y-90023221D01*
X140689106Y-90023221D02*
X140696543Y-90044170D01*
X140696543Y-90044170D02*
X140701662Y-90069548D01*
X140701662Y-90069548D02*
X140704892Y-90103618D01*
X140704892Y-90103618D02*
X140706660Y-90150641D01*
X140706660Y-90150641D02*
X140707396Y-90214882D01*
X140707396Y-90214882D02*
X140707529Y-90287176D01*
X140707529Y-90287176D02*
X140707529Y-90517822D01*
X140707529Y-90517822D02*
X140569212Y-90517822D01*
X140569212Y-90517822D02*
X140569212Y-90092533D01*
X140569212Y-90092533D02*
X140530524Y-90059979D01*
X140530524Y-90059979D02*
X140490335Y-90033940D01*
X140490335Y-90033940D02*
X140452276Y-90029205D01*
X140452276Y-90029205D02*
X140414007Y-90041389D01*
X140414007Y-90041389D02*
X140393611Y-90053320D01*
X140393611Y-90053320D02*
X140378431Y-90070313D01*
X140378431Y-90070313D02*
X140367635Y-90095995D01*
X140367635Y-90095995D02*
X140360390Y-90133991D01*
X140360390Y-90133991D02*
X140355865Y-90187926D01*
X140355865Y-90187926D02*
X140353229Y-90261425D01*
X140353229Y-90261425D02*
X140352301Y-90310347D01*
X140352301Y-90310347D02*
X140349162Y-90511535D01*
X140349162Y-90511535D02*
X140283147Y-90515336D01*
X140283147Y-90515336D02*
X140217133Y-90519136D01*
X140217133Y-90519136D02*
X140217133Y-89270650D01*
X140217133Y-89270650D02*
X140355449Y-89270650D01*
X140355449Y-89270650D02*
X140358976Y-89340254D01*
X140358976Y-89340254D02*
X140370858Y-89388569D01*
X140370858Y-89388569D02*
X140393053Y-89418631D01*
X140393053Y-89418631D02*
X140427514Y-89433471D01*
X140427514Y-89433471D02*
X140462331Y-89436436D01*
X140462331Y-89436436D02*
X140501744Y-89433028D01*
X140501744Y-89433028D02*
X140527902Y-89419617D01*
X140527902Y-89419617D02*
X140544259Y-89401896D01*
X140544259Y-89401896D02*
X140557136Y-89382835D01*
X140557136Y-89382835D02*
X140564801Y-89361601D01*
X140564801Y-89361601D02*
X140568212Y-89331849D01*
X140568212Y-89331849D02*
X140568324Y-89287236D01*
X140568324Y-89287236D02*
X140567176Y-89249880D01*
X140567176Y-89249880D02*
X140564541Y-89193604D01*
X140564541Y-89193604D02*
X140560617Y-89156658D01*
X140560617Y-89156658D02*
X140554010Y-89133223D01*
X140554010Y-89133223D02*
X140543324Y-89117480D01*
X140543324Y-89117480D02*
X140533240Y-89108380D01*
X140533240Y-89108380D02*
X140491103Y-89088537D01*
X140491103Y-89088537D02*
X140441233Y-89085332D01*
X140441233Y-89085332D02*
X140412597Y-89092168D01*
X140412597Y-89092168D02*
X140384245Y-89116464D01*
X140384245Y-89116464D02*
X140365464Y-89163728D01*
X140365464Y-89163728D02*
X140356361Y-89233624D01*
X140356361Y-89233624D02*
X140355449Y-89270650D01*
X140355449Y-89270650D02*
X140217133Y-89270650D01*
X140217133Y-89270650D02*
X140217133Y-88958614D01*
X140217133Y-88958614D02*
X140286291Y-88958614D01*
X140286291Y-88958614D02*
X140327813Y-88960256D01*
X140327813Y-88960256D02*
X140349235Y-88966087D01*
X140349235Y-88966087D02*
X140355447Y-88977461D01*
X140355447Y-88977461D02*
X140355449Y-88977798D01*
X140355449Y-88977798D02*
X140358331Y-88988938D01*
X140358331Y-88988938D02*
X140371043Y-88987673D01*
X140371043Y-88987673D02*
X140396316Y-88975433D01*
X140396316Y-88975433D02*
X140455204Y-88956707D01*
X140455204Y-88956707D02*
X140521458Y-88954739D01*
X140521458Y-88954739D02*
X140584314Y-88969184D01*
X140584314Y-88969184D02*
X140584314Y-88969184D01*
G36*
X140286291Y-88958614D02*
G01*
X140327813Y-88960256D01*
X140349235Y-88966087D01*
X140355447Y-88977461D01*
X140355449Y-88977798D01*
X140358331Y-88988938D01*
X140371043Y-88987673D01*
X140396316Y-88975433D01*
X140455204Y-88956707D01*
X140521458Y-88954739D01*
X140584314Y-88969184D01*
X140610826Y-88982282D01*
X140643520Y-89005106D01*
X140667348Y-89029996D01*
X140683667Y-89061249D01*
X140693833Y-89103166D01*
X140699201Y-89160044D01*
X140701129Y-89236184D01*
X140701242Y-89268917D01*
X140700912Y-89340656D01*
X140699546Y-89391927D01*
X140696573Y-89427404D01*
X140691424Y-89451763D01*
X140683530Y-89469680D01*
X140675316Y-89481902D01*
X140622886Y-89533905D01*
X140561143Y-89565184D01*
X140494537Y-89574592D01*
X140427515Y-89560980D01*
X140406281Y-89551354D01*
X140355449Y-89524859D01*
X140355449Y-89940052D01*
X140392548Y-89920868D01*
X140441430Y-89906025D01*
X140501512Y-89902222D01*
X140561509Y-89909243D01*
X140606817Y-89925013D01*
X140644398Y-89955047D01*
X140676509Y-89998024D01*
X140678923Y-90002436D01*
X140689106Y-90023221D01*
X140696543Y-90044170D01*
X140701662Y-90069548D01*
X140704892Y-90103618D01*
X140706660Y-90150641D01*
X140707396Y-90214882D01*
X140707529Y-90287176D01*
X140707529Y-90517822D01*
X140569212Y-90517822D01*
X140569212Y-90092533D01*
X140530524Y-90059979D01*
X140490335Y-90033940D01*
X140452276Y-90029205D01*
X140414007Y-90041389D01*
X140393611Y-90053320D01*
X140378431Y-90070313D01*
X140367635Y-90095995D01*
X140360390Y-90133991D01*
X140355865Y-90187926D01*
X140353229Y-90261425D01*
X140352301Y-90310347D01*
X140349162Y-90511535D01*
X140283147Y-90515336D01*
X140217133Y-90519136D01*
X140217133Y-89270650D01*
X140355449Y-89270650D01*
X140358976Y-89340254D01*
X140370858Y-89388569D01*
X140393053Y-89418631D01*
X140427514Y-89433471D01*
X140462331Y-89436436D01*
X140501744Y-89433028D01*
X140527902Y-89419617D01*
X140544259Y-89401896D01*
X140557136Y-89382835D01*
X140564801Y-89361601D01*
X140568212Y-89331849D01*
X140568324Y-89287236D01*
X140567176Y-89249880D01*
X140564541Y-89193604D01*
X140560617Y-89156658D01*
X140554010Y-89133223D01*
X140543324Y-89117480D01*
X140533240Y-89108380D01*
X140491103Y-89088537D01*
X140441233Y-89085332D01*
X140412597Y-89092168D01*
X140384245Y-89116464D01*
X140365464Y-89163728D01*
X140356361Y-89233624D01*
X140355449Y-89270650D01*
X140217133Y-89270650D01*
X140217133Y-88958614D01*
X140286291Y-88958614D01*
G37*
X140286291Y-88958614D02*
X140327813Y-88960256D01*
X140349235Y-88966087D01*
X140355447Y-88977461D01*
X140355449Y-88977798D01*
X140358331Y-88988938D01*
X140371043Y-88987673D01*
X140396316Y-88975433D01*
X140455204Y-88956707D01*
X140521458Y-88954739D01*
X140584314Y-88969184D01*
X140610826Y-88982282D01*
X140643520Y-89005106D01*
X140667348Y-89029996D01*
X140683667Y-89061249D01*
X140693833Y-89103166D01*
X140699201Y-89160044D01*
X140701129Y-89236184D01*
X140701242Y-89268917D01*
X140700912Y-89340656D01*
X140699546Y-89391927D01*
X140696573Y-89427404D01*
X140691424Y-89451763D01*
X140683530Y-89469680D01*
X140675316Y-89481902D01*
X140622886Y-89533905D01*
X140561143Y-89565184D01*
X140494537Y-89574592D01*
X140427515Y-89560980D01*
X140406281Y-89551354D01*
X140355449Y-89524859D01*
X140355449Y-89940052D01*
X140392548Y-89920868D01*
X140441430Y-89906025D01*
X140501512Y-89902222D01*
X140561509Y-89909243D01*
X140606817Y-89925013D01*
X140644398Y-89955047D01*
X140676509Y-89998024D01*
X140678923Y-90002436D01*
X140689106Y-90023221D01*
X140696543Y-90044170D01*
X140701662Y-90069548D01*
X140704892Y-90103618D01*
X140706660Y-90150641D01*
X140707396Y-90214882D01*
X140707529Y-90287176D01*
X140707529Y-90517822D01*
X140569212Y-90517822D01*
X140569212Y-90092533D01*
X140530524Y-90059979D01*
X140490335Y-90033940D01*
X140452276Y-90029205D01*
X140414007Y-90041389D01*
X140393611Y-90053320D01*
X140378431Y-90070313D01*
X140367635Y-90095995D01*
X140360390Y-90133991D01*
X140355865Y-90187926D01*
X140353229Y-90261425D01*
X140352301Y-90310347D01*
X140349162Y-90511535D01*
X140283147Y-90515336D01*
X140217133Y-90519136D01*
X140217133Y-89270650D01*
X140355449Y-89270650D01*
X140358976Y-89340254D01*
X140370858Y-89388569D01*
X140393053Y-89418631D01*
X140427514Y-89433471D01*
X140462331Y-89436436D01*
X140501744Y-89433028D01*
X140527902Y-89419617D01*
X140544259Y-89401896D01*
X140557136Y-89382835D01*
X140564801Y-89361601D01*
X140568212Y-89331849D01*
X140568324Y-89287236D01*
X140567176Y-89249880D01*
X140564541Y-89193604D01*
X140560617Y-89156658D01*
X140554010Y-89133223D01*
X140543324Y-89117480D01*
X140533240Y-89108380D01*
X140491103Y-89088537D01*
X140441233Y-89085332D01*
X140412597Y-89092168D01*
X140384245Y-89116464D01*
X140365464Y-89163728D01*
X140356361Y-89233624D01*
X140355449Y-89270650D01*
X140217133Y-89270650D01*
X140217133Y-88958614D01*
X140286291Y-88958614D01*
X142507090Y-88956452D02*
X142554707Y-88965482D01*
X142554707Y-88965482D02*
X142604107Y-88984370D01*
X142604107Y-88984370D02*
X142609385Y-88986777D01*
X142609385Y-88986777D02*
X142646847Y-89006476D01*
X142646847Y-89006476D02*
X142672790Y-89024781D01*
X142672790Y-89024781D02*
X142681176Y-89036508D01*
X142681176Y-89036508D02*
X142673190Y-89055632D01*
X142673190Y-89055632D02*
X142653793Y-89083850D01*
X142653793Y-89083850D02*
X142645183Y-89094384D01*
X142645183Y-89094384D02*
X142609701Y-89135847D01*
X142609701Y-89135847D02*
X142563958Y-89108858D01*
X142563958Y-89108858D02*
X142520423Y-89090878D01*
X142520423Y-89090878D02*
X142470123Y-89081267D01*
X142470123Y-89081267D02*
X142421885Y-89080660D01*
X142421885Y-89080660D02*
X142384540Y-89089691D01*
X142384540Y-89089691D02*
X142375578Y-89095327D01*
X142375578Y-89095327D02*
X142358510Y-89121171D01*
X142358510Y-89121171D02*
X142356436Y-89150941D01*
X142356436Y-89150941D02*
X142369207Y-89174197D01*
X142369207Y-89174197D02*
X142376761Y-89178708D01*
X142376761Y-89178708D02*
X142399398Y-89184309D01*
X142399398Y-89184309D02*
X142439188Y-89190892D01*
X142439188Y-89190892D02*
X142488239Y-89197183D01*
X142488239Y-89197183D02*
X142497288Y-89198170D01*
X142497288Y-89198170D02*
X142576069Y-89211798D01*
X142576069Y-89211798D02*
X142633209Y-89234946D01*
X142633209Y-89234946D02*
X142671103Y-89269752D01*
X142671103Y-89269752D02*
X142692152Y-89318354D01*
X142692152Y-89318354D02*
X142698708Y-89377718D01*
X142698708Y-89377718D02*
X142689650Y-89445198D01*
X142689650Y-89445198D02*
X142660237Y-89498188D01*
X142660237Y-89498188D02*
X142610351Y-89536783D01*
X142610351Y-89536783D02*
X142539873Y-89561081D01*
X142539873Y-89561081D02*
X142461638Y-89570667D01*
X142461638Y-89570667D02*
X142397839Y-89570552D01*
X142397839Y-89570552D02*
X142346089Y-89561845D01*
X142346089Y-89561845D02*
X142310746Y-89549825D01*
X142310746Y-89549825D02*
X142266090Y-89528880D01*
X142266090Y-89528880D02*
X142224820Y-89504574D01*
X142224820Y-89504574D02*
X142210152Y-89493876D01*
X142210152Y-89493876D02*
X142172430Y-89463084D01*
X142172430Y-89463084D02*
X142217925Y-89417049D01*
X142217925Y-89417049D02*
X142263420Y-89371013D01*
X142263420Y-89371013D02*
X142315145Y-89405243D01*
X142315145Y-89405243D02*
X142367025Y-89430952D01*
X142367025Y-89430952D02*
X142422424Y-89444399D01*
X142422424Y-89444399D02*
X142475678Y-89445818D01*
X142475678Y-89445818D02*
X142521122Y-89435443D01*
X142521122Y-89435443D02*
X142553089Y-89413507D01*
X142553089Y-89413507D02*
X142563411Y-89394998D01*
X142563411Y-89394998D02*
X142561862Y-89365314D01*
X142561862Y-89365314D02*
X142536213Y-89342615D01*
X142536213Y-89342615D02*
X142486533Y-89326940D01*
X142486533Y-89326940D02*
X142432104Y-89319695D01*
X142432104Y-89319695D02*
X142348337Y-89305873D01*
X142348337Y-89305873D02*
X142286106Y-89279796D01*
X142286106Y-89279796D02*
X142244580Y-89240699D01*
X142244580Y-89240699D02*
X142222926Y-89187820D01*
X142222926Y-89187820D02*
X142219926Y-89125126D01*
X142219926Y-89125126D02*
X142234744Y-89059642D01*
X142234744Y-89059642D02*
X142268527Y-89010144D01*
X142268527Y-89010144D02*
X142321578Y-88976408D01*
X142321578Y-88976408D02*
X142394199Y-88958207D01*
X142394199Y-88958207D02*
X142448001Y-88954639D01*
X142448001Y-88954639D02*
X142507090Y-88956452D01*
X142507090Y-88956452D02*
X142507090Y-88956452D01*
G36*
X142507090Y-88956452D02*
G01*
X142554707Y-88965482D01*
X142604107Y-88984370D01*
X142609385Y-88986777D01*
X142646847Y-89006476D01*
X142672790Y-89024781D01*
X142681176Y-89036508D01*
X142673190Y-89055632D01*
X142653793Y-89083850D01*
X142645183Y-89094384D01*
X142609701Y-89135847D01*
X142563958Y-89108858D01*
X142520423Y-89090878D01*
X142470123Y-89081267D01*
X142421885Y-89080660D01*
X142384540Y-89089691D01*
X142375578Y-89095327D01*
X142358510Y-89121171D01*
X142356436Y-89150941D01*
X142369207Y-89174197D01*
X142376761Y-89178708D01*
X142399398Y-89184309D01*
X142439188Y-89190892D01*
X142488239Y-89197183D01*
X142497288Y-89198170D01*
X142576069Y-89211798D01*
X142633209Y-89234946D01*
X142671103Y-89269752D01*
X142692152Y-89318354D01*
X142698708Y-89377718D01*
X142689650Y-89445198D01*
X142660237Y-89498188D01*
X142610351Y-89536783D01*
X142539873Y-89561081D01*
X142461638Y-89570667D01*
X142397839Y-89570552D01*
X142346089Y-89561845D01*
X142310746Y-89549825D01*
X142266090Y-89528880D01*
X142224820Y-89504574D01*
X142210152Y-89493876D01*
X142172430Y-89463084D01*
X142217925Y-89417049D01*
X142263420Y-89371013D01*
X142315145Y-89405243D01*
X142367025Y-89430952D01*
X142422424Y-89444399D01*
X142475678Y-89445818D01*
X142521122Y-89435443D01*
X142553089Y-89413507D01*
X142563411Y-89394998D01*
X142561862Y-89365314D01*
X142536213Y-89342615D01*
X142486533Y-89326940D01*
X142432104Y-89319695D01*
X142348337Y-89305873D01*
X142286106Y-89279796D01*
X142244580Y-89240699D01*
X142222926Y-89187820D01*
X142219926Y-89125126D01*
X142234744Y-89059642D01*
X142268527Y-89010144D01*
X142321578Y-88976408D01*
X142394199Y-88958207D01*
X142448001Y-88954639D01*
X142507090Y-88956452D01*
G37*
X142507090Y-88956452D02*
X142554707Y-88965482D01*
X142604107Y-88984370D01*
X142609385Y-88986777D01*
X142646847Y-89006476D01*
X142672790Y-89024781D01*
X142681176Y-89036508D01*
X142673190Y-89055632D01*
X142653793Y-89083850D01*
X142645183Y-89094384D01*
X142609701Y-89135847D01*
X142563958Y-89108858D01*
X142520423Y-89090878D01*
X142470123Y-89081267D01*
X142421885Y-89080660D01*
X142384540Y-89089691D01*
X142375578Y-89095327D01*
X142358510Y-89121171D01*
X142356436Y-89150941D01*
X142369207Y-89174197D01*
X142376761Y-89178708D01*
X142399398Y-89184309D01*
X142439188Y-89190892D01*
X142488239Y-89197183D01*
X142497288Y-89198170D01*
X142576069Y-89211798D01*
X142633209Y-89234946D01*
X142671103Y-89269752D01*
X142692152Y-89318354D01*
X142698708Y-89377718D01*
X142689650Y-89445198D01*
X142660237Y-89498188D01*
X142610351Y-89536783D01*
X142539873Y-89561081D01*
X142461638Y-89570667D01*
X142397839Y-89570552D01*
X142346089Y-89561845D01*
X142310746Y-89549825D01*
X142266090Y-89528880D01*
X142224820Y-89504574D01*
X142210152Y-89493876D01*
X142172430Y-89463084D01*
X142217925Y-89417049D01*
X142263420Y-89371013D01*
X142315145Y-89405243D01*
X142367025Y-89430952D01*
X142422424Y-89444399D01*
X142475678Y-89445818D01*
X142521122Y-89435443D01*
X142553089Y-89413507D01*
X142563411Y-89394998D01*
X142561862Y-89365314D01*
X142536213Y-89342615D01*
X142486533Y-89326940D01*
X142432104Y-89319695D01*
X142348337Y-89305873D01*
X142286106Y-89279796D01*
X142244580Y-89240699D01*
X142222926Y-89187820D01*
X142219926Y-89125126D01*
X142234744Y-89059642D01*
X142268527Y-89010144D01*
X142321578Y-88976408D01*
X142394199Y-88958207D01*
X142448001Y-88954639D01*
X142507090Y-88956452D01*
X141499717Y-89903020D02*
X141518534Y-89908660D01*
X141518534Y-89908660D02*
X141524600Y-89921053D01*
X141524600Y-89921053D02*
X141524855Y-89926647D01*
X141524855Y-89926647D02*
X141525944Y-89942230D01*
X141525944Y-89942230D02*
X141533441Y-89944676D01*
X141533441Y-89944676D02*
X141553692Y-89933993D01*
X141553692Y-89933993D02*
X141565722Y-89926694D01*
X141565722Y-89926694D02*
X141603673Y-89911063D01*
X141603673Y-89911063D02*
X141649001Y-89903334D01*
X141649001Y-89903334D02*
X141696529Y-89902740D01*
X141696529Y-89902740D02*
X141741078Y-89908513D01*
X141741078Y-89908513D02*
X141777471Y-89919884D01*
X141777471Y-89919884D02*
X141800530Y-89936088D01*
X141800530Y-89936088D02*
X141805077Y-89956355D01*
X141805077Y-89956355D02*
X141802782Y-89961843D01*
X141802782Y-89961843D02*
X141786053Y-89984626D01*
X141786053Y-89984626D02*
X141760110Y-90012647D01*
X141760110Y-90012647D02*
X141755418Y-90017177D01*
X141755418Y-90017177D02*
X141730690Y-90038005D01*
X141730690Y-90038005D02*
X141709355Y-90044735D01*
X141709355Y-90044735D02*
X141679518Y-90040038D01*
X141679518Y-90040038D02*
X141667565Y-90036917D01*
X141667565Y-90036917D02*
X141630368Y-90029421D01*
X141630368Y-90029421D02*
X141604214Y-90032792D01*
X141604214Y-90032792D02*
X141582127Y-90044681D01*
X141582127Y-90044681D02*
X141561895Y-90060635D01*
X141561895Y-90060635D02*
X141546994Y-90080700D01*
X141546994Y-90080700D02*
X141536639Y-90108702D01*
X141536639Y-90108702D02*
X141530044Y-90148467D01*
X141530044Y-90148467D02*
X141526424Y-90203823D01*
X141526424Y-90203823D02*
X141524995Y-90278594D01*
X141524995Y-90278594D02*
X141524855Y-90323740D01*
X141524855Y-90323740D02*
X141524855Y-90517822D01*
X141524855Y-90517822D02*
X141399113Y-90517822D01*
X141399113Y-90517822D02*
X141399113Y-89901683D01*
X141399113Y-89901683D02*
X141461984Y-89901683D01*
X141461984Y-89901683D02*
X141499717Y-89903020D01*
X141499717Y-89903020D02*
X141499717Y-89903020D01*
G36*
X141499717Y-89903020D02*
G01*
X141518534Y-89908660D01*
X141524600Y-89921053D01*
X141524855Y-89926647D01*
X141525944Y-89942230D01*
X141533441Y-89944676D01*
X141553692Y-89933993D01*
X141565722Y-89926694D01*
X141603673Y-89911063D01*
X141649001Y-89903334D01*
X141696529Y-89902740D01*
X141741078Y-89908513D01*
X141777471Y-89919884D01*
X141800530Y-89936088D01*
X141805077Y-89956355D01*
X141802782Y-89961843D01*
X141786053Y-89984626D01*
X141760110Y-90012647D01*
X141755418Y-90017177D01*
X141730690Y-90038005D01*
X141709355Y-90044735D01*
X141679518Y-90040038D01*
X141667565Y-90036917D01*
X141630368Y-90029421D01*
X141604214Y-90032792D01*
X141582127Y-90044681D01*
X141561895Y-90060635D01*
X141546994Y-90080700D01*
X141536639Y-90108702D01*
X141530044Y-90148467D01*
X141526424Y-90203823D01*
X141524995Y-90278594D01*
X141524855Y-90323740D01*
X141524855Y-90517822D01*
X141399113Y-90517822D01*
X141399113Y-89901683D01*
X141461984Y-89901683D01*
X141499717Y-89903020D01*
G37*
X141499717Y-89903020D02*
X141518534Y-89908660D01*
X141524600Y-89921053D01*
X141524855Y-89926647D01*
X141525944Y-89942230D01*
X141533441Y-89944676D01*
X141553692Y-89933993D01*
X141565722Y-89926694D01*
X141603673Y-89911063D01*
X141649001Y-89903334D01*
X141696529Y-89902740D01*
X141741078Y-89908513D01*
X141777471Y-89919884D01*
X141800530Y-89936088D01*
X141805077Y-89956355D01*
X141802782Y-89961843D01*
X141786053Y-89984626D01*
X141760110Y-90012647D01*
X141755418Y-90017177D01*
X141730690Y-90038005D01*
X141709355Y-90044735D01*
X141679518Y-90040038D01*
X141667565Y-90036917D01*
X141630368Y-90029421D01*
X141604214Y-90032792D01*
X141582127Y-90044681D01*
X141561895Y-90060635D01*
X141546994Y-90080700D01*
X141536639Y-90108702D01*
X141530044Y-90148467D01*
X141526424Y-90203823D01*
X141524995Y-90278594D01*
X141524855Y-90323740D01*
X141524855Y-90517822D01*
X141399113Y-90517822D01*
X141399113Y-89901683D01*
X141461984Y-89901683D01*
X141499717Y-89903020D01*
X141108863Y-89906555D02*
X141168018Y-89922339D01*
X141168018Y-89922339D02*
X141213050Y-89950948D01*
X141213050Y-89950948D02*
X141244827Y-89988419D01*
X141244827Y-89988419D02*
X141254707Y-90004411D01*
X141254707Y-90004411D02*
X141262000Y-90021163D01*
X141262000Y-90021163D02*
X141267099Y-90042592D01*
X141267099Y-90042592D02*
X141270394Y-90072616D01*
X141270394Y-90072616D02*
X141272276Y-90115154D01*
X141272276Y-90115154D02*
X141273136Y-90174122D01*
X141273136Y-90174122D02*
X141273366Y-90253440D01*
X141273366Y-90253440D02*
X141273370Y-90274484D01*
X141273370Y-90274484D02*
X141273370Y-90517822D01*
X141273370Y-90517822D02*
X141213014Y-90517822D01*
X141213014Y-90517822D02*
X141174516Y-90515126D01*
X141174516Y-90515126D02*
X141146050Y-90508295D01*
X141146050Y-90508295D02*
X141138918Y-90504083D01*
X141138918Y-90504083D02*
X141119421Y-90496813D01*
X141119421Y-90496813D02*
X141099507Y-90504083D01*
X141099507Y-90504083D02*
X141066720Y-90513160D01*
X141066720Y-90513160D02*
X141019095Y-90516813D01*
X141019095Y-90516813D02*
X140966309Y-90515228D01*
X140966309Y-90515228D02*
X140918037Y-90508589D01*
X140918037Y-90508589D02*
X140889855Y-90500072D01*
X140889855Y-90500072D02*
X140835320Y-90465063D01*
X140835320Y-90465063D02*
X140801238Y-90416479D01*
X140801238Y-90416479D02*
X140785916Y-90351882D01*
X140785916Y-90351882D02*
X140785774Y-90350223D01*
X140785774Y-90350223D02*
X140787118Y-90321566D01*
X140787118Y-90321566D02*
X140908717Y-90321566D01*
X140908717Y-90321566D02*
X140919347Y-90354161D01*
X140919347Y-90354161D02*
X140936663Y-90372505D01*
X140936663Y-90372505D02*
X140971421Y-90386379D01*
X140971421Y-90386379D02*
X141017300Y-90391917D01*
X141017300Y-90391917D02*
X141064085Y-90389191D01*
X141064085Y-90389191D02*
X141101559Y-90378274D01*
X141101559Y-90378274D02*
X141112058Y-90371269D01*
X141112058Y-90371269D02*
X141130405Y-90338904D01*
X141130405Y-90338904D02*
X141135053Y-90302111D01*
X141135053Y-90302111D02*
X141135053Y-90253763D01*
X141135053Y-90253763D02*
X141065491Y-90253763D01*
X141065491Y-90253763D02*
X140999406Y-90258850D01*
X140999406Y-90258850D02*
X140949309Y-90273263D01*
X140949309Y-90273263D02*
X140918144Y-90295729D01*
X140918144Y-90295729D02*
X140908717Y-90321566D01*
X140908717Y-90321566D02*
X140787118Y-90321566D01*
X140787118Y-90321566D02*
X140789086Y-90279647D01*
X140789086Y-90279647D02*
X140812363Y-90223845D01*
X140812363Y-90223845D02*
X140856125Y-90181647D01*
X140856125Y-90181647D02*
X140862174Y-90177808D01*
X140862174Y-90177808D02*
X140888166Y-90165309D01*
X140888166Y-90165309D02*
X140920338Y-90157740D01*
X140920338Y-90157740D02*
X140965313Y-90154061D01*
X140965313Y-90154061D02*
X141018742Y-90153216D01*
X141018742Y-90153216D02*
X141135053Y-90153169D01*
X141135053Y-90153169D02*
X141135053Y-90104411D01*
X141135053Y-90104411D02*
X141130120Y-90066581D01*
X141130120Y-90066581D02*
X141117530Y-90041236D01*
X141117530Y-90041236D02*
X141116056Y-90039887D01*
X141116056Y-90039887D02*
X141088039Y-90028800D01*
X141088039Y-90028800D02*
X141045747Y-90024503D01*
X141045747Y-90024503D02*
X140999009Y-90026615D01*
X140999009Y-90026615D02*
X140957655Y-90034756D01*
X140957655Y-90034756D02*
X140933116Y-90046965D01*
X140933116Y-90046965D02*
X140919820Y-90056746D01*
X140919820Y-90056746D02*
X140905779Y-90058613D01*
X140905779Y-90058613D02*
X140886402Y-90050600D01*
X140886402Y-90050600D02*
X140857097Y-90030739D01*
X140857097Y-90030739D02*
X140813270Y-89997063D01*
X140813270Y-89997063D02*
X140809248Y-89993909D01*
X140809248Y-89993909D02*
X140811309Y-89982236D01*
X140811309Y-89982236D02*
X140828505Y-89962822D01*
X140828505Y-89962822D02*
X140854640Y-89941248D01*
X140854640Y-89941248D02*
X140883521Y-89923096D01*
X140883521Y-89923096D02*
X140892595Y-89918809D01*
X140892595Y-89918809D02*
X140925693Y-89910256D01*
X140925693Y-89910256D02*
X140974193Y-89904155D01*
X140974193Y-89904155D02*
X141028378Y-89901708D01*
X141028378Y-89901708D02*
X141030912Y-89901703D01*
X141030912Y-89901703D02*
X141108863Y-89906555D01*
X141108863Y-89906555D02*
X141108863Y-89906555D01*
G36*
X140812363Y-90223845D02*
G01*
X140856125Y-90181647D01*
X140862174Y-90177808D01*
X140888166Y-90165309D01*
X140920338Y-90157740D01*
X140965313Y-90154061D01*
X141018742Y-90153216D01*
X141135053Y-90153169D01*
X141135053Y-90104411D01*
X141130120Y-90066581D01*
X141117530Y-90041236D01*
X141116056Y-90039887D01*
X141088039Y-90028800D01*
X141045747Y-90024503D01*
X140999009Y-90026615D01*
X140957655Y-90034756D01*
X140933116Y-90046965D01*
X140919820Y-90056746D01*
X140905779Y-90058613D01*
X140886402Y-90050600D01*
X140857097Y-90030739D01*
X140813270Y-89997063D01*
X140809248Y-89993909D01*
X140811309Y-89982236D01*
X140828505Y-89962822D01*
X140854640Y-89941248D01*
X140883521Y-89923096D01*
X140892595Y-89918809D01*
X140925693Y-89910256D01*
X140974193Y-89904155D01*
X141028378Y-89901708D01*
X141030912Y-89901703D01*
X141108863Y-89906555D01*
X141168018Y-89922339D01*
X141213050Y-89950948D01*
X141244827Y-89988419D01*
X141254707Y-90004411D01*
X141262000Y-90021163D01*
X141267099Y-90042592D01*
X141270394Y-90072616D01*
X141272276Y-90115154D01*
X141273136Y-90174122D01*
X141273366Y-90253440D01*
X141273370Y-90274484D01*
X141273370Y-90517822D01*
X141213014Y-90517822D01*
X141174516Y-90515126D01*
X141146050Y-90508295D01*
X141138918Y-90504083D01*
X141119421Y-90496813D01*
X141099507Y-90504083D01*
X141066720Y-90513160D01*
X141019095Y-90516813D01*
X140966309Y-90515228D01*
X140918037Y-90508589D01*
X140889855Y-90500072D01*
X140835320Y-90465063D01*
X140801238Y-90416479D01*
X140785916Y-90351882D01*
X140785774Y-90350223D01*
X140787118Y-90321566D01*
X140908717Y-90321566D01*
X140919347Y-90354161D01*
X140936663Y-90372505D01*
X140971421Y-90386379D01*
X141017300Y-90391917D01*
X141064085Y-90389191D01*
X141101559Y-90378274D01*
X141112058Y-90371269D01*
X141130405Y-90338904D01*
X141135053Y-90302111D01*
X141135053Y-90253763D01*
X141065491Y-90253763D01*
X140999406Y-90258850D01*
X140949309Y-90273263D01*
X140918144Y-90295729D01*
X140908717Y-90321566D01*
X140787118Y-90321566D01*
X140789086Y-90279647D01*
X140812363Y-90223845D01*
G37*
X140812363Y-90223845D02*
X140856125Y-90181647D01*
X140862174Y-90177808D01*
X140888166Y-90165309D01*
X140920338Y-90157740D01*
X140965313Y-90154061D01*
X141018742Y-90153216D01*
X141135053Y-90153169D01*
X141135053Y-90104411D01*
X141130120Y-90066581D01*
X141117530Y-90041236D01*
X141116056Y-90039887D01*
X141088039Y-90028800D01*
X141045747Y-90024503D01*
X140999009Y-90026615D01*
X140957655Y-90034756D01*
X140933116Y-90046965D01*
X140919820Y-90056746D01*
X140905779Y-90058613D01*
X140886402Y-90050600D01*
X140857097Y-90030739D01*
X140813270Y-89997063D01*
X140809248Y-89993909D01*
X140811309Y-89982236D01*
X140828505Y-89962822D01*
X140854640Y-89941248D01*
X140883521Y-89923096D01*
X140892595Y-89918809D01*
X140925693Y-89910256D01*
X140974193Y-89904155D01*
X141028378Y-89901708D01*
X141030912Y-89901703D01*
X141108863Y-89906555D01*
X141168018Y-89922339D01*
X141213050Y-89950948D01*
X141244827Y-89988419D01*
X141254707Y-90004411D01*
X141262000Y-90021163D01*
X141267099Y-90042592D01*
X141270394Y-90072616D01*
X141272276Y-90115154D01*
X141273136Y-90174122D01*
X141273366Y-90253440D01*
X141273370Y-90274484D01*
X141273370Y-90517822D01*
X141213014Y-90517822D01*
X141174516Y-90515126D01*
X141146050Y-90508295D01*
X141138918Y-90504083D01*
X141119421Y-90496813D01*
X141099507Y-90504083D01*
X141066720Y-90513160D01*
X141019095Y-90516813D01*
X140966309Y-90515228D01*
X140918037Y-90508589D01*
X140889855Y-90500072D01*
X140835320Y-90465063D01*
X140801238Y-90416479D01*
X140785916Y-90351882D01*
X140785774Y-90350223D01*
X140787118Y-90321566D01*
X140908717Y-90321566D01*
X140919347Y-90354161D01*
X140936663Y-90372505D01*
X140971421Y-90386379D01*
X141017300Y-90391917D01*
X141064085Y-90389191D01*
X141101559Y-90378274D01*
X141112058Y-90371269D01*
X141130405Y-90338904D01*
X141135053Y-90302111D01*
X141135053Y-90253763D01*
X141065491Y-90253763D01*
X140999406Y-90258850D01*
X140949309Y-90273263D01*
X140918144Y-90295729D01*
X140908717Y-90321566D01*
X140787118Y-90321566D01*
X140789086Y-90279647D01*
X140812363Y-90223845D01*
X144292533Y-88958030D02*
X144335784Y-88971245D01*
X144335784Y-88971245D02*
X144363631Y-88987941D01*
X144363631Y-88987941D02*
X144372702Y-89001145D01*
X144372702Y-89001145D02*
X144370205Y-89016797D01*
X144370205Y-89016797D02*
X144354004Y-89041385D01*
X144354004Y-89041385D02*
X144340305Y-89058800D01*
X144340305Y-89058800D02*
X144312065Y-89090283D01*
X144312065Y-89090283D02*
X144290848Y-89103529D01*
X144290848Y-89103529D02*
X144272761Y-89102664D01*
X144272761Y-89102664D02*
X144219108Y-89089010D01*
X144219108Y-89089010D02*
X144179703Y-89089630D01*
X144179703Y-89089630D02*
X144147705Y-89105104D01*
X144147705Y-89105104D02*
X144136963Y-89114161D01*
X144136963Y-89114161D02*
X144102578Y-89146027D01*
X144102578Y-89146027D02*
X144102578Y-89562179D01*
X144102578Y-89562179D02*
X143964261Y-89562179D01*
X143964261Y-89562179D02*
X143964261Y-88958614D01*
X143964261Y-88958614D02*
X144033420Y-88958614D01*
X144033420Y-88958614D02*
X144074942Y-88960256D01*
X144074942Y-88960256D02*
X144096364Y-88966087D01*
X144096364Y-88966087D02*
X144102575Y-88977461D01*
X144102575Y-88977461D02*
X144102578Y-88977798D01*
X144102578Y-88977798D02*
X144105512Y-88989713D01*
X144105512Y-88989713D02*
X144118777Y-88988159D01*
X144118777Y-88988159D02*
X144137157Y-88979563D01*
X144137157Y-88979563D02*
X144175119Y-88963568D01*
X144175119Y-88963568D02*
X144205945Y-88953945D01*
X144205945Y-88953945D02*
X144245609Y-88951478D01*
X144245609Y-88951478D02*
X144292533Y-88958030D01*
X144292533Y-88958030D02*
X144292533Y-88958030D01*
G36*
X144292533Y-88958030D02*
G01*
X144335784Y-88971245D01*
X144363631Y-88987941D01*
X144372702Y-89001145D01*
X144370205Y-89016797D01*
X144354004Y-89041385D01*
X144340305Y-89058800D01*
X144312065Y-89090283D01*
X144290848Y-89103529D01*
X144272761Y-89102664D01*
X144219108Y-89089010D01*
X144179703Y-89089630D01*
X144147705Y-89105104D01*
X144136963Y-89114161D01*
X144102578Y-89146027D01*
X144102578Y-89562179D01*
X143964261Y-89562179D01*
X143964261Y-88958614D01*
X144033420Y-88958614D01*
X144074942Y-88960256D01*
X144096364Y-88966087D01*
X144102575Y-88977461D01*
X144102578Y-88977798D01*
X144105512Y-88989713D01*
X144118777Y-88988159D01*
X144137157Y-88979563D01*
X144175119Y-88963568D01*
X144205945Y-88953945D01*
X144245609Y-88951478D01*
X144292533Y-88958030D01*
G37*
X144292533Y-88958030D02*
X144335784Y-88971245D01*
X144363631Y-88987941D01*
X144372702Y-89001145D01*
X144370205Y-89016797D01*
X144354004Y-89041385D01*
X144340305Y-89058800D01*
X144312065Y-89090283D01*
X144290848Y-89103529D01*
X144272761Y-89102664D01*
X144219108Y-89089010D01*
X144179703Y-89089630D01*
X144147705Y-89105104D01*
X144136963Y-89114161D01*
X144102578Y-89146027D01*
X144102578Y-89562179D01*
X143964261Y-89562179D01*
X143964261Y-88958614D01*
X144033420Y-88958614D01*
X144074942Y-88960256D01*
X144096364Y-88966087D01*
X144102575Y-88977461D01*
X144102578Y-88977798D01*
X144105512Y-88989713D01*
X144118777Y-88988159D01*
X144137157Y-88979563D01*
X144175119Y-88963568D01*
X144205945Y-88953945D01*
X144245609Y-88951478D01*
X144292533Y-88958030D01*
X143531484Y-89905417D02*
X143584484Y-89918290D01*
X143584484Y-89918290D02*
X143599804Y-89925110D01*
X143599804Y-89925110D02*
X143629501Y-89942974D01*
X143629501Y-89942974D02*
X143652293Y-89963093D01*
X143652293Y-89963093D02*
X143669156Y-89988962D01*
X143669156Y-89988962D02*
X143681071Y-90024073D01*
X143681071Y-90024073D02*
X143689015Y-90071920D01*
X143689015Y-90071920D02*
X143693967Y-90135996D01*
X143693967Y-90135996D02*
X143696904Y-90219794D01*
X143696904Y-90219794D02*
X143698020Y-90275768D01*
X143698020Y-90275768D02*
X143702125Y-90517822D01*
X143702125Y-90517822D02*
X143632005Y-90517822D01*
X143632005Y-90517822D02*
X143589466Y-90516038D01*
X143589466Y-90516038D02*
X143567549Y-90509942D01*
X143567549Y-90509942D02*
X143561885Y-90499706D01*
X143561885Y-90499706D02*
X143558894Y-90488637D01*
X143558894Y-90488637D02*
X143545524Y-90490754D01*
X143545524Y-90490754D02*
X143527306Y-90499629D01*
X143527306Y-90499629D02*
X143481697Y-90513233D01*
X143481697Y-90513233D02*
X143423080Y-90516899D01*
X143423080Y-90516899D02*
X143361427Y-90510903D01*
X143361427Y-90510903D02*
X143306711Y-90495521D01*
X143306711Y-90495521D02*
X143301803Y-90493386D01*
X143301803Y-90493386D02*
X143251796Y-90458255D01*
X143251796Y-90458255D02*
X143218829Y-90409419D01*
X143218829Y-90409419D02*
X143203660Y-90352333D01*
X143203660Y-90352333D02*
X143204819Y-90331824D01*
X143204819Y-90331824D02*
X143328581Y-90331824D01*
X143328581Y-90331824D02*
X143339486Y-90359425D01*
X143339486Y-90359425D02*
X143371818Y-90379204D01*
X143371818Y-90379204D02*
X143423983Y-90389819D01*
X143423983Y-90389819D02*
X143451860Y-90391228D01*
X143451860Y-90391228D02*
X143498320Y-90387620D01*
X143498320Y-90387620D02*
X143529202Y-90373597D01*
X143529202Y-90373597D02*
X143536737Y-90366931D01*
X143536737Y-90366931D02*
X143557149Y-90330666D01*
X143557149Y-90330666D02*
X143561885Y-90297773D01*
X143561885Y-90297773D02*
X143561885Y-90253763D01*
X143561885Y-90253763D02*
X143500586Y-90253763D01*
X143500586Y-90253763D02*
X143429329Y-90257395D01*
X143429329Y-90257395D02*
X143379349Y-90268818D01*
X143379349Y-90268818D02*
X143347769Y-90288824D01*
X143347769Y-90288824D02*
X143340699Y-90297743D01*
X143340699Y-90297743D02*
X143328581Y-90331824D01*
X143328581Y-90331824D02*
X143204819Y-90331824D01*
X143204819Y-90331824D02*
X143207044Y-90292456D01*
X143207044Y-90292456D02*
X143229736Y-90235244D01*
X143229736Y-90235244D02*
X143260697Y-90196580D01*
X143260697Y-90196580D02*
X143279449Y-90179864D01*
X143279449Y-90179864D02*
X143297806Y-90168878D01*
X143297806Y-90168878D02*
X143321692Y-90162180D01*
X143321692Y-90162180D02*
X143357030Y-90158326D01*
X143357030Y-90158326D02*
X143409742Y-90155873D01*
X143409742Y-90155873D02*
X143430650Y-90155168D01*
X143430650Y-90155168D02*
X143561885Y-90150879D01*
X143561885Y-90150879D02*
X143561693Y-90111158D01*
X143561693Y-90111158D02*
X143556610Y-90069405D01*
X143556610Y-90069405D02*
X143538235Y-90044158D01*
X143538235Y-90044158D02*
X143501112Y-90028030D01*
X143501112Y-90028030D02*
X143500116Y-90027742D01*
X143500116Y-90027742D02*
X143447483Y-90021400D01*
X143447483Y-90021400D02*
X143395979Y-90029684D01*
X143395979Y-90029684D02*
X143357703Y-90049827D01*
X143357703Y-90049827D02*
X143342345Y-90059773D01*
X143342345Y-90059773D02*
X143325803Y-90058397D01*
X143325803Y-90058397D02*
X143300348Y-90043987D01*
X143300348Y-90043987D02*
X143285401Y-90033817D01*
X143285401Y-90033817D02*
X143256164Y-90012088D01*
X143256164Y-90012088D02*
X143238053Y-89995800D01*
X143238053Y-89995800D02*
X143235147Y-89991137D01*
X143235147Y-89991137D02*
X143247113Y-89967005D01*
X143247113Y-89967005D02*
X143282469Y-89938185D01*
X143282469Y-89938185D02*
X143297826Y-89928461D01*
X143297826Y-89928461D02*
X143341974Y-89911714D01*
X143341974Y-89911714D02*
X143401471Y-89902227D01*
X143401471Y-89902227D02*
X143467560Y-89900095D01*
X143467560Y-89900095D02*
X143531484Y-89905417D01*
X143531484Y-89905417D02*
X143531484Y-89905417D01*
G36*
X143229736Y-90235244D02*
G01*
X143260697Y-90196580D01*
X143279449Y-90179864D01*
X143297806Y-90168878D01*
X143321692Y-90162180D01*
X143357030Y-90158326D01*
X143409742Y-90155873D01*
X143430650Y-90155168D01*
X143561885Y-90150879D01*
X143561693Y-90111158D01*
X143556610Y-90069405D01*
X143538235Y-90044158D01*
X143501112Y-90028030D01*
X143500116Y-90027742D01*
X143447483Y-90021400D01*
X143395979Y-90029684D01*
X143357703Y-90049827D01*
X143342345Y-90059773D01*
X143325803Y-90058397D01*
X143300348Y-90043987D01*
X143285401Y-90033817D01*
X143256164Y-90012088D01*
X143238053Y-89995800D01*
X143235147Y-89991137D01*
X143247113Y-89967005D01*
X143282469Y-89938185D01*
X143297826Y-89928461D01*
X143341974Y-89911714D01*
X143401471Y-89902227D01*
X143467560Y-89900095D01*
X143531484Y-89905417D01*
X143584484Y-89918290D01*
X143599804Y-89925110D01*
X143629501Y-89942974D01*
X143652293Y-89963093D01*
X143669156Y-89988962D01*
X143681071Y-90024073D01*
X143689015Y-90071920D01*
X143693967Y-90135996D01*
X143696904Y-90219794D01*
X143698020Y-90275768D01*
X143702125Y-90517822D01*
X143632005Y-90517822D01*
X143589466Y-90516038D01*
X143567549Y-90509942D01*
X143561885Y-90499706D01*
X143558894Y-90488637D01*
X143545524Y-90490754D01*
X143527306Y-90499629D01*
X143481697Y-90513233D01*
X143423080Y-90516899D01*
X143361427Y-90510903D01*
X143306711Y-90495521D01*
X143301803Y-90493386D01*
X143251796Y-90458255D01*
X143218829Y-90409419D01*
X143203660Y-90352333D01*
X143204819Y-90331824D01*
X143328581Y-90331824D01*
X143339486Y-90359425D01*
X143371818Y-90379204D01*
X143423983Y-90389819D01*
X143451860Y-90391228D01*
X143498320Y-90387620D01*
X143529202Y-90373597D01*
X143536737Y-90366931D01*
X143557149Y-90330666D01*
X143561885Y-90297773D01*
X143561885Y-90253763D01*
X143500586Y-90253763D01*
X143429329Y-90257395D01*
X143379349Y-90268818D01*
X143347769Y-90288824D01*
X143340699Y-90297743D01*
X143328581Y-90331824D01*
X143204819Y-90331824D01*
X143207044Y-90292456D01*
X143229736Y-90235244D01*
G37*
X143229736Y-90235244D02*
X143260697Y-90196580D01*
X143279449Y-90179864D01*
X143297806Y-90168878D01*
X143321692Y-90162180D01*
X143357030Y-90158326D01*
X143409742Y-90155873D01*
X143430650Y-90155168D01*
X143561885Y-90150879D01*
X143561693Y-90111158D01*
X143556610Y-90069405D01*
X143538235Y-90044158D01*
X143501112Y-90028030D01*
X143500116Y-90027742D01*
X143447483Y-90021400D01*
X143395979Y-90029684D01*
X143357703Y-90049827D01*
X143342345Y-90059773D01*
X143325803Y-90058397D01*
X143300348Y-90043987D01*
X143285401Y-90033817D01*
X143256164Y-90012088D01*
X143238053Y-89995800D01*
X143235147Y-89991137D01*
X143247113Y-89967005D01*
X143282469Y-89938185D01*
X143297826Y-89928461D01*
X143341974Y-89911714D01*
X143401471Y-89902227D01*
X143467560Y-89900095D01*
X143531484Y-89905417D01*
X143584484Y-89918290D01*
X143599804Y-89925110D01*
X143629501Y-89942974D01*
X143652293Y-89963093D01*
X143669156Y-89988962D01*
X143681071Y-90024073D01*
X143689015Y-90071920D01*
X143693967Y-90135996D01*
X143696904Y-90219794D01*
X143698020Y-90275768D01*
X143702125Y-90517822D01*
X143632005Y-90517822D01*
X143589466Y-90516038D01*
X143567549Y-90509942D01*
X143561885Y-90499706D01*
X143558894Y-90488637D01*
X143545524Y-90490754D01*
X143527306Y-90499629D01*
X143481697Y-90513233D01*
X143423080Y-90516899D01*
X143361427Y-90510903D01*
X143306711Y-90495521D01*
X143301803Y-90493386D01*
X143251796Y-90458255D01*
X143218829Y-90409419D01*
X143203660Y-90352333D01*
X143204819Y-90331824D01*
X143328581Y-90331824D01*
X143339486Y-90359425D01*
X143371818Y-90379204D01*
X143423983Y-90389819D01*
X143451860Y-90391228D01*
X143498320Y-90387620D01*
X143529202Y-90373597D01*
X143536737Y-90366931D01*
X143557149Y-90330666D01*
X143561885Y-90297773D01*
X143561885Y-90253763D01*
X143500586Y-90253763D01*
X143429329Y-90257395D01*
X143379349Y-90268818D01*
X143347769Y-90288824D01*
X143340699Y-90297743D01*
X143328581Y-90331824D01*
X143204819Y-90331824D01*
X143207044Y-90292456D01*
X143229736Y-90235244D01*
X142291885Y-90517822D02*
X142222727Y-90517822D01*
X142222727Y-90517822D02*
X142182585Y-90516645D01*
X142182585Y-90516645D02*
X142161679Y-90511772D01*
X142161679Y-90511772D02*
X142154151Y-90501186D01*
X142154151Y-90501186D02*
X142153568Y-90494029D01*
X142153568Y-90494029D02*
X142152299Y-90479676D01*
X142152299Y-90479676D02*
X142144294Y-90476923D01*
X142144294Y-90476923D02*
X142123258Y-90485771D01*
X142123258Y-90485771D02*
X142106900Y-90494029D01*
X142106900Y-90494029D02*
X142044096Y-90513597D01*
X142044096Y-90513597D02*
X141975825Y-90514729D01*
X141975825Y-90514729D02*
X141920321Y-90500135D01*
X141920321Y-90500135D02*
X141868635Y-90464877D01*
X141868635Y-90464877D02*
X141829235Y-90412835D01*
X141829235Y-90412835D02*
X141807660Y-90351450D01*
X141807660Y-90351450D02*
X141807111Y-90348018D01*
X141807111Y-90348018D02*
X141803906Y-90310571D01*
X141803906Y-90310571D02*
X141802312Y-90256813D01*
X141802312Y-90256813D02*
X141802440Y-90216155D01*
X141802440Y-90216155D02*
X141939794Y-90216155D01*
X141939794Y-90216155D02*
X141942976Y-90270194D01*
X141942976Y-90270194D02*
X141950214Y-90314735D01*
X141950214Y-90314735D02*
X141960013Y-90339888D01*
X141960013Y-90339888D02*
X141997084Y-90374260D01*
X141997084Y-90374260D02*
X142041099Y-90386582D01*
X142041099Y-90386582D02*
X142086489Y-90376618D01*
X142086489Y-90376618D02*
X142125276Y-90346895D01*
X142125276Y-90346895D02*
X142139965Y-90326905D01*
X142139965Y-90326905D02*
X142148554Y-90303050D01*
X142148554Y-90303050D02*
X142152577Y-90268230D01*
X142152577Y-90268230D02*
X142153568Y-90215930D01*
X142153568Y-90215930D02*
X142151795Y-90164139D01*
X142151795Y-90164139D02*
X142147110Y-90118634D01*
X142147110Y-90118634D02*
X142140470Y-90088181D01*
X142140470Y-90088181D02*
X142139363Y-90085452D01*
X142139363Y-90085452D02*
X142112582Y-90053000D01*
X142112582Y-90053000D02*
X142073494Y-90035183D01*
X142073494Y-90035183D02*
X142029758Y-90032306D01*
X142029758Y-90032306D02*
X141989035Y-90044674D01*
X141989035Y-90044674D02*
X141958986Y-90072593D01*
X141958986Y-90072593D02*
X141955869Y-90078148D01*
X141955869Y-90078148D02*
X141946112Y-90112022D01*
X141946112Y-90112022D02*
X141940796Y-90160728D01*
X141940796Y-90160728D02*
X141939794Y-90216155D01*
X141939794Y-90216155D02*
X141802440Y-90216155D01*
X141802440Y-90216155D02*
X141802505Y-90195540D01*
X141802505Y-90195540D02*
X141803409Y-90162563D01*
X141803409Y-90162563D02*
X141809559Y-90080981D01*
X141809559Y-90080981D02*
X141822340Y-90019730D01*
X141822340Y-90019730D02*
X141843602Y-89974449D01*
X141843602Y-89974449D02*
X141875195Y-89940779D01*
X141875195Y-89940779D02*
X141905866Y-89921014D01*
X141905866Y-89921014D02*
X141948719Y-89907120D01*
X141948719Y-89907120D02*
X142002017Y-89902354D01*
X142002017Y-89902354D02*
X142056593Y-89906236D01*
X142056593Y-89906236D02*
X142103281Y-89918282D01*
X142103281Y-89918282D02*
X142127949Y-89932693D01*
X142127949Y-89932693D02*
X142153568Y-89955878D01*
X142153568Y-89955878D02*
X142153568Y-89662773D01*
X142153568Y-89662773D02*
X142291885Y-89662773D01*
X142291885Y-89662773D02*
X142291885Y-90517822D01*
X142291885Y-90517822D02*
X142291885Y-90517822D01*
G36*
X141803409Y-90162563D02*
G01*
X141809559Y-90080981D01*
X141822340Y-90019730D01*
X141843602Y-89974449D01*
X141875195Y-89940779D01*
X141905866Y-89921014D01*
X141948719Y-89907120D01*
X142002017Y-89902354D01*
X142056593Y-89906236D01*
X142103281Y-89918282D01*
X142127949Y-89932693D01*
X142153568Y-89955878D01*
X142153568Y-89662773D01*
X142291885Y-89662773D01*
X142291885Y-90517822D01*
X142222727Y-90517822D01*
X142182585Y-90516645D01*
X142161679Y-90511772D01*
X142154151Y-90501186D01*
X142153568Y-90494029D01*
X142152299Y-90479676D01*
X142144294Y-90476923D01*
X142123258Y-90485771D01*
X142106900Y-90494029D01*
X142044096Y-90513597D01*
X141975825Y-90514729D01*
X141920321Y-90500135D01*
X141868635Y-90464877D01*
X141829235Y-90412835D01*
X141807660Y-90351450D01*
X141807111Y-90348018D01*
X141803906Y-90310571D01*
X141802312Y-90256813D01*
X141802440Y-90216155D01*
X141939794Y-90216155D01*
X141942976Y-90270194D01*
X141950214Y-90314735D01*
X141960013Y-90339888D01*
X141997084Y-90374260D01*
X142041099Y-90386582D01*
X142086489Y-90376618D01*
X142125276Y-90346895D01*
X142139965Y-90326905D01*
X142148554Y-90303050D01*
X142152577Y-90268230D01*
X142153568Y-90215930D01*
X142151795Y-90164139D01*
X142147110Y-90118634D01*
X142140470Y-90088181D01*
X142139363Y-90085452D01*
X142112582Y-90053000D01*
X142073494Y-90035183D01*
X142029758Y-90032306D01*
X141989035Y-90044674D01*
X141958986Y-90072593D01*
X141955869Y-90078148D01*
X141946112Y-90112022D01*
X141940796Y-90160728D01*
X141939794Y-90216155D01*
X141802440Y-90216155D01*
X141802505Y-90195540D01*
X141803409Y-90162563D01*
G37*
X141803409Y-90162563D02*
X141809559Y-90080981D01*
X141822340Y-90019730D01*
X141843602Y-89974449D01*
X141875195Y-89940779D01*
X141905866Y-89921014D01*
X141948719Y-89907120D01*
X142002017Y-89902354D01*
X142056593Y-89906236D01*
X142103281Y-89918282D01*
X142127949Y-89932693D01*
X142153568Y-89955878D01*
X142153568Y-89662773D01*
X142291885Y-89662773D01*
X142291885Y-90517822D01*
X142222727Y-90517822D01*
X142182585Y-90516645D01*
X142161679Y-90511772D01*
X142154151Y-90501186D01*
X142153568Y-90494029D01*
X142152299Y-90479676D01*
X142144294Y-90476923D01*
X142123258Y-90485771D01*
X142106900Y-90494029D01*
X142044096Y-90513597D01*
X141975825Y-90514729D01*
X141920321Y-90500135D01*
X141868635Y-90464877D01*
X141829235Y-90412835D01*
X141807660Y-90351450D01*
X141807111Y-90348018D01*
X141803906Y-90310571D01*
X141802312Y-90256813D01*
X141802440Y-90216155D01*
X141939794Y-90216155D01*
X141942976Y-90270194D01*
X141950214Y-90314735D01*
X141960013Y-90339888D01*
X141997084Y-90374260D01*
X142041099Y-90386582D01*
X142086489Y-90376618D01*
X142125276Y-90346895D01*
X142139965Y-90326905D01*
X142148554Y-90303050D01*
X142152577Y-90268230D01*
X142153568Y-90215930D01*
X142151795Y-90164139D01*
X142147110Y-90118634D01*
X142140470Y-90088181D01*
X142139363Y-90085452D01*
X142112582Y-90053000D01*
X142073494Y-90035183D01*
X142029758Y-90032306D01*
X141989035Y-90044674D01*
X141958986Y-90072593D01*
X141955869Y-90078148D01*
X141946112Y-90112022D01*
X141940796Y-90160728D01*
X141939794Y-90216155D01*
X141802440Y-90216155D01*
X141802505Y-90195540D01*
X141803409Y-90162563D01*
X141136374Y-88972614D02*
X141148905Y-88978514D01*
X141148905Y-88978514D02*
X141192274Y-89010283D01*
X141192274Y-89010283D02*
X141233283Y-89056646D01*
X141233283Y-89056646D02*
X141263905Y-89107696D01*
X141263905Y-89107696D02*
X141272614Y-89131166D01*
X141272614Y-89131166D02*
X141280561Y-89173091D01*
X141280561Y-89173091D02*
X141285299Y-89223757D01*
X141285299Y-89223757D02*
X141285874Y-89244679D01*
X141285874Y-89244679D02*
X141285944Y-89310693D01*
X141285944Y-89310693D02*
X140905990Y-89310693D01*
X140905990Y-89310693D02*
X140914090Y-89345273D01*
X140914090Y-89345273D02*
X140933969Y-89386170D01*
X140933969Y-89386170D02*
X140968726Y-89421514D01*
X140968726Y-89421514D02*
X141010075Y-89444282D01*
X141010075Y-89444282D02*
X141036424Y-89449010D01*
X141036424Y-89449010D02*
X141072157Y-89443273D01*
X141072157Y-89443273D02*
X141114791Y-89428882D01*
X141114791Y-89428882D02*
X141129274Y-89422262D01*
X141129274Y-89422262D02*
X141182833Y-89395513D01*
X141182833Y-89395513D02*
X141228540Y-89430376D01*
X141228540Y-89430376D02*
X141254915Y-89453955D01*
X141254915Y-89453955D02*
X141268949Y-89473417D01*
X141268949Y-89473417D02*
X141269659Y-89479129D01*
X141269659Y-89479129D02*
X141257122Y-89492973D01*
X141257122Y-89492973D02*
X141229645Y-89514012D01*
X141229645Y-89514012D02*
X141204707Y-89530425D01*
X141204707Y-89530425D02*
X141137409Y-89559930D01*
X141137409Y-89559930D02*
X141061963Y-89573284D01*
X141061963Y-89573284D02*
X140987185Y-89569812D01*
X140987185Y-89569812D02*
X140927578Y-89551663D01*
X140927578Y-89551663D02*
X140866132Y-89512784D01*
X140866132Y-89512784D02*
X140822465Y-89461595D01*
X140822465Y-89461595D02*
X140795147Y-89395367D01*
X140795147Y-89395367D02*
X140782751Y-89311371D01*
X140782751Y-89311371D02*
X140781652Y-89272936D01*
X140781652Y-89272936D02*
X140786051Y-89184861D01*
X140786051Y-89184861D02*
X140786591Y-89182299D01*
X140786591Y-89182299D02*
X140912491Y-89182299D01*
X140912491Y-89182299D02*
X140915958Y-89190558D01*
X140915958Y-89190558D02*
X140930210Y-89195113D01*
X140930210Y-89195113D02*
X140959603Y-89197065D01*
X140959603Y-89197065D02*
X141008498Y-89197517D01*
X141008498Y-89197517D02*
X141027325Y-89197525D01*
X141027325Y-89197525D02*
X141084606Y-89196843D01*
X141084606Y-89196843D02*
X141120932Y-89194364D01*
X141120932Y-89194364D02*
X141140469Y-89189443D01*
X141140469Y-89189443D02*
X141147383Y-89181434D01*
X141147383Y-89181434D02*
X141147628Y-89178862D01*
X141147628Y-89178862D02*
X141139737Y-89158423D01*
X141139737Y-89158423D02*
X141119988Y-89129789D01*
X141119988Y-89129789D02*
X141111498Y-89119763D01*
X141111498Y-89119763D02*
X141079979Y-89091408D01*
X141079979Y-89091408D02*
X141047124Y-89080259D01*
X141047124Y-89080259D02*
X141029422Y-89079327D01*
X141029422Y-89079327D02*
X140981534Y-89090981D01*
X140981534Y-89090981D02*
X140941374Y-89122285D01*
X140941374Y-89122285D02*
X140915900Y-89167752D01*
X140915900Y-89167752D02*
X140915448Y-89169233D01*
X140915448Y-89169233D02*
X140912491Y-89182299D01*
X140912491Y-89182299D02*
X140786591Y-89182299D01*
X140786591Y-89182299D02*
X140800681Y-89115510D01*
X140800681Y-89115510D02*
X140827035Y-89060025D01*
X140827035Y-89060025D02*
X140859266Y-89020639D01*
X140859266Y-89020639D02*
X140918856Y-88977931D01*
X140918856Y-88977931D02*
X140988905Y-88955109D01*
X140988905Y-88955109D02*
X141063412Y-88953046D01*
X141063412Y-88953046D02*
X141136374Y-88972614D01*
X141136374Y-88972614D02*
X141136374Y-88972614D01*
G36*
X140827035Y-89060025D02*
G01*
X140859266Y-89020639D01*
X140918856Y-88977931D01*
X140988905Y-88955109D01*
X141063412Y-88953046D01*
X141136374Y-88972614D01*
X141148905Y-88978514D01*
X141192274Y-89010283D01*
X141233283Y-89056646D01*
X141263905Y-89107696D01*
X141272614Y-89131166D01*
X141280561Y-89173091D01*
X141285299Y-89223757D01*
X141285874Y-89244679D01*
X141285944Y-89310693D01*
X140905990Y-89310693D01*
X140914090Y-89345273D01*
X140933969Y-89386170D01*
X140968726Y-89421514D01*
X141010075Y-89444282D01*
X141036424Y-89449010D01*
X141072157Y-89443273D01*
X141114791Y-89428882D01*
X141129274Y-89422262D01*
X141182833Y-89395513D01*
X141228540Y-89430376D01*
X141254915Y-89453955D01*
X141268949Y-89473417D01*
X141269659Y-89479129D01*
X141257122Y-89492973D01*
X141229645Y-89514012D01*
X141204707Y-89530425D01*
X141137409Y-89559930D01*
X141061963Y-89573284D01*
X140987185Y-89569812D01*
X140927578Y-89551663D01*
X140866132Y-89512784D01*
X140822465Y-89461595D01*
X140795147Y-89395367D01*
X140782751Y-89311371D01*
X140781652Y-89272936D01*
X140786051Y-89184861D01*
X140786591Y-89182299D01*
X140912491Y-89182299D01*
X140915958Y-89190558D01*
X140930210Y-89195113D01*
X140959603Y-89197065D01*
X141008498Y-89197517D01*
X141027325Y-89197525D01*
X141084606Y-89196843D01*
X141120932Y-89194364D01*
X141140469Y-89189443D01*
X141147383Y-89181434D01*
X141147628Y-89178862D01*
X141139737Y-89158423D01*
X141119988Y-89129789D01*
X141111498Y-89119763D01*
X141079979Y-89091408D01*
X141047124Y-89080259D01*
X141029422Y-89079327D01*
X140981534Y-89090981D01*
X140941374Y-89122285D01*
X140915900Y-89167752D01*
X140915448Y-89169233D01*
X140912491Y-89182299D01*
X140786591Y-89182299D01*
X140800681Y-89115510D01*
X140827035Y-89060025D01*
G37*
X140827035Y-89060025D02*
X140859266Y-89020639D01*
X140918856Y-88977931D01*
X140988905Y-88955109D01*
X141063412Y-88953046D01*
X141136374Y-88972614D01*
X141148905Y-88978514D01*
X141192274Y-89010283D01*
X141233283Y-89056646D01*
X141263905Y-89107696D01*
X141272614Y-89131166D01*
X141280561Y-89173091D01*
X141285299Y-89223757D01*
X141285874Y-89244679D01*
X141285944Y-89310693D01*
X140905990Y-89310693D01*
X140914090Y-89345273D01*
X140933969Y-89386170D01*
X140968726Y-89421514D01*
X141010075Y-89444282D01*
X141036424Y-89449010D01*
X141072157Y-89443273D01*
X141114791Y-89428882D01*
X141129274Y-89422262D01*
X141182833Y-89395513D01*
X141228540Y-89430376D01*
X141254915Y-89453955D01*
X141268949Y-89473417D01*
X141269659Y-89479129D01*
X141257122Y-89492973D01*
X141229645Y-89514012D01*
X141204707Y-89530425D01*
X141137409Y-89559930D01*
X141061963Y-89573284D01*
X140987185Y-89569812D01*
X140927578Y-89551663D01*
X140866132Y-89512784D01*
X140822465Y-89461595D01*
X140795147Y-89395367D01*
X140782751Y-89311371D01*
X140781652Y-89272936D01*
X140786051Y-89184861D01*
X140786591Y-89182299D01*
X140912491Y-89182299D01*
X140915958Y-89190558D01*
X140930210Y-89195113D01*
X140959603Y-89197065D01*
X141008498Y-89197517D01*
X141027325Y-89197525D01*
X141084606Y-89196843D01*
X141120932Y-89194364D01*
X141140469Y-89189443D01*
X141147383Y-89181434D01*
X141147628Y-89178862D01*
X141139737Y-89158423D01*
X141119988Y-89129789D01*
X141111498Y-89119763D01*
X141079979Y-89091408D01*
X141047124Y-89080259D01*
X141029422Y-89079327D01*
X140981534Y-89090981D01*
X140941374Y-89122285D01*
X140915900Y-89167752D01*
X140915448Y-89169233D01*
X140912491Y-89182299D01*
X140786591Y-89182299D01*
X140800681Y-89115510D01*
X140827035Y-89060025D01*
X142870037Y-84790018D02*
X142926885Y-85091570D01*
X142926885Y-85091570D02*
X143346411Y-85264512D01*
X143346411Y-85264512D02*
X143598057Y-85093395D01*
X143598057Y-85093395D02*
X143668531Y-85045750D01*
X143668531Y-85045750D02*
X143732236Y-85003210D01*
X143732236Y-85003210D02*
X143786199Y-84967715D01*
X143786199Y-84967715D02*
X143827446Y-84941210D01*
X143827446Y-84941210D02*
X143853007Y-84925636D01*
X143853007Y-84925636D02*
X143859968Y-84922278D01*
X143859968Y-84922278D02*
X143872508Y-84930914D01*
X143872508Y-84930914D02*
X143899304Y-84954792D01*
X143899304Y-84954792D02*
X143937353Y-84990859D01*
X143937353Y-84990859D02*
X143983652Y-85036067D01*
X143983652Y-85036067D02*
X144035196Y-85087364D01*
X144035196Y-85087364D02*
X144088982Y-85141701D01*
X144088982Y-85141701D02*
X144142008Y-85196028D01*
X144142008Y-85196028D02*
X144191268Y-85247295D01*
X144191268Y-85247295D02*
X144233760Y-85292451D01*
X144233760Y-85292451D02*
X144266480Y-85328446D01*
X144266480Y-85328446D02*
X144286424Y-85352230D01*
X144286424Y-85352230D02*
X144291192Y-85360190D01*
X144291192Y-85360190D02*
X144284330Y-85374865D01*
X144284330Y-85374865D02*
X144265093Y-85407014D01*
X144265093Y-85407014D02*
X144235503Y-85453492D01*
X144235503Y-85453492D02*
X144197583Y-85511156D01*
X144197583Y-85511156D02*
X144153355Y-85576860D01*
X144153355Y-85576860D02*
X144127727Y-85614336D01*
X144127727Y-85614336D02*
X144081014Y-85682768D01*
X144081014Y-85682768D02*
X144039505Y-85744520D01*
X144039505Y-85744520D02*
X144005213Y-85796519D01*
X144005213Y-85796519D02*
X143980153Y-85835692D01*
X143980153Y-85835692D02*
X143966337Y-85858965D01*
X143966337Y-85858965D02*
X143964261Y-85863855D01*
X143964261Y-85863855D02*
X143968968Y-85877755D01*
X143968968Y-85877755D02*
X143981796Y-85910150D01*
X143981796Y-85910150D02*
X144000811Y-85956485D01*
X144000811Y-85956485D02*
X144024076Y-86012206D01*
X144024076Y-86012206D02*
X144049657Y-86072758D01*
X144049657Y-86072758D02*
X144075618Y-86133586D01*
X144075618Y-86133586D02*
X144100023Y-86190136D01*
X144100023Y-86190136D02*
X144120936Y-86237852D01*
X144120936Y-86237852D02*
X144136422Y-86272181D01*
X144136422Y-86272181D02*
X144144545Y-86288568D01*
X144144545Y-86288568D02*
X144145025Y-86289212D01*
X144145025Y-86289212D02*
X144157780Y-86292341D01*
X144157780Y-86292341D02*
X144191750Y-86299321D01*
X144191750Y-86299321D02*
X144243413Y-86309467D01*
X144243413Y-86309467D02*
X144309249Y-86322092D01*
X144309249Y-86322092D02*
X144385737Y-86336509D01*
X144385737Y-86336509D02*
X144430363Y-86344823D01*
X144430363Y-86344823D02*
X144512094Y-86360384D01*
X144512094Y-86360384D02*
X144585916Y-86375192D01*
X144585916Y-86375192D02*
X144648094Y-86388436D01*
X144648094Y-86388436D02*
X144694895Y-86399305D01*
X144694895Y-86399305D02*
X144722582Y-86406989D01*
X144722582Y-86406989D02*
X144728147Y-86409427D01*
X144728147Y-86409427D02*
X144733599Y-86425930D01*
X144733599Y-86425930D02*
X144737997Y-86463200D01*
X144737997Y-86463200D02*
X144741345Y-86516880D01*
X144741345Y-86516880D02*
X144743647Y-86582612D01*
X144743647Y-86582612D02*
X144744905Y-86656037D01*
X144744905Y-86656037D02*
X144745121Y-86732796D01*
X144745121Y-86732796D02*
X144744300Y-86808532D01*
X144744300Y-86808532D02*
X144742444Y-86878886D01*
X144742444Y-86878886D02*
X144739555Y-86939500D01*
X144739555Y-86939500D02*
X144735638Y-86986016D01*
X144735638Y-86986016D02*
X144730695Y-87014075D01*
X144730695Y-87014075D02*
X144727730Y-87019916D01*
X144727730Y-87019916D02*
X144710007Y-87026917D01*
X144710007Y-87026917D02*
X144672454Y-87036927D01*
X144672454Y-87036927D02*
X144620037Y-87048769D01*
X144620037Y-87048769D02*
X144557725Y-87061267D01*
X144557725Y-87061267D02*
X144535973Y-87065310D01*
X144535973Y-87065310D02*
X144431097Y-87084520D01*
X144431097Y-87084520D02*
X144348253Y-87099991D01*
X144348253Y-87099991D02*
X144284703Y-87112337D01*
X144284703Y-87112337D02*
X144237710Y-87122173D01*
X144237710Y-87122173D02*
X144204536Y-87130114D01*
X144204536Y-87130114D02*
X144182444Y-87136776D01*
X144182444Y-87136776D02*
X144168697Y-87142773D01*
X144168697Y-87142773D02*
X144160557Y-87148719D01*
X144160557Y-87148719D02*
X144159418Y-87149894D01*
X144159418Y-87149894D02*
X144148050Y-87168826D01*
X144148050Y-87168826D02*
X144130708Y-87205669D01*
X144130708Y-87205669D02*
X144109123Y-87255913D01*
X144109123Y-87255913D02*
X144085027Y-87315046D01*
X144085027Y-87315046D02*
X144060152Y-87378556D01*
X144060152Y-87378556D02*
X144036230Y-87441932D01*
X144036230Y-87441932D02*
X144014992Y-87500662D01*
X144014992Y-87500662D02*
X143998170Y-87550235D01*
X143998170Y-87550235D02*
X143987495Y-87586139D01*
X143987495Y-87586139D02*
X143984700Y-87603862D01*
X143984700Y-87603862D02*
X143984933Y-87604483D01*
X143984933Y-87604483D02*
X143994404Y-87618970D01*
X143994404Y-87618970D02*
X144015891Y-87650844D01*
X144015891Y-87650844D02*
X144047136Y-87696789D01*
X144047136Y-87696789D02*
X144085880Y-87753485D01*
X144085880Y-87753485D02*
X144129866Y-87817617D01*
X144129866Y-87817617D02*
X144142392Y-87835842D01*
X144142392Y-87835842D02*
X144187057Y-87901914D01*
X144187057Y-87901914D02*
X144226361Y-87962200D01*
X144226361Y-87962200D02*
X144258161Y-88013235D01*
X144258161Y-88013235D02*
X144280318Y-88051560D01*
X144280318Y-88051560D02*
X144290690Y-88073711D01*
X144290690Y-88073711D02*
X144291192Y-88076432D01*
X144291192Y-88076432D02*
X144282478Y-88090736D01*
X144282478Y-88090736D02*
X144258398Y-88119072D01*
X144258398Y-88119072D02*
X144222049Y-88158396D01*
X144222049Y-88158396D02*
X144176526Y-88205661D01*
X144176526Y-88205661D02*
X144124925Y-88257823D01*
X144124925Y-88257823D02*
X144070340Y-88311835D01*
X144070340Y-88311835D02*
X144015867Y-88364653D01*
X144015867Y-88364653D02*
X143964602Y-88413231D01*
X143964602Y-88413231D02*
X143919640Y-88454523D01*
X143919640Y-88454523D02*
X143884077Y-88485485D01*
X143884077Y-88485485D02*
X143861008Y-88503070D01*
X143861008Y-88503070D02*
X143854627Y-88505941D01*
X143854627Y-88505941D02*
X143839772Y-88499178D01*
X143839772Y-88499178D02*
X143809359Y-88480939D01*
X143809359Y-88480939D02*
X143768341Y-88454297D01*
X143768341Y-88454297D02*
X143736782Y-88432852D01*
X143736782Y-88432852D02*
X143679598Y-88393503D01*
X143679598Y-88393503D02*
X143611879Y-88347171D01*
X143611879Y-88347171D02*
X143543953Y-88300913D01*
X143543953Y-88300913D02*
X143507434Y-88276155D01*
X143507434Y-88276155D02*
X143383825Y-88192547D01*
X143383825Y-88192547D02*
X143280064Y-88248650D01*
X143280064Y-88248650D02*
X143232793Y-88273228D01*
X143232793Y-88273228D02*
X143192596Y-88292331D01*
X143192596Y-88292331D02*
X143165399Y-88303227D01*
X143165399Y-88303227D02*
X143158475Y-88304743D01*
X143158475Y-88304743D02*
X143150150Y-88293549D01*
X143150150Y-88293549D02*
X143133727Y-88261917D01*
X143133727Y-88261917D02*
X143110430Y-88212765D01*
X143110430Y-88212765D02*
X143081487Y-88149010D01*
X143081487Y-88149010D02*
X143048123Y-88073571D01*
X143048123Y-88073571D02*
X143011564Y-87989364D01*
X143011564Y-87989364D02*
X142973037Y-87899308D01*
X142973037Y-87899308D02*
X142933767Y-87806321D01*
X142933767Y-87806321D02*
X142894981Y-87713320D01*
X142894981Y-87713320D02*
X142857903Y-87623223D01*
X142857903Y-87623223D02*
X142823762Y-87538948D01*
X142823762Y-87538948D02*
X142793781Y-87463413D01*
X142793781Y-87463413D02*
X142769189Y-87399534D01*
X142769189Y-87399534D02*
X142751209Y-87350231D01*
X142751209Y-87350231D02*
X142741070Y-87318421D01*
X142741070Y-87318421D02*
X142739439Y-87307496D01*
X142739439Y-87307496D02*
X142752364Y-87293561D01*
X142752364Y-87293561D02*
X142780662Y-87270940D01*
X142780662Y-87270940D02*
X142818419Y-87244333D01*
X142818419Y-87244333D02*
X142821588Y-87242228D01*
X142821588Y-87242228D02*
X142919173Y-87164114D01*
X142919173Y-87164114D02*
X142997859Y-87072982D01*
X142997859Y-87072982D02*
X143056964Y-86971745D01*
X143056964Y-86971745D02*
X143095805Y-86863318D01*
X143095805Y-86863318D02*
X143113701Y-86750614D01*
X143113701Y-86750614D02*
X143109970Y-86636548D01*
X143109970Y-86636548D02*
X143083930Y-86524034D01*
X143083930Y-86524034D02*
X143034898Y-86415985D01*
X143034898Y-86415985D02*
X143020473Y-86392345D01*
X143020473Y-86392345D02*
X142945442Y-86296887D01*
X142945442Y-86296887D02*
X142856803Y-86220232D01*
X142856803Y-86220232D02*
X142757622Y-86162780D01*
X142757622Y-86162780D02*
X142650968Y-86124929D01*
X142650968Y-86124929D02*
X142539909Y-86107078D01*
X142539909Y-86107078D02*
X142427512Y-86109625D01*
X142427512Y-86109625D02*
X142316846Y-86132970D01*
X142316846Y-86132970D02*
X142210979Y-86177510D01*
X142210979Y-86177510D02*
X142112978Y-86243645D01*
X142112978Y-86243645D02*
X142082663Y-86270487D01*
X142082663Y-86270487D02*
X142005511Y-86354512D01*
X142005511Y-86354512D02*
X141949291Y-86442966D01*
X141949291Y-86442966D02*
X141910726Y-86542115D01*
X141910726Y-86542115D02*
X141889247Y-86640303D01*
X141889247Y-86640303D02*
X141883945Y-86750697D01*
X141883945Y-86750697D02*
X141901625Y-86861640D01*
X141901625Y-86861640D02*
X141940492Y-86969381D01*
X141940492Y-86969381D02*
X141998750Y-87070169D01*
X141998750Y-87070169D02*
X142074604Y-87160256D01*
X142074604Y-87160256D02*
X142166256Y-87235892D01*
X142166256Y-87235892D02*
X142178301Y-87243864D01*
X142178301Y-87243864D02*
X142216462Y-87269974D01*
X142216462Y-87269974D02*
X142245472Y-87292595D01*
X142245472Y-87292595D02*
X142259341Y-87307039D01*
X142259341Y-87307039D02*
X142259542Y-87307496D01*
X142259542Y-87307496D02*
X142256565Y-87323121D01*
X142256565Y-87323121D02*
X142244762Y-87358582D01*
X142244762Y-87358582D02*
X142225359Y-87410962D01*
X142225359Y-87410962D02*
X142199585Y-87477345D01*
X142199585Y-87477345D02*
X142168664Y-87554814D01*
X142168664Y-87554814D02*
X142133824Y-87640450D01*
X142133824Y-87640450D02*
X142096290Y-87731337D01*
X142096290Y-87731337D02*
X142057290Y-87824559D01*
X142057290Y-87824559D02*
X142018050Y-87917197D01*
X142018050Y-87917197D02*
X141979797Y-88006335D01*
X141979797Y-88006335D02*
X141943756Y-88089055D01*
X141943756Y-88089055D02*
X141911156Y-88162441D01*
X141911156Y-88162441D02*
X141883221Y-88223575D01*
X141883221Y-88223575D02*
X141861178Y-88269541D01*
X141861178Y-88269541D02*
X141846255Y-88297421D01*
X141846255Y-88297421D02*
X141840245Y-88304743D01*
X141840245Y-88304743D02*
X141821882Y-88299041D01*
X141821882Y-88299041D02*
X141787521Y-88283749D01*
X141787521Y-88283749D02*
X141743089Y-88261599D01*
X141743089Y-88261599D02*
X141718656Y-88248650D01*
X141718656Y-88248650D02*
X141614895Y-88192547D01*
X141614895Y-88192547D02*
X141491286Y-88276155D01*
X141491286Y-88276155D02*
X141428187Y-88318987D01*
X141428187Y-88318987D02*
X141359103Y-88366122D01*
X141359103Y-88366122D02*
X141294366Y-88410503D01*
X141294366Y-88410503D02*
X141261939Y-88432852D01*
X141261939Y-88432852D02*
X141216332Y-88463477D01*
X141216332Y-88463477D02*
X141177713Y-88487747D01*
X141177713Y-88487747D02*
X141151121Y-88502587D01*
X141151121Y-88502587D02*
X141142483Y-88505724D01*
X141142483Y-88505724D02*
X141129912Y-88497261D01*
X141129912Y-88497261D02*
X141102089Y-88473636D01*
X141102089Y-88473636D02*
X141061712Y-88437302D01*
X141061712Y-88437302D02*
X141011478Y-88390711D01*
X141011478Y-88390711D02*
X140954085Y-88336317D01*
X140954085Y-88336317D02*
X140917787Y-88301392D01*
X140917787Y-88301392D02*
X140854283Y-88238996D01*
X140854283Y-88238996D02*
X140799400Y-88183188D01*
X140799400Y-88183188D02*
X140755359Y-88136354D01*
X140755359Y-88136354D02*
X140724378Y-88100882D01*
X140724378Y-88100882D02*
X140708675Y-88079161D01*
X140708675Y-88079161D02*
X140707168Y-88074752D01*
X140707168Y-88074752D02*
X140714159Y-88057985D01*
X140714159Y-88057985D02*
X140733479Y-88024082D01*
X140733479Y-88024082D02*
X140762982Y-87976476D01*
X140762982Y-87976476D02*
X140800528Y-87918599D01*
X140800528Y-87918599D02*
X140843973Y-87853884D01*
X140843973Y-87853884D02*
X140856328Y-87835842D01*
X140856328Y-87835842D02*
X140901346Y-87770267D01*
X140901346Y-87770267D02*
X140941733Y-87711228D01*
X140941733Y-87711228D02*
X140975233Y-87662042D01*
X140975233Y-87662042D02*
X140999587Y-87626028D01*
X140999587Y-87626028D02*
X141012537Y-87606502D01*
X141012537Y-87606502D02*
X141013788Y-87604483D01*
X141013788Y-87604483D02*
X141011917Y-87588922D01*
X141011917Y-87588922D02*
X141001986Y-87554709D01*
X141001986Y-87554709D02*
X140985726Y-87506355D01*
X140985726Y-87506355D02*
X140964868Y-87448371D01*
X140964868Y-87448371D02*
X140941146Y-87385270D01*
X140941146Y-87385270D02*
X140916289Y-87321563D01*
X140916289Y-87321563D02*
X140892031Y-87261761D01*
X140892031Y-87261761D02*
X140870102Y-87210376D01*
X140870102Y-87210376D02*
X140852235Y-87171919D01*
X140852235Y-87171919D02*
X140840160Y-87150902D01*
X140840160Y-87150902D02*
X140839302Y-87149894D01*
X140839302Y-87149894D02*
X140831919Y-87143888D01*
X140831919Y-87143888D02*
X140819448Y-87137948D01*
X140819448Y-87137948D02*
X140799153Y-87131460D01*
X140799153Y-87131460D02*
X140768295Y-87123809D01*
X140768295Y-87123809D02*
X140724139Y-87114380D01*
X140724139Y-87114380D02*
X140663947Y-87102559D01*
X140663947Y-87102559D02*
X140584980Y-87087729D01*
X140584980Y-87087729D02*
X140484503Y-87069277D01*
X140484503Y-87069277D02*
X140462748Y-87065310D01*
X140462748Y-87065310D02*
X140398271Y-87052853D01*
X140398271Y-87052853D02*
X140342062Y-87040666D01*
X140342062Y-87040666D02*
X140299086Y-87029926D01*
X140299086Y-87029926D02*
X140274313Y-87021809D01*
X140274313Y-87021809D02*
X140270991Y-87019916D01*
X140270991Y-87019916D02*
X140265517Y-87003138D01*
X140265517Y-87003138D02*
X140261067Y-86965645D01*
X140261067Y-86965645D02*
X140257645Y-86911794D01*
X140257645Y-86911794D02*
X140255254Y-86845944D01*
X140255254Y-86845944D02*
X140253896Y-86772453D01*
X140253896Y-86772453D02*
X140253574Y-86695680D01*
X140253574Y-86695680D02*
X140254292Y-86619983D01*
X140254292Y-86619983D02*
X140256052Y-86549720D01*
X140256052Y-86549720D02*
X140258857Y-86489250D01*
X140258857Y-86489250D02*
X140262711Y-86442930D01*
X140262711Y-86442930D02*
X140267616Y-86415119D01*
X140267616Y-86415119D02*
X140270573Y-86409427D01*
X140270573Y-86409427D02*
X140287036Y-86403686D01*
X140287036Y-86403686D02*
X140324522Y-86394345D01*
X140324522Y-86394345D02*
X140379298Y-86382215D01*
X140379298Y-86382215D02*
X140447628Y-86368107D01*
X140447628Y-86368107D02*
X140525779Y-86352830D01*
X140525779Y-86352830D02*
X140568357Y-86344823D01*
X140568357Y-86344823D02*
X140649144Y-86329721D01*
X140649144Y-86329721D02*
X140721186Y-86316040D01*
X140721186Y-86316040D02*
X140780962Y-86304467D01*
X140780962Y-86304467D02*
X140824952Y-86295687D01*
X140824952Y-86295687D02*
X140849634Y-86290387D01*
X140849634Y-86290387D02*
X140853696Y-86289212D01*
X140853696Y-86289212D02*
X140860562Y-86275965D01*
X140860562Y-86275965D02*
X140875075Y-86244057D01*
X140875075Y-86244057D02*
X140895302Y-86198047D01*
X140895302Y-86198047D02*
X140919307Y-86142492D01*
X140919307Y-86142492D02*
X140945155Y-86081953D01*
X140945155Y-86081953D02*
X140970913Y-86020986D01*
X140970913Y-86020986D02*
X140994646Y-85964151D01*
X140994646Y-85964151D02*
X141014419Y-85916006D01*
X141014419Y-85916006D02*
X141028297Y-85881110D01*
X141028297Y-85881110D02*
X141034347Y-85864021D01*
X141034347Y-85864021D02*
X141034459Y-85863274D01*
X141034459Y-85863274D02*
X141027601Y-85849793D01*
X141027601Y-85849793D02*
X141008375Y-85818770D01*
X141008375Y-85818770D02*
X140978801Y-85773289D01*
X140978801Y-85773289D02*
X140940900Y-85716432D01*
X140940900Y-85716432D02*
X140896693Y-85651283D01*
X140896693Y-85651283D02*
X140870994Y-85613862D01*
X140870994Y-85613862D02*
X140824166Y-85545247D01*
X140824166Y-85545247D02*
X140782574Y-85482952D01*
X140782574Y-85482952D02*
X140748248Y-85430129D01*
X140748248Y-85430129D02*
X140723216Y-85389927D01*
X140723216Y-85389927D02*
X140709508Y-85365500D01*
X140709508Y-85365500D02*
X140707529Y-85360024D01*
X140707529Y-85360024D02*
X140716039Y-85347278D01*
X140716039Y-85347278D02*
X140739566Y-85320063D01*
X140739566Y-85320063D02*
X140775105Y-85281428D01*
X140775105Y-85281428D02*
X140819650Y-85234423D01*
X140819650Y-85234423D02*
X140870196Y-85182095D01*
X140870196Y-85182095D02*
X140923737Y-85127495D01*
X140923737Y-85127495D02*
X140977268Y-85073670D01*
X140977268Y-85073670D02*
X141027784Y-85023670D01*
X141027784Y-85023670D02*
X141072279Y-84980543D01*
X141072279Y-84980543D02*
X141107748Y-84947339D01*
X141107748Y-84947339D02*
X141131186Y-84927106D01*
X141131186Y-84927106D02*
X141139027Y-84922278D01*
X141139027Y-84922278D02*
X141151793Y-84929067D01*
X141151793Y-84929067D02*
X141182329Y-84948142D01*
X141182329Y-84948142D02*
X141227663Y-84977561D01*
X141227663Y-84977561D02*
X141284829Y-85015381D01*
X141284829Y-85015381D02*
X141350857Y-85059661D01*
X141350857Y-85059661D02*
X141400663Y-85093395D01*
X141400663Y-85093395D02*
X141652309Y-85264512D01*
X141652309Y-85264512D02*
X141862072Y-85178041D01*
X141862072Y-85178041D02*
X142071836Y-85091570D01*
X142071836Y-85091570D02*
X142128684Y-84790018D01*
X142128684Y-84790018D02*
X142185533Y-84488466D01*
X142185533Y-84488466D02*
X142813188Y-84488466D01*
X142813188Y-84488466D02*
X142870037Y-84790018D01*
X142870037Y-84790018D02*
X142870037Y-84790018D01*
G36*
X142870037Y-84790018D02*
G01*
X142926885Y-85091570D01*
X143346411Y-85264512D01*
X143598057Y-85093395D01*
X143668531Y-85045750D01*
X143732236Y-85003210D01*
X143786199Y-84967715D01*
X143827446Y-84941210D01*
X143853007Y-84925636D01*
X143859968Y-84922278D01*
X143872508Y-84930914D01*
X143899304Y-84954792D01*
X143937353Y-84990859D01*
X143983652Y-85036067D01*
X144035196Y-85087364D01*
X144088982Y-85141701D01*
X144142008Y-85196028D01*
X144191268Y-85247295D01*
X144233760Y-85292451D01*
X144266480Y-85328446D01*
X144286424Y-85352230D01*
X144291192Y-85360190D01*
X144284330Y-85374865D01*
X144265093Y-85407014D01*
X144235503Y-85453492D01*
X144197583Y-85511156D01*
X144153355Y-85576860D01*
X144127727Y-85614336D01*
X144081014Y-85682768D01*
X144039505Y-85744520D01*
X144005213Y-85796519D01*
X143980153Y-85835692D01*
X143966337Y-85858965D01*
X143964261Y-85863855D01*
X143968968Y-85877755D01*
X143981796Y-85910150D01*
X144000811Y-85956485D01*
X144024076Y-86012206D01*
X144049657Y-86072758D01*
X144075618Y-86133586D01*
X144100023Y-86190136D01*
X144120936Y-86237852D01*
X144136422Y-86272181D01*
X144144545Y-86288568D01*
X144145025Y-86289212D01*
X144157780Y-86292341D01*
X144191750Y-86299321D01*
X144243413Y-86309467D01*
X144309249Y-86322092D01*
X144385737Y-86336509D01*
X144430363Y-86344823D01*
X144512094Y-86360384D01*
X144585916Y-86375192D01*
X144648094Y-86388436D01*
X144694895Y-86399305D01*
X144722582Y-86406989D01*
X144728147Y-86409427D01*
X144733599Y-86425930D01*
X144737997Y-86463200D01*
X144741345Y-86516880D01*
X144743647Y-86582612D01*
X144744905Y-86656037D01*
X144745121Y-86732796D01*
X144744300Y-86808532D01*
X144742444Y-86878886D01*
X144739555Y-86939500D01*
X144735638Y-86986016D01*
X144730695Y-87014075D01*
X144727730Y-87019916D01*
X144710007Y-87026917D01*
X144672454Y-87036927D01*
X144620037Y-87048769D01*
X144557725Y-87061267D01*
X144535973Y-87065310D01*
X144431097Y-87084520D01*
X144348253Y-87099991D01*
X144284703Y-87112337D01*
X144237710Y-87122173D01*
X144204536Y-87130114D01*
X144182444Y-87136776D01*
X144168697Y-87142773D01*
X144160557Y-87148719D01*
X144159418Y-87149894D01*
X144148050Y-87168826D01*
X144130708Y-87205669D01*
X144109123Y-87255913D01*
X144085027Y-87315046D01*
X144060152Y-87378556D01*
X144036230Y-87441932D01*
X144014992Y-87500662D01*
X143998170Y-87550235D01*
X143987495Y-87586139D01*
X143984700Y-87603862D01*
X143984933Y-87604483D01*
X143994404Y-87618970D01*
X144015891Y-87650844D01*
X144047136Y-87696789D01*
X144085880Y-87753485D01*
X144129866Y-87817617D01*
X144142392Y-87835842D01*
X144187057Y-87901914D01*
X144226361Y-87962200D01*
X144258161Y-88013235D01*
X144280318Y-88051560D01*
X144290690Y-88073711D01*
X144291192Y-88076432D01*
X144282478Y-88090736D01*
X144258398Y-88119072D01*
X144222049Y-88158396D01*
X144176526Y-88205661D01*
X144124925Y-88257823D01*
X144070340Y-88311835D01*
X144015867Y-88364653D01*
X143964602Y-88413231D01*
X143919640Y-88454523D01*
X143884077Y-88485485D01*
X143861008Y-88503070D01*
X143854627Y-88505941D01*
X143839772Y-88499178D01*
X143809359Y-88480939D01*
X143768341Y-88454297D01*
X143736782Y-88432852D01*
X143679598Y-88393503D01*
X143611879Y-88347171D01*
X143543953Y-88300913D01*
X143507434Y-88276155D01*
X143383825Y-88192547D01*
X143280064Y-88248650D01*
X143232793Y-88273228D01*
X143192596Y-88292331D01*
X143165399Y-88303227D01*
X143158475Y-88304743D01*
X143150150Y-88293549D01*
X143133727Y-88261917D01*
X143110430Y-88212765D01*
X143081487Y-88149010D01*
X143048123Y-88073571D01*
X143011564Y-87989364D01*
X142973037Y-87899308D01*
X142933767Y-87806321D01*
X142894981Y-87713320D01*
X142857903Y-87623223D01*
X142823762Y-87538948D01*
X142793781Y-87463413D01*
X142769189Y-87399534D01*
X142751209Y-87350231D01*
X142741070Y-87318421D01*
X142739439Y-87307496D01*
X142752364Y-87293561D01*
X142780662Y-87270940D01*
X142818419Y-87244333D01*
X142821588Y-87242228D01*
X142919173Y-87164114D01*
X142997859Y-87072982D01*
X143056964Y-86971745D01*
X143095805Y-86863318D01*
X143113701Y-86750614D01*
X143109970Y-86636548D01*
X143083930Y-86524034D01*
X143034898Y-86415985D01*
X143020473Y-86392345D01*
X142945442Y-86296887D01*
X142856803Y-86220232D01*
X142757622Y-86162780D01*
X142650968Y-86124929D01*
X142539909Y-86107078D01*
X142427512Y-86109625D01*
X142316846Y-86132970D01*
X142210979Y-86177510D01*
X142112978Y-86243645D01*
X142082663Y-86270487D01*
X142005511Y-86354512D01*
X141949291Y-86442966D01*
X141910726Y-86542115D01*
X141889247Y-86640303D01*
X141883945Y-86750697D01*
X141901625Y-86861640D01*
X141940492Y-86969381D01*
X141998750Y-87070169D01*
X142074604Y-87160256D01*
X142166256Y-87235892D01*
X142178301Y-87243864D01*
X142216462Y-87269974D01*
X142245472Y-87292595D01*
X142259341Y-87307039D01*
X142259542Y-87307496D01*
X142256565Y-87323121D01*
X142244762Y-87358582D01*
X142225359Y-87410962D01*
X142199585Y-87477345D01*
X142168664Y-87554814D01*
X142133824Y-87640450D01*
X142096290Y-87731337D01*
X142057290Y-87824559D01*
X142018050Y-87917197D01*
X141979797Y-88006335D01*
X141943756Y-88089055D01*
X141911156Y-88162441D01*
X141883221Y-88223575D01*
X141861178Y-88269541D01*
X141846255Y-88297421D01*
X141840245Y-88304743D01*
X141821882Y-88299041D01*
X141787521Y-88283749D01*
X141743089Y-88261599D01*
X141718656Y-88248650D01*
X141614895Y-88192547D01*
X141491286Y-88276155D01*
X141428187Y-88318987D01*
X141359103Y-88366122D01*
X141294366Y-88410503D01*
X141261939Y-88432852D01*
X141216332Y-88463477D01*
X141177713Y-88487747D01*
X141151121Y-88502587D01*
X141142483Y-88505724D01*
X141129912Y-88497261D01*
X141102089Y-88473636D01*
X141061712Y-88437302D01*
X141011478Y-88390711D01*
X140954085Y-88336317D01*
X140917787Y-88301392D01*
X140854283Y-88238996D01*
X140799400Y-88183188D01*
X140755359Y-88136354D01*
X140724378Y-88100882D01*
X140708675Y-88079161D01*
X140707168Y-88074752D01*
X140714159Y-88057985D01*
X140733479Y-88024082D01*
X140762982Y-87976476D01*
X140800528Y-87918599D01*
X140843973Y-87853884D01*
X140856328Y-87835842D01*
X140901346Y-87770267D01*
X140941733Y-87711228D01*
X140975233Y-87662042D01*
X140999587Y-87626028D01*
X141012537Y-87606502D01*
X141013788Y-87604483D01*
X141011917Y-87588922D01*
X141001986Y-87554709D01*
X140985726Y-87506355D01*
X140964868Y-87448371D01*
X140941146Y-87385270D01*
X140916289Y-87321563D01*
X140892031Y-87261761D01*
X140870102Y-87210376D01*
X140852235Y-87171919D01*
X140840160Y-87150902D01*
X140839302Y-87149894D01*
X140831919Y-87143888D01*
X140819448Y-87137948D01*
X140799153Y-87131460D01*
X140768295Y-87123809D01*
X140724139Y-87114380D01*
X140663947Y-87102559D01*
X140584980Y-87087729D01*
X140484503Y-87069277D01*
X140462748Y-87065310D01*
X140398271Y-87052853D01*
X140342062Y-87040666D01*
X140299086Y-87029926D01*
X140274313Y-87021809D01*
X140270991Y-87019916D01*
X140265517Y-87003138D01*
X140261067Y-86965645D01*
X140257645Y-86911794D01*
X140255254Y-86845944D01*
X140253896Y-86772453D01*
X140253574Y-86695680D01*
X140254292Y-86619983D01*
X140256052Y-86549720D01*
X140258857Y-86489250D01*
X140262711Y-86442930D01*
X140267616Y-86415119D01*
X140270573Y-86409427D01*
X140287036Y-86403686D01*
X140324522Y-86394345D01*
X140379298Y-86382215D01*
X140447628Y-86368107D01*
X140525779Y-86352830D01*
X140568357Y-86344823D01*
X140649144Y-86329721D01*
X140721186Y-86316040D01*
X140780962Y-86304467D01*
X140824952Y-86295687D01*
X140849634Y-86290387D01*
X140853696Y-86289212D01*
X140860562Y-86275965D01*
X140875075Y-86244057D01*
X140895302Y-86198047D01*
X140919307Y-86142492D01*
X140945155Y-86081953D01*
X140970913Y-86020986D01*
X140994646Y-85964151D01*
X141014419Y-85916006D01*
X141028297Y-85881110D01*
X141034347Y-85864021D01*
X141034459Y-85863274D01*
X141027601Y-85849793D01*
X141008375Y-85818770D01*
X140978801Y-85773289D01*
X140940900Y-85716432D01*
X140896693Y-85651283D01*
X140870994Y-85613862D01*
X140824166Y-85545247D01*
X140782574Y-85482952D01*
X140748248Y-85430129D01*
X140723216Y-85389927D01*
X140709508Y-85365500D01*
X140707529Y-85360024D01*
X140716039Y-85347278D01*
X140739566Y-85320063D01*
X140775105Y-85281428D01*
X140819650Y-85234423D01*
X140870196Y-85182095D01*
X140923737Y-85127495D01*
X140977268Y-85073670D01*
X141027784Y-85023670D01*
X141072279Y-84980543D01*
X141107748Y-84947339D01*
X141131186Y-84927106D01*
X141139027Y-84922278D01*
X141151793Y-84929067D01*
X141182329Y-84948142D01*
X141227663Y-84977561D01*
X141284829Y-85015381D01*
X141350857Y-85059661D01*
X141400663Y-85093395D01*
X141652309Y-85264512D01*
X141862072Y-85178041D01*
X142071836Y-85091570D01*
X142128684Y-84790018D01*
X142185533Y-84488466D01*
X142813188Y-84488466D01*
X142870037Y-84790018D01*
G37*
X142870037Y-84790018D02*
X142926885Y-85091570D01*
X143346411Y-85264512D01*
X143598057Y-85093395D01*
X143668531Y-85045750D01*
X143732236Y-85003210D01*
X143786199Y-84967715D01*
X143827446Y-84941210D01*
X143853007Y-84925636D01*
X143859968Y-84922278D01*
X143872508Y-84930914D01*
X143899304Y-84954792D01*
X143937353Y-84990859D01*
X143983652Y-85036067D01*
X144035196Y-85087364D01*
X144088982Y-85141701D01*
X144142008Y-85196028D01*
X144191268Y-85247295D01*
X144233760Y-85292451D01*
X144266480Y-85328446D01*
X144286424Y-85352230D01*
X144291192Y-85360190D01*
X144284330Y-85374865D01*
X144265093Y-85407014D01*
X144235503Y-85453492D01*
X144197583Y-85511156D01*
X144153355Y-85576860D01*
X144127727Y-85614336D01*
X144081014Y-85682768D01*
X144039505Y-85744520D01*
X144005213Y-85796519D01*
X143980153Y-85835692D01*
X143966337Y-85858965D01*
X143964261Y-85863855D01*
X143968968Y-85877755D01*
X143981796Y-85910150D01*
X144000811Y-85956485D01*
X144024076Y-86012206D01*
X144049657Y-86072758D01*
X144075618Y-86133586D01*
X144100023Y-86190136D01*
X144120936Y-86237852D01*
X144136422Y-86272181D01*
X144144545Y-86288568D01*
X144145025Y-86289212D01*
X144157780Y-86292341D01*
X144191750Y-86299321D01*
X144243413Y-86309467D01*
X144309249Y-86322092D01*
X144385737Y-86336509D01*
X144430363Y-86344823D01*
X144512094Y-86360384D01*
X144585916Y-86375192D01*
X144648094Y-86388436D01*
X144694895Y-86399305D01*
X144722582Y-86406989D01*
X144728147Y-86409427D01*
X144733599Y-86425930D01*
X144737997Y-86463200D01*
X144741345Y-86516880D01*
X144743647Y-86582612D01*
X144744905Y-86656037D01*
X144745121Y-86732796D01*
X144744300Y-86808532D01*
X144742444Y-86878886D01*
X144739555Y-86939500D01*
X144735638Y-86986016D01*
X144730695Y-87014075D01*
X144727730Y-87019916D01*
X144710007Y-87026917D01*
X144672454Y-87036927D01*
X144620037Y-87048769D01*
X144557725Y-87061267D01*
X144535973Y-87065310D01*
X144431097Y-87084520D01*
X144348253Y-87099991D01*
X144284703Y-87112337D01*
X144237710Y-87122173D01*
X144204536Y-87130114D01*
X144182444Y-87136776D01*
X144168697Y-87142773D01*
X144160557Y-87148719D01*
X144159418Y-87149894D01*
X144148050Y-87168826D01*
X144130708Y-87205669D01*
X144109123Y-87255913D01*
X144085027Y-87315046D01*
X144060152Y-87378556D01*
X144036230Y-87441932D01*
X144014992Y-87500662D01*
X143998170Y-87550235D01*
X143987495Y-87586139D01*
X143984700Y-87603862D01*
X143984933Y-87604483D01*
X143994404Y-87618970D01*
X144015891Y-87650844D01*
X144047136Y-87696789D01*
X144085880Y-87753485D01*
X144129866Y-87817617D01*
X144142392Y-87835842D01*
X144187057Y-87901914D01*
X144226361Y-87962200D01*
X144258161Y-88013235D01*
X144280318Y-88051560D01*
X144290690Y-88073711D01*
X144291192Y-88076432D01*
X144282478Y-88090736D01*
X144258398Y-88119072D01*
X144222049Y-88158396D01*
X144176526Y-88205661D01*
X144124925Y-88257823D01*
X144070340Y-88311835D01*
X144015867Y-88364653D01*
X143964602Y-88413231D01*
X143919640Y-88454523D01*
X143884077Y-88485485D01*
X143861008Y-88503070D01*
X143854627Y-88505941D01*
X143839772Y-88499178D01*
X143809359Y-88480939D01*
X143768341Y-88454297D01*
X143736782Y-88432852D01*
X143679598Y-88393503D01*
X143611879Y-88347171D01*
X143543953Y-88300913D01*
X143507434Y-88276155D01*
X143383825Y-88192547D01*
X143280064Y-88248650D01*
X143232793Y-88273228D01*
X143192596Y-88292331D01*
X143165399Y-88303227D01*
X143158475Y-88304743D01*
X143150150Y-88293549D01*
X143133727Y-88261917D01*
X143110430Y-88212765D01*
X143081487Y-88149010D01*
X143048123Y-88073571D01*
X143011564Y-87989364D01*
X142973037Y-87899308D01*
X142933767Y-87806321D01*
X142894981Y-87713320D01*
X142857903Y-87623223D01*
X142823762Y-87538948D01*
X142793781Y-87463413D01*
X142769189Y-87399534D01*
X142751209Y-87350231D01*
X142741070Y-87318421D01*
X142739439Y-87307496D01*
X142752364Y-87293561D01*
X142780662Y-87270940D01*
X142818419Y-87244333D01*
X142821588Y-87242228D01*
X142919173Y-87164114D01*
X142997859Y-87072982D01*
X143056964Y-86971745D01*
X143095805Y-86863318D01*
X143113701Y-86750614D01*
X143109970Y-86636548D01*
X143083930Y-86524034D01*
X143034898Y-86415985D01*
X143020473Y-86392345D01*
X142945442Y-86296887D01*
X142856803Y-86220232D01*
X142757622Y-86162780D01*
X142650968Y-86124929D01*
X142539909Y-86107078D01*
X142427512Y-86109625D01*
X142316846Y-86132970D01*
X142210979Y-86177510D01*
X142112978Y-86243645D01*
X142082663Y-86270487D01*
X142005511Y-86354512D01*
X141949291Y-86442966D01*
X141910726Y-86542115D01*
X141889247Y-86640303D01*
X141883945Y-86750697D01*
X141901625Y-86861640D01*
X141940492Y-86969381D01*
X141998750Y-87070169D01*
X142074604Y-87160256D01*
X142166256Y-87235892D01*
X142178301Y-87243864D01*
X142216462Y-87269974D01*
X142245472Y-87292595D01*
X142259341Y-87307039D01*
X142259542Y-87307496D01*
X142256565Y-87323121D01*
X142244762Y-87358582D01*
X142225359Y-87410962D01*
X142199585Y-87477345D01*
X142168664Y-87554814D01*
X142133824Y-87640450D01*
X142096290Y-87731337D01*
X142057290Y-87824559D01*
X142018050Y-87917197D01*
X141979797Y-88006335D01*
X141943756Y-88089055D01*
X141911156Y-88162441D01*
X141883221Y-88223575D01*
X141861178Y-88269541D01*
X141846255Y-88297421D01*
X141840245Y-88304743D01*
X141821882Y-88299041D01*
X141787521Y-88283749D01*
X141743089Y-88261599D01*
X141718656Y-88248650D01*
X141614895Y-88192547D01*
X141491286Y-88276155D01*
X141428187Y-88318987D01*
X141359103Y-88366122D01*
X141294366Y-88410503D01*
X141261939Y-88432852D01*
X141216332Y-88463477D01*
X141177713Y-88487747D01*
X141151121Y-88502587D01*
X141142483Y-88505724D01*
X141129912Y-88497261D01*
X141102089Y-88473636D01*
X141061712Y-88437302D01*
X141011478Y-88390711D01*
X140954085Y-88336317D01*
X140917787Y-88301392D01*
X140854283Y-88238996D01*
X140799400Y-88183188D01*
X140755359Y-88136354D01*
X140724378Y-88100882D01*
X140708675Y-88079161D01*
X140707168Y-88074752D01*
X140714159Y-88057985D01*
X140733479Y-88024082D01*
X140762982Y-87976476D01*
X140800528Y-87918599D01*
X140843973Y-87853884D01*
X140856328Y-87835842D01*
X140901346Y-87770267D01*
X140941733Y-87711228D01*
X140975233Y-87662042D01*
X140999587Y-87626028D01*
X141012537Y-87606502D01*
X141013788Y-87604483D01*
X141011917Y-87588922D01*
X141001986Y-87554709D01*
X140985726Y-87506355D01*
X140964868Y-87448371D01*
X140941146Y-87385270D01*
X140916289Y-87321563D01*
X140892031Y-87261761D01*
X140870102Y-87210376D01*
X140852235Y-87171919D01*
X140840160Y-87150902D01*
X140839302Y-87149894D01*
X140831919Y-87143888D01*
X140819448Y-87137948D01*
X140799153Y-87131460D01*
X140768295Y-87123809D01*
X140724139Y-87114380D01*
X140663947Y-87102559D01*
X140584980Y-87087729D01*
X140484503Y-87069277D01*
X140462748Y-87065310D01*
X140398271Y-87052853D01*
X140342062Y-87040666D01*
X140299086Y-87029926D01*
X140274313Y-87021809D01*
X140270991Y-87019916D01*
X140265517Y-87003138D01*
X140261067Y-86965645D01*
X140257645Y-86911794D01*
X140255254Y-86845944D01*
X140253896Y-86772453D01*
X140253574Y-86695680D01*
X140254292Y-86619983D01*
X140256052Y-86549720D01*
X140258857Y-86489250D01*
X140262711Y-86442930D01*
X140267616Y-86415119D01*
X140270573Y-86409427D01*
X140287036Y-86403686D01*
X140324522Y-86394345D01*
X140379298Y-86382215D01*
X140447628Y-86368107D01*
X140525779Y-86352830D01*
X140568357Y-86344823D01*
X140649144Y-86329721D01*
X140721186Y-86316040D01*
X140780962Y-86304467D01*
X140824952Y-86295687D01*
X140849634Y-86290387D01*
X140853696Y-86289212D01*
X140860562Y-86275965D01*
X140875075Y-86244057D01*
X140895302Y-86198047D01*
X140919307Y-86142492D01*
X140945155Y-86081953D01*
X140970913Y-86020986D01*
X140994646Y-85964151D01*
X141014419Y-85916006D01*
X141028297Y-85881110D01*
X141034347Y-85864021D01*
X141034459Y-85863274D01*
X141027601Y-85849793D01*
X141008375Y-85818770D01*
X140978801Y-85773289D01*
X140940900Y-85716432D01*
X140896693Y-85651283D01*
X140870994Y-85613862D01*
X140824166Y-85545247D01*
X140782574Y-85482952D01*
X140748248Y-85430129D01*
X140723216Y-85389927D01*
X140709508Y-85365500D01*
X140707529Y-85360024D01*
X140716039Y-85347278D01*
X140739566Y-85320063D01*
X140775105Y-85281428D01*
X140819650Y-85234423D01*
X140870196Y-85182095D01*
X140923737Y-85127495D01*
X140977268Y-85073670D01*
X141027784Y-85023670D01*
X141072279Y-84980543D01*
X141107748Y-84947339D01*
X141131186Y-84927106D01*
X141139027Y-84922278D01*
X141151793Y-84929067D01*
X141182329Y-84948142D01*
X141227663Y-84977561D01*
X141284829Y-85015381D01*
X141350857Y-85059661D01*
X141400663Y-85093395D01*
X141652309Y-85264512D01*
X141862072Y-85178041D01*
X142071836Y-85091570D01*
X142128684Y-84790018D01*
X142185533Y-84488466D01*
X142813188Y-84488466D01*
X142870037Y-84790018D01*
X144525654Y-89904970D02*
X144585758Y-89920597D01*
X144585758Y-89920597D02*
X144636094Y-89952848D01*
X144636094Y-89952848D02*
X144660466Y-89976940D01*
X144660466Y-89976940D02*
X144700418Y-90033895D01*
X144700418Y-90033895D02*
X144723315Y-90099965D01*
X144723315Y-90099965D02*
X144731181Y-90181182D01*
X144731181Y-90181182D02*
X144731221Y-90187748D01*
X144731221Y-90187748D02*
X144731291Y-90253763D01*
X144731291Y-90253763D02*
X144351337Y-90253763D01*
X144351337Y-90253763D02*
X144359436Y-90288342D01*
X144359436Y-90288342D02*
X144374060Y-90319659D01*
X144374060Y-90319659D02*
X144399654Y-90352291D01*
X144399654Y-90352291D02*
X144405008Y-90357500D01*
X144405008Y-90357500D02*
X144451016Y-90385694D01*
X144451016Y-90385694D02*
X144503483Y-90390475D01*
X144503483Y-90390475D02*
X144563876Y-90371926D01*
X144563876Y-90371926D02*
X144574113Y-90366931D01*
X144574113Y-90366931D02*
X144605512Y-90351745D01*
X144605512Y-90351745D02*
X144626543Y-90343094D01*
X144626543Y-90343094D02*
X144630212Y-90342293D01*
X144630212Y-90342293D02*
X144643021Y-90350063D01*
X144643021Y-90350063D02*
X144667451Y-90369072D01*
X144667451Y-90369072D02*
X144679852Y-90379460D01*
X144679852Y-90379460D02*
X144705549Y-90403321D01*
X144705549Y-90403321D02*
X144713988Y-90419077D01*
X144713988Y-90419077D02*
X144708131Y-90433571D01*
X144708131Y-90433571D02*
X144705001Y-90437534D01*
X144705001Y-90437534D02*
X144683798Y-90454879D01*
X144683798Y-90454879D02*
X144648811Y-90475959D01*
X144648811Y-90475959D02*
X144624410Y-90488265D01*
X144624410Y-90488265D02*
X144555145Y-90509946D01*
X144555145Y-90509946D02*
X144478461Y-90516971D01*
X144478461Y-90516971D02*
X144405838Y-90508647D01*
X144405838Y-90508647D02*
X144385499Y-90502686D01*
X144385499Y-90502686D02*
X144322549Y-90468952D01*
X144322549Y-90468952D02*
X144275888Y-90417045D01*
X144275888Y-90417045D02*
X144245246Y-90346459D01*
X144245246Y-90346459D02*
X144230355Y-90256692D01*
X144230355Y-90256692D02*
X144228720Y-90209753D01*
X144228720Y-90209753D02*
X144233494Y-90141413D01*
X144233494Y-90141413D02*
X144354063Y-90141413D01*
X144354063Y-90141413D02*
X144365725Y-90146465D01*
X144365725Y-90146465D02*
X144397071Y-90150429D01*
X144397071Y-90150429D02*
X144442644Y-90152768D01*
X144442644Y-90152768D02*
X144473519Y-90153169D01*
X144473519Y-90153169D02*
X144529054Y-90152783D01*
X144529054Y-90152783D02*
X144564106Y-90150975D01*
X144564106Y-90150975D02*
X144583335Y-90146773D01*
X144583335Y-90146773D02*
X144591403Y-90139203D01*
X144591403Y-90139203D02*
X144592974Y-90128218D01*
X144592974Y-90128218D02*
X144582194Y-90094381D01*
X144582194Y-90094381D02*
X144555053Y-90060940D01*
X144555053Y-90060940D02*
X144519350Y-90035272D01*
X144519350Y-90035272D02*
X144483633Y-90024772D01*
X144483633Y-90024772D02*
X144435121Y-90034086D01*
X144435121Y-90034086D02*
X144393126Y-90061013D01*
X144393126Y-90061013D02*
X144364009Y-90099827D01*
X144364009Y-90099827D02*
X144354063Y-90141413D01*
X144354063Y-90141413D02*
X144233494Y-90141413D01*
X144233494Y-90141413D02*
X144235672Y-90110236D01*
X144235672Y-90110236D02*
X144257128Y-90030949D01*
X144257128Y-90030949D02*
X144293543Y-89971263D01*
X144293543Y-89971263D02*
X144345370Y-89930549D01*
X144345370Y-89930549D02*
X144413063Y-89908179D01*
X144413063Y-89908179D02*
X144449735Y-89903871D01*
X144449735Y-89903871D02*
X144525654Y-89904970D01*
X144525654Y-89904970D02*
X144525654Y-89904970D01*
G36*
X144257128Y-90030949D02*
G01*
X144293543Y-89971263D01*
X144345370Y-89930549D01*
X144413063Y-89908179D01*
X144449735Y-89903871D01*
X144525654Y-89904970D01*
X144585758Y-89920597D01*
X144636094Y-89952848D01*
X144660466Y-89976940D01*
X144700418Y-90033895D01*
X144723315Y-90099965D01*
X144731181Y-90181182D01*
X144731221Y-90187748D01*
X144731291Y-90253763D01*
X144351337Y-90253763D01*
X144359436Y-90288342D01*
X144374060Y-90319659D01*
X144399654Y-90352291D01*
X144405008Y-90357500D01*
X144451016Y-90385694D01*
X144503483Y-90390475D01*
X144563876Y-90371926D01*
X144574113Y-90366931D01*
X144605512Y-90351745D01*
X144626543Y-90343094D01*
X144630212Y-90342293D01*
X144643021Y-90350063D01*
X144667451Y-90369072D01*
X144679852Y-90379460D01*
X144705549Y-90403321D01*
X144713988Y-90419077D01*
X144708131Y-90433571D01*
X144705001Y-90437534D01*
X144683798Y-90454879D01*
X144648811Y-90475959D01*
X144624410Y-90488265D01*
X144555145Y-90509946D01*
X144478461Y-90516971D01*
X144405838Y-90508647D01*
X144385499Y-90502686D01*
X144322549Y-90468952D01*
X144275888Y-90417045D01*
X144245246Y-90346459D01*
X144230355Y-90256692D01*
X144228720Y-90209753D01*
X144233494Y-90141413D01*
X144354063Y-90141413D01*
X144365725Y-90146465D01*
X144397071Y-90150429D01*
X144442644Y-90152768D01*
X144473519Y-90153169D01*
X144529054Y-90152783D01*
X144564106Y-90150975D01*
X144583335Y-90146773D01*
X144591403Y-90139203D01*
X144592974Y-90128218D01*
X144582194Y-90094381D01*
X144555053Y-90060940D01*
X144519350Y-90035272D01*
X144483633Y-90024772D01*
X144435121Y-90034086D01*
X144393126Y-90061013D01*
X144364009Y-90099827D01*
X144354063Y-90141413D01*
X144233494Y-90141413D01*
X144235672Y-90110236D01*
X144257128Y-90030949D01*
G37*
X144257128Y-90030949D02*
X144293543Y-89971263D01*
X144345370Y-89930549D01*
X144413063Y-89908179D01*
X144449735Y-89903871D01*
X144525654Y-89904970D01*
X144585758Y-89920597D01*
X144636094Y-89952848D01*
X144660466Y-89976940D01*
X144700418Y-90033895D01*
X144723315Y-90099965D01*
X144731181Y-90181182D01*
X144731221Y-90187748D01*
X144731291Y-90253763D01*
X144351337Y-90253763D01*
X144359436Y-90288342D01*
X144374060Y-90319659D01*
X144399654Y-90352291D01*
X144405008Y-90357500D01*
X144451016Y-90385694D01*
X144503483Y-90390475D01*
X144563876Y-90371926D01*
X144574113Y-90366931D01*
X144605512Y-90351745D01*
X144626543Y-90343094D01*
X144630212Y-90342293D01*
X144643021Y-90350063D01*
X144667451Y-90369072D01*
X144679852Y-90379460D01*
X144705549Y-90403321D01*
X144713988Y-90419077D01*
X144708131Y-90433571D01*
X144705001Y-90437534D01*
X144683798Y-90454879D01*
X144648811Y-90475959D01*
X144624410Y-90488265D01*
X144555145Y-90509946D01*
X144478461Y-90516971D01*
X144405838Y-90508647D01*
X144385499Y-90502686D01*
X144322549Y-90468952D01*
X144275888Y-90417045D01*
X144245246Y-90346459D01*
X144230355Y-90256692D01*
X144228720Y-90209753D01*
X144233494Y-90141413D01*
X144354063Y-90141413D01*
X144365725Y-90146465D01*
X144397071Y-90150429D01*
X144442644Y-90152768D01*
X144473519Y-90153169D01*
X144529054Y-90152783D01*
X144564106Y-90150975D01*
X144583335Y-90146773D01*
X144591403Y-90139203D01*
X144592974Y-90128218D01*
X144582194Y-90094381D01*
X144555053Y-90060940D01*
X144519350Y-90035272D01*
X144483633Y-90024772D01*
X144435121Y-90034086D01*
X144393126Y-90061013D01*
X144364009Y-90099827D01*
X144354063Y-90141413D01*
X144233494Y-90141413D01*
X144235672Y-90110236D01*
X144257128Y-90030949D01*
X143103835Y-88966055D02*
X143167436Y-89000692D01*
X143167436Y-89000692D02*
X143217196Y-89055372D01*
X143217196Y-89055372D02*
X143240641Y-89099842D01*
X143240641Y-89099842D02*
X143250707Y-89139121D01*
X143250707Y-89139121D02*
X143257229Y-89195116D01*
X143257229Y-89195116D02*
X143260024Y-89259621D01*
X143260024Y-89259621D02*
X143258909Y-89324429D01*
X143258909Y-89324429D02*
X143253699Y-89381334D01*
X143253699Y-89381334D02*
X143247614Y-89411727D01*
X143247614Y-89411727D02*
X143227087Y-89453306D01*
X143227087Y-89453306D02*
X143191536Y-89497468D01*
X143191536Y-89497468D02*
X143148692Y-89536087D01*
X143148692Y-89536087D02*
X143106284Y-89561034D01*
X143106284Y-89561034D02*
X143105250Y-89561430D01*
X143105250Y-89561430D02*
X143052626Y-89572331D01*
X143052626Y-89572331D02*
X142990261Y-89572601D01*
X142990261Y-89572601D02*
X142930997Y-89562676D01*
X142930997Y-89562676D02*
X142908113Y-89554722D01*
X142908113Y-89554722D02*
X142849175Y-89521300D01*
X142849175Y-89521300D02*
X142806963Y-89477511D01*
X142806963Y-89477511D02*
X142779229Y-89419538D01*
X142779229Y-89419538D02*
X142763724Y-89343565D01*
X142763724Y-89343565D02*
X142760216Y-89303771D01*
X142760216Y-89303771D02*
X142760663Y-89253766D01*
X142760663Y-89253766D02*
X142895449Y-89253766D01*
X142895449Y-89253766D02*
X142899990Y-89326732D01*
X142899990Y-89326732D02*
X142913059Y-89382334D01*
X142913059Y-89382334D02*
X142933829Y-89417861D01*
X142933829Y-89417861D02*
X142948625Y-89428020D01*
X142948625Y-89428020D02*
X142986537Y-89435104D01*
X142986537Y-89435104D02*
X143031600Y-89433007D01*
X143031600Y-89433007D02*
X143070560Y-89422812D01*
X143070560Y-89422812D02*
X143080777Y-89417204D01*
X143080777Y-89417204D02*
X143107732Y-89384538D01*
X143107732Y-89384538D02*
X143125524Y-89334545D01*
X143125524Y-89334545D02*
X143133097Y-89273705D01*
X143133097Y-89273705D02*
X143129398Y-89208497D01*
X143129398Y-89208497D02*
X143121130Y-89169253D01*
X143121130Y-89169253D02*
X143097393Y-89123805D01*
X143097393Y-89123805D02*
X143059922Y-89095396D01*
X143059922Y-89095396D02*
X143014793Y-89085573D01*
X143014793Y-89085573D02*
X142968084Y-89095887D01*
X142968084Y-89095887D02*
X142932205Y-89121112D01*
X142932205Y-89121112D02*
X142913350Y-89141925D01*
X142913350Y-89141925D02*
X142902345Y-89162439D01*
X142902345Y-89162439D02*
X142897099Y-89190203D01*
X142897099Y-89190203D02*
X142895522Y-89232762D01*
X142895522Y-89232762D02*
X142895449Y-89253766D01*
X142895449Y-89253766D02*
X142760663Y-89253766D01*
X142760663Y-89253766D02*
X142761167Y-89197580D01*
X142761167Y-89197580D02*
X142778461Y-89110501D01*
X142778461Y-89110501D02*
X142812102Y-89042530D01*
X142812102Y-89042530D02*
X142862091Y-88993664D01*
X142862091Y-88993664D02*
X142928429Y-88963899D01*
X142928429Y-88963899D02*
X142942674Y-88960448D01*
X142942674Y-88960448D02*
X143028283Y-88952345D01*
X143028283Y-88952345D02*
X143103835Y-88966055D01*
X143103835Y-88966055D02*
X143103835Y-88966055D01*
G36*
X142778461Y-89110501D02*
G01*
X142812102Y-89042530D01*
X142862091Y-88993664D01*
X142928429Y-88963899D01*
X142942674Y-88960448D01*
X143028283Y-88952345D01*
X143103835Y-88966055D01*
X143167436Y-89000692D01*
X143217196Y-89055372D01*
X143240641Y-89099842D01*
X143250707Y-89139121D01*
X143257229Y-89195116D01*
X143260024Y-89259621D01*
X143258909Y-89324429D01*
X143253699Y-89381334D01*
X143247614Y-89411727D01*
X143227087Y-89453306D01*
X143191536Y-89497468D01*
X143148692Y-89536087D01*
X143106284Y-89561034D01*
X143105250Y-89561430D01*
X143052626Y-89572331D01*
X142990261Y-89572601D01*
X142930997Y-89562676D01*
X142908113Y-89554722D01*
X142849175Y-89521300D01*
X142806963Y-89477511D01*
X142779229Y-89419538D01*
X142763724Y-89343565D01*
X142760216Y-89303771D01*
X142760663Y-89253766D01*
X142895449Y-89253766D01*
X142899990Y-89326732D01*
X142913059Y-89382334D01*
X142933829Y-89417861D01*
X142948625Y-89428020D01*
X142986537Y-89435104D01*
X143031600Y-89433007D01*
X143070560Y-89422812D01*
X143080777Y-89417204D01*
X143107732Y-89384538D01*
X143125524Y-89334545D01*
X143133097Y-89273705D01*
X143129398Y-89208497D01*
X143121130Y-89169253D01*
X143097393Y-89123805D01*
X143059922Y-89095396D01*
X143014793Y-89085573D01*
X142968084Y-89095887D01*
X142932205Y-89121112D01*
X142913350Y-89141925D01*
X142902345Y-89162439D01*
X142897099Y-89190203D01*
X142895522Y-89232762D01*
X142895449Y-89253766D01*
X142760663Y-89253766D01*
X142761167Y-89197580D01*
X142778461Y-89110501D01*
G37*
X142778461Y-89110501D02*
X142812102Y-89042530D01*
X142862091Y-88993664D01*
X142928429Y-88963899D01*
X142942674Y-88960448D01*
X143028283Y-88952345D01*
X143103835Y-88966055D01*
X143167436Y-89000692D01*
X143217196Y-89055372D01*
X143240641Y-89099842D01*
X143250707Y-89139121D01*
X143257229Y-89195116D01*
X143260024Y-89259621D01*
X143258909Y-89324429D01*
X143253699Y-89381334D01*
X143247614Y-89411727D01*
X143227087Y-89453306D01*
X143191536Y-89497468D01*
X143148692Y-89536087D01*
X143106284Y-89561034D01*
X143105250Y-89561430D01*
X143052626Y-89572331D01*
X142990261Y-89572601D01*
X142930997Y-89562676D01*
X142908113Y-89554722D01*
X142849175Y-89521300D01*
X142806963Y-89477511D01*
X142779229Y-89419538D01*
X142763724Y-89343565D01*
X142760216Y-89303771D01*
X142760663Y-89253766D01*
X142895449Y-89253766D01*
X142899990Y-89326732D01*
X142913059Y-89382334D01*
X142933829Y-89417861D01*
X142948625Y-89428020D01*
X142986537Y-89435104D01*
X143031600Y-89433007D01*
X143070560Y-89422812D01*
X143080777Y-89417204D01*
X143107732Y-89384538D01*
X143125524Y-89334545D01*
X143133097Y-89273705D01*
X143129398Y-89208497D01*
X143121130Y-89169253D01*
X143097393Y-89123805D01*
X143059922Y-89095396D01*
X143014793Y-89085573D01*
X142968084Y-89095887D01*
X142932205Y-89121112D01*
X142913350Y-89141925D01*
X142902345Y-89162439D01*
X142897099Y-89190203D01*
X142895522Y-89232762D01*
X142895449Y-89253766D01*
X142760663Y-89253766D01*
X142761167Y-89197580D01*
X142778461Y-89110501D01*
X143486440Y-89154342D02*
X143487628Y-89246563D01*
X143487628Y-89246563D02*
X143491970Y-89316610D01*
X143491970Y-89316610D02*
X143500631Y-89367381D01*
X143500631Y-89367381D02*
X143514777Y-89401772D01*
X143514777Y-89401772D02*
X143535573Y-89422679D01*
X143535573Y-89422679D02*
X143564183Y-89433000D01*
X143564183Y-89433000D02*
X143599608Y-89435636D01*
X143599608Y-89435636D02*
X143636709Y-89432682D01*
X143636709Y-89432682D02*
X143664891Y-89421889D01*
X143664891Y-89421889D02*
X143685316Y-89400360D01*
X143685316Y-89400360D02*
X143699152Y-89365199D01*
X143699152Y-89365199D02*
X143707564Y-89313510D01*
X143707564Y-89313510D02*
X143711716Y-89242394D01*
X143711716Y-89242394D02*
X143712776Y-89154342D01*
X143712776Y-89154342D02*
X143712776Y-88958614D01*
X143712776Y-88958614D02*
X143851093Y-88958614D01*
X143851093Y-88958614D02*
X143851093Y-89562179D01*
X143851093Y-89562179D02*
X143781935Y-89562179D01*
X143781935Y-89562179D02*
X143740243Y-89560489D01*
X143740243Y-89560489D02*
X143718774Y-89554556D01*
X143718774Y-89554556D02*
X143712776Y-89543293D01*
X143712776Y-89543293D02*
X143709164Y-89533261D01*
X143709164Y-89533261D02*
X143694787Y-89535383D01*
X143694787Y-89535383D02*
X143665809Y-89549580D01*
X143665809Y-89549580D02*
X143599392Y-89571480D01*
X143599392Y-89571480D02*
X143528948Y-89569928D01*
X143528948Y-89569928D02*
X143461450Y-89546147D01*
X143461450Y-89546147D02*
X143429306Y-89527362D01*
X143429306Y-89527362D02*
X143404788Y-89507022D01*
X143404788Y-89507022D02*
X143386877Y-89481573D01*
X143386877Y-89481573D02*
X143374552Y-89447458D01*
X143374552Y-89447458D02*
X143366796Y-89401121D01*
X143366796Y-89401121D02*
X143362589Y-89339007D01*
X143362589Y-89339007D02*
X143360913Y-89257561D01*
X143360913Y-89257561D02*
X143360697Y-89194578D01*
X143360697Y-89194578D02*
X143360697Y-88958614D01*
X143360697Y-88958614D02*
X143486440Y-88958614D01*
X143486440Y-88958614D02*
X143486440Y-89154342D01*
X143486440Y-89154342D02*
X143486440Y-89154342D01*
G36*
X143486440Y-89154342D02*
G01*
X143487628Y-89246563D01*
X143491970Y-89316610D01*
X143500631Y-89367381D01*
X143514777Y-89401772D01*
X143535573Y-89422679D01*
X143564183Y-89433000D01*
X143599608Y-89435636D01*
X143636709Y-89432682D01*
X143664891Y-89421889D01*
X143685316Y-89400360D01*
X143699152Y-89365199D01*
X143707564Y-89313510D01*
X143711716Y-89242394D01*
X143712776Y-89154342D01*
X143712776Y-88958614D01*
X143851093Y-88958614D01*
X143851093Y-89562179D01*
X143781935Y-89562179D01*
X143740243Y-89560489D01*
X143718774Y-89554556D01*
X143712776Y-89543293D01*
X143709164Y-89533261D01*
X143694787Y-89535383D01*
X143665809Y-89549580D01*
X143599392Y-89571480D01*
X143528948Y-89569928D01*
X143461450Y-89546147D01*
X143429306Y-89527362D01*
X143404788Y-89507022D01*
X143386877Y-89481573D01*
X143374552Y-89447458D01*
X143366796Y-89401121D01*
X143362589Y-89339007D01*
X143360913Y-89257561D01*
X143360697Y-89194578D01*
X143360697Y-88958614D01*
X143486440Y-88958614D01*
X143486440Y-89154342D01*
G37*
X143486440Y-89154342D02*
X143487628Y-89246563D01*
X143491970Y-89316610D01*
X143500631Y-89367381D01*
X143514777Y-89401772D01*
X143535573Y-89422679D01*
X143564183Y-89433000D01*
X143599608Y-89435636D01*
X143636709Y-89432682D01*
X143664891Y-89421889D01*
X143685316Y-89400360D01*
X143699152Y-89365199D01*
X143707564Y-89313510D01*
X143711716Y-89242394D01*
X143712776Y-89154342D01*
X143712776Y-88958614D01*
X143851093Y-88958614D01*
X143851093Y-89562179D01*
X143781935Y-89562179D01*
X143740243Y-89560489D01*
X143718774Y-89554556D01*
X143712776Y-89543293D01*
X143709164Y-89533261D01*
X143694787Y-89535383D01*
X143665809Y-89549580D01*
X143599392Y-89571480D01*
X143528948Y-89569928D01*
X143461450Y-89546147D01*
X143429306Y-89527362D01*
X143404788Y-89507022D01*
X143386877Y-89481573D01*
X143374552Y-89447458D01*
X143366796Y-89401121D01*
X143362589Y-89339007D01*
X143360913Y-89257561D01*
X143360697Y-89194578D01*
X143360697Y-88958614D01*
X143486440Y-88958614D01*
X143486440Y-89154342D01*
X144128328Y-89901486D02*
X144176668Y-89911015D01*
X144176668Y-89911015D02*
X144204187Y-89925125D01*
X144204187Y-89925125D02*
X144233137Y-89948568D01*
X144233137Y-89948568D02*
X144191949Y-90000571D01*
X144191949Y-90000571D02*
X144166555Y-90032064D01*
X144166555Y-90032064D02*
X144149311Y-90047428D01*
X144149311Y-90047428D02*
X144132175Y-90049776D01*
X144132175Y-90049776D02*
X144107100Y-90042217D01*
X144107100Y-90042217D02*
X144095330Y-90037941D01*
X144095330Y-90037941D02*
X144047343Y-90031631D01*
X144047343Y-90031631D02*
X144003397Y-90045156D01*
X144003397Y-90045156D02*
X143971133Y-90075710D01*
X143971133Y-90075710D02*
X143965892Y-90085452D01*
X143965892Y-90085452D02*
X143960185Y-90111258D01*
X143960185Y-90111258D02*
X143955779Y-90158817D01*
X143955779Y-90158817D02*
X143952884Y-90224758D01*
X143952884Y-90224758D02*
X143951704Y-90305710D01*
X143951704Y-90305710D02*
X143951687Y-90317226D01*
X143951687Y-90317226D02*
X143951687Y-90517822D01*
X143951687Y-90517822D02*
X143813370Y-90517822D01*
X143813370Y-90517822D02*
X143813370Y-89901683D01*
X143813370Y-89901683D02*
X143882529Y-89901683D01*
X143882529Y-89901683D02*
X143922406Y-89902725D01*
X143922406Y-89902725D02*
X143943180Y-89907358D01*
X143943180Y-89907358D02*
X143950862Y-89917849D01*
X143950862Y-89917849D02*
X143951687Y-89927745D01*
X143951687Y-89927745D02*
X143951687Y-89953806D01*
X143951687Y-89953806D02*
X143984818Y-89927745D01*
X143984818Y-89927745D02*
X144022808Y-89909965D01*
X144022808Y-89909965D02*
X144073843Y-89901174D01*
X144073843Y-89901174D02*
X144128328Y-89901486D01*
X144128328Y-89901486D02*
X144128328Y-89901486D01*
G36*
X144128328Y-89901486D02*
G01*
X144176668Y-89911015D01*
X144204187Y-89925125D01*
X144233137Y-89948568D01*
X144191949Y-90000571D01*
X144166555Y-90032064D01*
X144149311Y-90047428D01*
X144132175Y-90049776D01*
X144107100Y-90042217D01*
X144095330Y-90037941D01*
X144047343Y-90031631D01*
X144003397Y-90045156D01*
X143971133Y-90075710D01*
X143965892Y-90085452D01*
X143960185Y-90111258D01*
X143955779Y-90158817D01*
X143952884Y-90224758D01*
X143951704Y-90305710D01*
X143951687Y-90317226D01*
X143951687Y-90517822D01*
X143813370Y-90517822D01*
X143813370Y-89901683D01*
X143882529Y-89901683D01*
X143922406Y-89902725D01*
X143943180Y-89907358D01*
X143950862Y-89917849D01*
X143951687Y-89927745D01*
X143951687Y-89953806D01*
X143984818Y-89927745D01*
X144022808Y-89909965D01*
X144073843Y-89901174D01*
X144128328Y-89901486D01*
G37*
X144128328Y-89901486D02*
X144176668Y-89911015D01*
X144204187Y-89925125D01*
X144233137Y-89948568D01*
X144191949Y-90000571D01*
X144166555Y-90032064D01*
X144149311Y-90047428D01*
X144132175Y-90049776D01*
X144107100Y-90042217D01*
X144095330Y-90037941D01*
X144047343Y-90031631D01*
X144003397Y-90045156D01*
X143971133Y-90075710D01*
X143965892Y-90085452D01*
X143960185Y-90111258D01*
X143955779Y-90158817D01*
X143952884Y-90224758D01*
X143951704Y-90305710D01*
X143951687Y-90317226D01*
X143951687Y-90517822D01*
X143813370Y-90517822D01*
X143813370Y-89901683D01*
X143882529Y-89901683D01*
X143922406Y-89902725D01*
X143943180Y-89907358D01*
X143950862Y-89917849D01*
X143951687Y-89927745D01*
X143951687Y-89953806D01*
X143984818Y-89927745D01*
X144022808Y-89909965D01*
X144073843Y-89901174D01*
X144128328Y-89901486D01*
D13*
%TO.C,C1*%
X146820000Y-100802233D02*
X146820000Y-101094767D01*
X145800000Y-100802233D02*
X145800000Y-101094767D01*
%TO.C,U1*%
X144660539Y-104133752D02*
X144879700Y-104133752D01*
X139739461Y-99383952D02*
X139520300Y-99383952D01*
X139520300Y-104133752D02*
X139739459Y-104133752D01*
X144879700Y-99383952D02*
X144660541Y-99383952D01*
X139520300Y-99383952D02*
X139520300Y-104133752D01*
X144879700Y-104133752D02*
X144879700Y-99383952D01*
D15*
X141740501Y-105822852D02*
X141359501Y-105822852D01*
X141359501Y-105822852D02*
X141359501Y-105568852D01*
X141359501Y-105568852D02*
X141740501Y-105568852D01*
X141740501Y-105568852D02*
X141740501Y-105822852D01*
G36*
X141740501Y-105822852D02*
G01*
X141359501Y-105822852D01*
X141359501Y-105568852D01*
X141740501Y-105568852D01*
X141740501Y-105822852D01*
G37*
X141740501Y-105822852D02*
X141359501Y-105822852D01*
X141359501Y-105568852D01*
X141740501Y-105568852D01*
X141740501Y-105822852D01*
D13*
%TO.C,J1*%
X137360000Y-115132000D02*
X137360000Y-113802000D01*
X139960000Y-115132000D02*
X139960000Y-112472000D01*
X139960000Y-112472000D02*
X147640000Y-112472000D01*
X147640000Y-115132000D02*
X147640000Y-112472000D01*
X138690000Y-115132000D02*
X137360000Y-115132000D01*
X139960000Y-115132000D02*
X147640000Y-115132000D01*
%TO.C,R1*%
X140977500Y-95665224D02*
X140977500Y-95155776D01*
X142022500Y-95665224D02*
X142022500Y-95155776D01*
%TO.C,R3*%
X145787500Y-108617776D02*
X145787500Y-109127224D01*
X146832500Y-108617776D02*
X146832500Y-109127224D01*
%TO.C,C2*%
X143260000Y-108726233D02*
X143260000Y-109018767D01*
X144280000Y-108726233D02*
X144280000Y-109018767D01*
%TO.C,JP1*%
X139690000Y-107472500D02*
X139690000Y-110272500D01*
X137690000Y-110272500D02*
X137690000Y-107472500D01*
X139690000Y-110272500D02*
X137690000Y-110272500D01*
X137690000Y-107472500D02*
X139690000Y-107472500D01*
%TO.C,R2*%
X144022500Y-95665224D02*
X144022500Y-95155776D01*
X142977500Y-95665224D02*
X142977500Y-95155776D01*
%TD*%
M02*
