<?xml version="1.0" encoding="UTF-8" standalone="no"?>
<!-- Created with Inkscape (http://www.inkscape.org/) -->

<svg
   width="23.049999mm"
   height="23.049999mm"
   viewBox="0 0 23.049999 23.049999"
   version="1.1"
   id="svg5"
   inkscape:version="1.1.2 (0a00cf5339, 2022-02-04)"
   sodipodi:docname="prox-sense-cap-19.05mm-guard.svg"
   xmlns:inkscape="http://www.inkscape.org/namespaces/inkscape"
   xmlns:sodipodi="http://sodipodi.sourceforge.net/DTD/sodipodi-0.dtd"
   xmlns="http://www.w3.org/2000/svg"
   xmlns:svg="http://www.w3.org/2000/svg">
  <sodipodi:namedview
     id="namedview7"
     pagecolor="#ffffff"
     bordercolor="#cccccc"
     borderopacity="1"
     inkscape:pageshadow="0"
     inkscape:pageopacity="1"
     inkscape:pagecheckerboard="0"
     inkscape:document-units="mm"
     showgrid="false"
     showguides="false"
     inkscape:zoom="8"
     inkscape:cx="39.5"
     inkscape:cy="46.125"
     inkscape:window-width="1920"
     inkscape:window-height="1143"
     inkscape:window-x="1920"
     inkscape:window-y="0"
     inkscape:window-maximized="1"
     inkscape:current-layer="layer2" />
  <defs
     id="defs2" />
  <g
     inkscape:groupmode="layer"
     id="layer2"
     inkscape:label="Guard"
     style="display:inline"
     sodipodi:insensitive="true">
    <g
       id="g1249"
       transform="translate(-81.358838,-80.507364)"
       style="fill:#000000">
      <g
         id="g1408"
         transform="matrix(1.0950119,0,0,1.0950119,10.327461,-9.9588655)"
         style="fill:#000000">
        <path
           id="path846-3-6"
           style="fill:#000000;stroke-width:1.33799"
           d="m 281.16992,304.76953 a 43.559056,43.559056 0 0 0 -43.55859,43.55859 43.559056,43.559056 0 0 0 39.77929,43.39258 v -3.79297 a 39.779528,39.779528 0 0 1 -36,-39.59961 39.779528,39.779528 0 0 1 39.7793,-39.77929 39.779528,39.779528 0 0 1 39.78125,39.77929 39.779528,39.779528 0 0 1 -36.00195,39.59961 v 3.79297 a 43.559056,43.559056 0 0 0 39.78125,-43.39258 43.559056,43.559056 0 0 0 -43.56055,-43.55859 z"
           transform="matrix(0.24162599,0,0,0.24162599,7.4549354,8.9965919)" />
      </g>
    </g>
  </g>
</svg>
