%TF.GenerationSoftware,KiCad,Pcbnew,6.0.2*%
%TF.CreationDate,2022-03-10T16:59:41-05:00*%
%TF.ProjectId,prox-sense-single-mtch105-directional-v0.1-19.05mm-handsolder,70726f78-2d73-4656-9e73-652d73696e67,v0.1*%
%TF.SameCoordinates,Original*%
%TF.FileFunction,Copper,L2,Bot*%
%TF.FilePolarity,Positive*%
%FSLAX46Y46*%
G04 Gerber Fmt 4.6, Leading zero omitted, Abs format (unit mm)*
G04 Created by KiCad (PCBNEW 6.0.2) date 2022-03-10 16:59:41*
%MOMM*%
%LPD*%
G01*
G04 APERTURE LIST*
G04 Aperture macros list*
%AMRoundRect*
0 Rectangle with rounded corners*
0 $1 Rounding radius*
0 $2 $3 $4 $5 $6 $7 $8 $9 X,Y pos of 4 corners*
0 Add a 4 corners polygon primitive as box body*
4,1,4,$2,$3,$4,$5,$6,$7,$8,$9,$2,$3,0*
0 Add four circle primitives for the rounded corners*
1,1,$1+$1,$2,$3*
1,1,$1+$1,$4,$5*
1,1,$1+$1,$6,$7*
1,1,$1+$1,$8,$9*
0 Add four rect primitives between the rounded corners*
20,1,$1+$1,$2,$3,$4,$5,0*
20,1,$1+$1,$4,$5,$6,$7,0*
20,1,$1+$1,$6,$7,$8,$9,0*
20,1,$1+$1,$8,$9,$2,$3,0*%
G04 Aperture macros list end*
%TA.AperFunction,EtchedComponent*%
%ADD10C,0.292575*%
%TD*%
%TA.AperFunction,EtchedComponent*%
%ADD11C,0.354009*%
%TD*%
%TA.AperFunction,SMDPad,CuDef*%
%ADD12RoundRect,0.381000X0.762000X0.381000X-0.762000X0.381000X-0.762000X-0.381000X0.762000X-0.381000X0*%
%TD*%
%TA.AperFunction,ComponentPad*%
%ADD13C,1.000000*%
%TD*%
%TA.AperFunction,SMDPad,CuDef*%
%ADD14C,1.000000*%
%TD*%
%TA.AperFunction,ComponentPad*%
%ADD15R,1.700000X1.700000*%
%TD*%
%TA.AperFunction,ComponentPad*%
%ADD16O,1.700000X1.700000*%
%TD*%
%TA.AperFunction,ViaPad*%
%ADD17C,0.508000*%
%TD*%
%TA.AperFunction,Conductor*%
%ADD18C,0.152400*%
%TD*%
G04 APERTURE END LIST*
D10*
%TO.C,U2*%
X132999994Y-80250004D02*
X133012388Y-80740160D01*
X133012388Y-80740160D02*
X133049171Y-81223880D01*
X133049171Y-81223880D02*
X133109743Y-81700568D01*
X133109743Y-81700568D02*
X133193508Y-82169624D01*
X133193508Y-82169624D02*
X133299866Y-82630450D01*
X133299866Y-82630450D02*
X133428219Y-83082448D01*
X133428219Y-83082448D02*
X133577968Y-83525019D01*
X133577968Y-83525019D02*
X133748516Y-83957564D01*
X133748516Y-83957564D02*
X133939262Y-84379485D01*
X133939262Y-84379485D02*
X134149610Y-84790185D01*
X134149610Y-84790185D02*
X134378960Y-85189063D01*
X134378960Y-85189063D02*
X134626714Y-85575522D01*
X134626714Y-85575522D02*
X134892274Y-85948963D01*
X134892274Y-85948963D02*
X135175040Y-86308788D01*
X135175040Y-86308788D02*
X135474416Y-86654399D01*
X135474416Y-86654399D02*
X135789801Y-86985196D01*
X135789801Y-86985196D02*
X136120598Y-87300581D01*
X136120598Y-87300581D02*
X136466209Y-87599957D01*
X136466209Y-87599957D02*
X136826034Y-87882723D01*
X136826034Y-87882723D02*
X137199475Y-88148283D01*
X137199475Y-88148283D02*
X137585934Y-88396037D01*
X137585934Y-88396037D02*
X137984812Y-88625387D01*
X137984812Y-88625387D02*
X138395512Y-88835735D01*
X138395512Y-88835735D02*
X138817433Y-89026481D01*
X138817433Y-89026481D02*
X139249978Y-89197029D01*
X139249978Y-89197029D02*
X139692549Y-89346778D01*
X139692549Y-89346778D02*
X140144547Y-89475131D01*
X140144547Y-89475131D02*
X140605373Y-89581489D01*
X140605373Y-89581489D02*
X141074429Y-89665254D01*
X141074429Y-89665254D02*
X141551117Y-89725826D01*
X141551117Y-89725826D02*
X142034837Y-89762609D01*
X142034837Y-89762609D02*
X142524993Y-89775003D01*
X142524993Y-89775003D02*
X143015148Y-89762609D01*
X143015148Y-89762609D02*
X143498869Y-89725826D01*
X143498869Y-89725826D02*
X143975556Y-89665254D01*
X143975556Y-89665254D02*
X144444612Y-89581489D01*
X144444612Y-89581489D02*
X144905439Y-89475131D01*
X144905439Y-89475131D02*
X145357436Y-89346778D01*
X145357436Y-89346778D02*
X145800007Y-89197029D01*
X145800007Y-89197029D02*
X146232553Y-89026481D01*
X146232553Y-89026481D02*
X146654474Y-88835735D01*
X146654474Y-88835735D02*
X147065173Y-88625387D01*
X147065173Y-88625387D02*
X147464052Y-88396037D01*
X147464052Y-88396037D02*
X147850511Y-88148283D01*
X147850511Y-88148283D02*
X148223952Y-87882723D01*
X148223952Y-87882723D02*
X148583777Y-87599957D01*
X148583777Y-87599957D02*
X148929387Y-87300581D01*
X148929387Y-87300581D02*
X149260185Y-86985196D01*
X149260185Y-86985196D02*
X149575570Y-86654399D01*
X149575570Y-86654399D02*
X149874946Y-86308788D01*
X149874946Y-86308788D02*
X150157712Y-85948963D01*
X150157712Y-85948963D02*
X150423272Y-85575522D01*
X150423272Y-85575522D02*
X150671026Y-85189063D01*
X150671026Y-85189063D02*
X150900376Y-84790185D01*
X150900376Y-84790185D02*
X151110724Y-84379485D01*
X151110724Y-84379485D02*
X151301471Y-83957564D01*
X151301471Y-83957564D02*
X151472018Y-83525019D01*
X151472018Y-83525019D02*
X151621767Y-83082448D01*
X151621767Y-83082448D02*
X151750120Y-82630450D01*
X151750120Y-82630450D02*
X151856478Y-82169624D01*
X151856478Y-82169624D02*
X151940243Y-81700568D01*
X151940243Y-81700568D02*
X152000816Y-81223880D01*
X152000816Y-81223880D02*
X152037598Y-80740160D01*
X152037598Y-80740160D02*
X152049992Y-80250004D01*
X152049992Y-80250004D02*
X152037598Y-79759849D01*
X152037598Y-79759849D02*
X152000816Y-79276128D01*
X152000816Y-79276128D02*
X151940243Y-78799441D01*
X151940243Y-78799441D02*
X151856478Y-78330385D01*
X151856478Y-78330385D02*
X151750120Y-77869558D01*
X151750120Y-77869558D02*
X151621767Y-77417561D01*
X151621767Y-77417561D02*
X151472018Y-76974990D01*
X151472018Y-76974990D02*
X151301471Y-76542444D01*
X151301471Y-76542444D02*
X151110724Y-76120523D01*
X151110724Y-76120523D02*
X150900376Y-75709824D01*
X150900376Y-75709824D02*
X150671026Y-75310945D01*
X150671026Y-75310945D02*
X150423272Y-74924486D01*
X150423272Y-74924486D02*
X150157712Y-74551045D01*
X150157712Y-74551045D02*
X149874946Y-74191220D01*
X149874946Y-74191220D02*
X149575570Y-73845610D01*
X149575570Y-73845610D02*
X149260185Y-73514812D01*
X149260185Y-73514812D02*
X148929387Y-73199427D01*
X148929387Y-73199427D02*
X148583777Y-72900051D01*
X148583777Y-72900051D02*
X148223952Y-72617285D01*
X148223952Y-72617285D02*
X147850511Y-72351725D01*
X147850511Y-72351725D02*
X147464052Y-72103971D01*
X147464052Y-72103971D02*
X147065173Y-71874621D01*
X147065173Y-71874621D02*
X146654474Y-71664273D01*
X146654474Y-71664273D02*
X146232553Y-71473526D01*
X146232553Y-71473526D02*
X145800007Y-71302979D01*
X145800007Y-71302979D02*
X145357436Y-71153230D01*
X145357436Y-71153230D02*
X144905439Y-71024877D01*
X144905439Y-71024877D02*
X144444612Y-70918519D01*
X144444612Y-70918519D02*
X143975556Y-70834754D01*
X143975556Y-70834754D02*
X143498869Y-70774181D01*
X143498869Y-70774181D02*
X143015148Y-70737399D01*
X143015148Y-70737399D02*
X142524993Y-70725005D01*
X142524993Y-70725005D02*
X142034837Y-70737399D01*
X142034837Y-70737399D02*
X141551117Y-70774181D01*
X141551117Y-70774181D02*
X141074429Y-70834754D01*
X141074429Y-70834754D02*
X140605373Y-70918519D01*
X140605373Y-70918519D02*
X140144547Y-71024877D01*
X140144547Y-71024877D02*
X139692549Y-71153230D01*
X139692549Y-71153230D02*
X139249978Y-71302979D01*
X139249978Y-71302979D02*
X138817433Y-71473526D01*
X138817433Y-71473526D02*
X138395512Y-71664273D01*
X138395512Y-71664273D02*
X137984812Y-71874621D01*
X137984812Y-71874621D02*
X137585934Y-72103971D01*
X137585934Y-72103971D02*
X137199475Y-72351725D01*
X137199475Y-72351725D02*
X136826034Y-72617285D01*
X136826034Y-72617285D02*
X136466209Y-72900051D01*
X136466209Y-72900051D02*
X136120598Y-73199427D01*
X136120598Y-73199427D02*
X135789801Y-73514812D01*
X135789801Y-73514812D02*
X135474416Y-73845610D01*
X135474416Y-73845610D02*
X135175040Y-74191220D01*
X135175040Y-74191220D02*
X134892274Y-74551045D01*
X134892274Y-74551045D02*
X134626714Y-74924486D01*
X134626714Y-74924486D02*
X134378960Y-75310945D01*
X134378960Y-75310945D02*
X134149610Y-75709824D01*
X134149610Y-75709824D02*
X133939262Y-76120523D01*
X133939262Y-76120523D02*
X133748516Y-76542444D01*
X133748516Y-76542444D02*
X133577968Y-76974990D01*
X133577968Y-76974990D02*
X133428219Y-77417561D01*
X133428219Y-77417561D02*
X133299866Y-77869558D01*
X133299866Y-77869558D02*
X133193508Y-78330385D01*
X133193508Y-78330385D02*
X133109743Y-78799441D01*
X133109743Y-78799441D02*
X133049171Y-79276128D01*
X133049171Y-79276128D02*
X133012388Y-79759849D01*
X133012388Y-79759849D02*
X132999994Y-80250004D01*
X132999994Y-80250004D02*
X132999994Y-80250004D01*
G36*
X143015148Y-70737399D02*
G01*
X143498869Y-70774181D01*
X143975556Y-70834754D01*
X144444612Y-70918519D01*
X144905439Y-71024877D01*
X145357436Y-71153230D01*
X145800007Y-71302979D01*
X146232553Y-71473526D01*
X146654474Y-71664273D01*
X147065173Y-71874621D01*
X147464052Y-72103971D01*
X147850511Y-72351725D01*
X148223952Y-72617285D01*
X148583777Y-72900051D01*
X148929387Y-73199427D01*
X149260185Y-73514812D01*
X149575570Y-73845610D01*
X149874946Y-74191220D01*
X150157712Y-74551045D01*
X150423272Y-74924486D01*
X150671026Y-75310945D01*
X150900376Y-75709824D01*
X151110724Y-76120523D01*
X151301471Y-76542444D01*
X151472018Y-76974990D01*
X151621767Y-77417561D01*
X151750120Y-77869558D01*
X151856478Y-78330385D01*
X151940243Y-78799441D01*
X152000816Y-79276128D01*
X152037598Y-79759849D01*
X152049992Y-80250004D01*
X152037598Y-80740160D01*
X152000816Y-81223880D01*
X151940243Y-81700568D01*
X151856478Y-82169624D01*
X151750120Y-82630450D01*
X151621767Y-83082448D01*
X151472018Y-83525019D01*
X151301471Y-83957564D01*
X151110724Y-84379485D01*
X150900376Y-84790185D01*
X150671026Y-85189063D01*
X150423272Y-85575522D01*
X150157712Y-85948963D01*
X149874946Y-86308788D01*
X149575570Y-86654399D01*
X149260185Y-86985196D01*
X148929387Y-87300581D01*
X148583777Y-87599957D01*
X148223952Y-87882723D01*
X147850511Y-88148283D01*
X147464052Y-88396037D01*
X147065173Y-88625387D01*
X146654474Y-88835735D01*
X146232553Y-89026481D01*
X145800007Y-89197029D01*
X145357436Y-89346778D01*
X144905439Y-89475131D01*
X144444612Y-89581489D01*
X143975556Y-89665254D01*
X143498869Y-89725826D01*
X143015148Y-89762609D01*
X142524993Y-89775003D01*
X142034837Y-89762609D01*
X141551117Y-89725826D01*
X141074429Y-89665254D01*
X140605373Y-89581489D01*
X140144547Y-89475131D01*
X139692549Y-89346778D01*
X139249978Y-89197029D01*
X138817433Y-89026481D01*
X138395512Y-88835735D01*
X137984812Y-88625387D01*
X137585934Y-88396037D01*
X137199475Y-88148283D01*
X136826034Y-87882723D01*
X136466209Y-87599957D01*
X136120598Y-87300581D01*
X135789801Y-86985196D01*
X135474416Y-86654399D01*
X135175040Y-86308788D01*
X134892274Y-85948963D01*
X134626714Y-85575522D01*
X134378960Y-85189063D01*
X134149610Y-84790185D01*
X133939262Y-84379485D01*
X133748516Y-83957564D01*
X133577968Y-83525019D01*
X133428219Y-83082448D01*
X133299866Y-82630450D01*
X133193508Y-82169624D01*
X133109743Y-81700568D01*
X133049171Y-81223880D01*
X133012388Y-80740160D01*
X132999994Y-80250004D01*
X133012388Y-79759849D01*
X133049171Y-79276128D01*
X133109743Y-78799441D01*
X133193508Y-78330385D01*
X133299866Y-77869558D01*
X133428219Y-77417561D01*
X133577968Y-76974990D01*
X133748516Y-76542444D01*
X133939262Y-76120523D01*
X134149610Y-75709824D01*
X134378960Y-75310945D01*
X134626714Y-74924486D01*
X134892274Y-74551045D01*
X135175040Y-74191220D01*
X135474416Y-73845610D01*
X135789801Y-73514812D01*
X136120598Y-73199427D01*
X136466209Y-72900051D01*
X136826034Y-72617285D01*
X137199475Y-72351725D01*
X137585934Y-72103971D01*
X137984812Y-71874621D01*
X138395512Y-71664273D01*
X138817433Y-71473526D01*
X139249978Y-71302979D01*
X139692549Y-71153230D01*
X140144547Y-71024877D01*
X140605373Y-70918519D01*
X141074429Y-70834754D01*
X141551117Y-70774181D01*
X142034837Y-70737399D01*
X142524993Y-70725005D01*
X143015148Y-70737399D01*
G37*
X143015148Y-70737399D02*
X143498869Y-70774181D01*
X143975556Y-70834754D01*
X144444612Y-70918519D01*
X144905439Y-71024877D01*
X145357436Y-71153230D01*
X145800007Y-71302979D01*
X146232553Y-71473526D01*
X146654474Y-71664273D01*
X147065173Y-71874621D01*
X147464052Y-72103971D01*
X147850511Y-72351725D01*
X148223952Y-72617285D01*
X148583777Y-72900051D01*
X148929387Y-73199427D01*
X149260185Y-73514812D01*
X149575570Y-73845610D01*
X149874946Y-74191220D01*
X150157712Y-74551045D01*
X150423272Y-74924486D01*
X150671026Y-75310945D01*
X150900376Y-75709824D01*
X151110724Y-76120523D01*
X151301471Y-76542444D01*
X151472018Y-76974990D01*
X151621767Y-77417561D01*
X151750120Y-77869558D01*
X151856478Y-78330385D01*
X151940243Y-78799441D01*
X152000816Y-79276128D01*
X152037598Y-79759849D01*
X152049992Y-80250004D01*
X152037598Y-80740160D01*
X152000816Y-81223880D01*
X151940243Y-81700568D01*
X151856478Y-82169624D01*
X151750120Y-82630450D01*
X151621767Y-83082448D01*
X151472018Y-83525019D01*
X151301471Y-83957564D01*
X151110724Y-84379485D01*
X150900376Y-84790185D01*
X150671026Y-85189063D01*
X150423272Y-85575522D01*
X150157712Y-85948963D01*
X149874946Y-86308788D01*
X149575570Y-86654399D01*
X149260185Y-86985196D01*
X148929387Y-87300581D01*
X148583777Y-87599957D01*
X148223952Y-87882723D01*
X147850511Y-88148283D01*
X147464052Y-88396037D01*
X147065173Y-88625387D01*
X146654474Y-88835735D01*
X146232553Y-89026481D01*
X145800007Y-89197029D01*
X145357436Y-89346778D01*
X144905439Y-89475131D01*
X144444612Y-89581489D01*
X143975556Y-89665254D01*
X143498869Y-89725826D01*
X143015148Y-89762609D01*
X142524993Y-89775003D01*
X142034837Y-89762609D01*
X141551117Y-89725826D01*
X141074429Y-89665254D01*
X140605373Y-89581489D01*
X140144547Y-89475131D01*
X139692549Y-89346778D01*
X139249978Y-89197029D01*
X138817433Y-89026481D01*
X138395512Y-88835735D01*
X137984812Y-88625387D01*
X137585934Y-88396037D01*
X137199475Y-88148283D01*
X136826034Y-87882723D01*
X136466209Y-87599957D01*
X136120598Y-87300581D01*
X135789801Y-86985196D01*
X135474416Y-86654399D01*
X135175040Y-86308788D01*
X134892274Y-85948963D01*
X134626714Y-85575522D01*
X134378960Y-85189063D01*
X134149610Y-84790185D01*
X133939262Y-84379485D01*
X133748516Y-83957564D01*
X133577968Y-83525019D01*
X133428219Y-83082448D01*
X133299866Y-82630450D01*
X133193508Y-82169624D01*
X133109743Y-81700568D01*
X133049171Y-81223880D01*
X133012388Y-80740160D01*
X132999994Y-80250004D01*
X133012388Y-79759849D01*
X133049171Y-79276128D01*
X133109743Y-78799441D01*
X133193508Y-78330385D01*
X133299866Y-77869558D01*
X133428219Y-77417561D01*
X133577968Y-76974990D01*
X133748516Y-76542444D01*
X133939262Y-76120523D01*
X134149610Y-75709824D01*
X134378960Y-75310945D01*
X134626714Y-74924486D01*
X134892274Y-74551045D01*
X135175040Y-74191220D01*
X135474416Y-73845610D01*
X135789801Y-73514812D01*
X136120598Y-73199427D01*
X136466209Y-72900051D01*
X136826034Y-72617285D01*
X137199475Y-72351725D01*
X137585934Y-72103971D01*
X137984812Y-71874621D01*
X138395512Y-71664273D01*
X138817433Y-71473526D01*
X139249978Y-71302979D01*
X139692549Y-71153230D01*
X140144547Y-71024877D01*
X140605373Y-70918519D01*
X141074429Y-70834754D01*
X141551117Y-70774181D01*
X142034837Y-70737399D01*
X142524993Y-70725005D01*
X143015148Y-70737399D01*
D11*
X142499740Y-68747087D02*
X141906674Y-68762089D01*
X141906674Y-68762089D02*
X141321393Y-68806600D01*
X141321393Y-68806600D02*
X140744622Y-68879896D01*
X140744622Y-68879896D02*
X140177085Y-68981253D01*
X140177085Y-68981253D02*
X139619505Y-69109946D01*
X139619505Y-69109946D02*
X139072608Y-69265251D01*
X139072608Y-69265251D02*
X138537117Y-69446445D01*
X138537117Y-69446445D02*
X138013756Y-69652803D01*
X138013756Y-69652803D02*
X137503250Y-69883601D01*
X137503250Y-69883601D02*
X137006322Y-70138115D01*
X137006322Y-70138115D02*
X136523697Y-70415621D01*
X136523697Y-70415621D02*
X136056098Y-70715394D01*
X136056098Y-70715394D02*
X135604250Y-71036712D01*
X135604250Y-71036712D02*
X135168877Y-71378848D01*
X135168877Y-71378848D02*
X134750703Y-71741081D01*
X134750703Y-71741081D02*
X134350453Y-72122684D01*
X134350453Y-72122684D02*
X133968849Y-72522935D01*
X133968849Y-72522935D02*
X133606617Y-72941109D01*
X133606617Y-72941109D02*
X133264480Y-73376482D01*
X133264480Y-73376482D02*
X132943163Y-73828329D01*
X132943163Y-73828329D02*
X132643389Y-74295928D01*
X132643389Y-74295928D02*
X132365884Y-74778553D01*
X132365884Y-74778553D02*
X132111370Y-75275481D01*
X132111370Y-75275481D02*
X131880572Y-75785987D01*
X131880572Y-75785987D02*
X131674214Y-76309347D01*
X131674214Y-76309347D02*
X131493020Y-76844838D01*
X131493020Y-76844838D02*
X131337715Y-77391735D01*
X131337715Y-77391735D02*
X131209022Y-77949314D01*
X131209022Y-77949314D02*
X131107666Y-78516850D01*
X131107666Y-78516850D02*
X131034370Y-79093621D01*
X131034370Y-79093621D02*
X130989859Y-79678901D01*
X130989859Y-79678901D02*
X130974857Y-80271967D01*
X130974857Y-80271967D02*
X130988147Y-80829269D01*
X130988147Y-80829269D02*
X131027630Y-81380126D01*
X131027630Y-81380126D02*
X131092722Y-81923901D01*
X131092722Y-81923901D02*
X131182841Y-82459959D01*
X131182841Y-82459959D02*
X131297402Y-82987663D01*
X131297402Y-82987663D02*
X131435823Y-83506376D01*
X131435823Y-83506376D02*
X131597521Y-84015463D01*
X131597521Y-84015463D02*
X131781913Y-84514287D01*
X131781913Y-84514287D02*
X131988415Y-85002211D01*
X131988415Y-85002211D02*
X132216444Y-85478601D01*
X132216444Y-85478601D02*
X132465417Y-85942818D01*
X132465417Y-85942818D02*
X132734751Y-86394228D01*
X132734751Y-86394228D02*
X133023864Y-86832193D01*
X133023864Y-86832193D02*
X133332171Y-87256078D01*
X133332171Y-87256078D02*
X133659089Y-87665246D01*
X133659089Y-87665246D02*
X134004036Y-88059061D01*
X134004036Y-88059061D02*
X134366429Y-88436886D01*
X134366429Y-88436886D02*
X134745683Y-88798086D01*
X134745683Y-88798086D02*
X135141217Y-89142024D01*
X135141217Y-89142024D02*
X135552446Y-89468064D01*
X135552446Y-89468064D02*
X135978789Y-89775569D01*
X135978789Y-89775569D02*
X136419661Y-90063904D01*
X136419661Y-90063904D02*
X136874479Y-90332431D01*
X136874479Y-90332431D02*
X137342661Y-90580515D01*
X137342661Y-90580515D02*
X137823623Y-90807520D01*
X137823623Y-90807520D02*
X138316783Y-91012809D01*
X138316783Y-91012809D02*
X138821556Y-91195746D01*
X138821556Y-91195746D02*
X139337360Y-91355694D01*
X139337360Y-91355694D02*
X139863611Y-91492018D01*
X139863611Y-91492018D02*
X140399728Y-91604080D01*
X140399728Y-91604080D02*
X140945125Y-91691246D01*
X140945125Y-91691246D02*
X141499221Y-91752878D01*
X141499221Y-91752878D02*
X141499801Y-90749368D01*
X141499801Y-90749368D02*
X140997295Y-90689357D01*
X140997295Y-90689357D02*
X140502791Y-90606359D01*
X140502791Y-90606359D02*
X140016811Y-90500948D01*
X140016811Y-90500948D02*
X139539876Y-90373696D01*
X139539876Y-90373696D02*
X139072508Y-90225177D01*
X139072508Y-90225177D02*
X138615228Y-90055966D01*
X138615228Y-90055966D02*
X138168557Y-89866635D01*
X138168557Y-89866635D02*
X137733017Y-89657757D01*
X137733017Y-89657757D02*
X137309129Y-89429907D01*
X137309129Y-89429907D02*
X136897414Y-89183658D01*
X136897414Y-89183658D02*
X136498394Y-88919584D01*
X136498394Y-88919584D02*
X136112590Y-88638257D01*
X136112590Y-88638257D02*
X135740524Y-88340252D01*
X135740524Y-88340252D02*
X135382716Y-88026141D01*
X135382716Y-88026141D02*
X135039689Y-87696499D01*
X135039689Y-87696499D02*
X134711963Y-87351899D01*
X134711963Y-87351899D02*
X134400061Y-86992914D01*
X134400061Y-86992914D02*
X134104502Y-86620118D01*
X134104502Y-86620118D02*
X133825810Y-86234084D01*
X133825810Y-86234084D02*
X133564504Y-85835387D01*
X133564504Y-85835387D02*
X133321107Y-85424598D01*
X133321107Y-85424598D02*
X133096139Y-85002293D01*
X133096139Y-85002293D02*
X132890123Y-84569044D01*
X132890123Y-84569044D02*
X132703579Y-84125425D01*
X132703579Y-84125425D02*
X132537028Y-83672009D01*
X132537028Y-83672009D02*
X132390994Y-83209370D01*
X132390994Y-83209370D02*
X132265995Y-82738081D01*
X132265995Y-82738081D02*
X132162555Y-82258717D01*
X132162555Y-82258717D02*
X132081194Y-81771849D01*
X132081194Y-81771849D02*
X132022433Y-81278053D01*
X132022433Y-81278053D02*
X131986795Y-80777901D01*
X131986795Y-80777901D02*
X131974799Y-80271967D01*
X131974799Y-80271967D02*
X131988494Y-79730362D01*
X131988494Y-79730362D02*
X132029138Y-79195867D01*
X132029138Y-79195867D02*
X132096069Y-78669142D01*
X132096069Y-78669142D02*
X132188627Y-78150850D01*
X132188627Y-78150850D02*
X132306149Y-77641652D01*
X132306149Y-77641652D02*
X132447975Y-77142208D01*
X132447975Y-77142208D02*
X132613444Y-76653180D01*
X132613444Y-76653180D02*
X132801894Y-76175230D01*
X132801894Y-76175230D02*
X133012663Y-75709018D01*
X133012663Y-75709018D02*
X133245091Y-75255206D01*
X133245091Y-75255206D02*
X133498517Y-74814456D01*
X133498517Y-74814456D02*
X133772278Y-74387428D01*
X133772278Y-74387428D02*
X134065714Y-73974784D01*
X134065714Y-73974784D02*
X134378163Y-73577185D01*
X134378163Y-73577185D02*
X134708965Y-73195293D01*
X134708965Y-73195293D02*
X135057457Y-72829769D01*
X135057457Y-72829769D02*
X135422979Y-72481273D01*
X135422979Y-72481273D02*
X135804869Y-72150469D01*
X135804869Y-72150469D02*
X136202466Y-71838016D01*
X136202466Y-71838016D02*
X136615109Y-71544575D01*
X136615109Y-71544575D02*
X137042137Y-71270810D01*
X137042137Y-71270810D02*
X137482887Y-71017380D01*
X137482887Y-71017380D02*
X137936699Y-70784947D01*
X137936699Y-70784947D02*
X138402912Y-70574172D01*
X138402912Y-70574172D02*
X138880864Y-70385716D01*
X138880864Y-70385716D02*
X139369894Y-70220242D01*
X139369894Y-70220242D02*
X139869340Y-70078410D01*
X139869340Y-70078410D02*
X140378542Y-69960881D01*
X140378542Y-69960881D02*
X140896839Y-69868317D01*
X140896839Y-69868317D02*
X141423568Y-69801379D01*
X141423568Y-69801379D02*
X141958068Y-69760728D01*
X141958068Y-69760728D02*
X142499679Y-69747026D01*
X142499679Y-69747026D02*
X143021606Y-69759940D01*
X143021606Y-69759940D02*
X143539991Y-69798488D01*
X143539991Y-69798488D02*
X144053971Y-69862311D01*
X144053971Y-69862311D02*
X144562683Y-69951054D01*
X144562683Y-69951054D02*
X145065264Y-70064357D01*
X145065264Y-70064357D02*
X145560852Y-70201865D01*
X145560852Y-70201865D02*
X146048584Y-70363219D01*
X146048584Y-70363219D02*
X146527597Y-70548063D01*
X146527597Y-70548063D02*
X146997028Y-70756039D01*
X146997028Y-70756039D02*
X147456016Y-70986789D01*
X147456016Y-70986789D02*
X147903697Y-71239957D01*
X147903697Y-71239957D02*
X148339208Y-71515185D01*
X148339208Y-71515185D02*
X148761688Y-71812116D01*
X148761688Y-71812116D02*
X149170272Y-72130393D01*
X149170272Y-72130393D02*
X149564099Y-72469658D01*
X149564099Y-72469658D02*
X149942306Y-72829553D01*
X149942306Y-72829553D02*
X150302219Y-73207743D01*
X150302219Y-73207743D02*
X150641503Y-73601554D01*
X150641503Y-73601554D02*
X150959799Y-74010122D01*
X150959799Y-74010122D02*
X151256750Y-74432586D01*
X151256750Y-74432586D02*
X151531999Y-74868083D01*
X151531999Y-74868083D02*
X151785189Y-75315749D01*
X151785189Y-75315749D02*
X152015962Y-75774723D01*
X152015962Y-75774723D02*
X152223961Y-76244141D01*
X152223961Y-76244141D02*
X152408828Y-76723141D01*
X152408828Y-76723141D02*
X152570206Y-77210861D01*
X152570206Y-77210861D02*
X152707738Y-77706436D01*
X152707738Y-77706436D02*
X152821066Y-78209006D01*
X152821066Y-78209006D02*
X152909833Y-78717706D01*
X152909833Y-78717706D02*
X152973681Y-79231675D01*
X152973681Y-79231675D02*
X153012253Y-79750049D01*
X153012253Y-79750049D02*
X153025192Y-80271967D01*
X153025192Y-80271967D02*
X153013195Y-80777914D01*
X153013195Y-80777914D02*
X152977554Y-81278079D01*
X152977554Y-81278079D02*
X152918790Y-81771888D01*
X152918790Y-81771888D02*
X152837423Y-82258767D01*
X152837423Y-82258767D02*
X152733976Y-82738143D01*
X152733976Y-82738143D02*
X152608969Y-83209443D01*
X152608969Y-83209443D02*
X152462925Y-83672092D01*
X152462925Y-83672092D02*
X152296365Y-84125517D01*
X152296365Y-84125517D02*
X152109809Y-84569145D01*
X152109809Y-84569145D02*
X151903781Y-85002402D01*
X151903781Y-85002402D02*
X151678800Y-85424714D01*
X151678800Y-85424714D02*
X151435388Y-85835509D01*
X151435388Y-85835509D02*
X151174067Y-86234212D01*
X151174067Y-86234212D02*
X150895359Y-86620250D01*
X150895359Y-86620250D02*
X150599784Y-86993049D01*
X150599784Y-86993049D02*
X150287864Y-87352036D01*
X150287864Y-87352036D02*
X149960121Y-87696638D01*
X149960121Y-87696638D02*
X149617075Y-88026280D01*
X149617075Y-88026280D02*
X149259249Y-88340389D01*
X149259249Y-88340389D02*
X148887164Y-88638392D01*
X148887164Y-88638392D02*
X148501341Y-88919716D01*
X148501341Y-88919716D02*
X148102301Y-89183786D01*
X148102301Y-89183786D02*
X147690566Y-89430029D01*
X147690566Y-89430029D02*
X147266658Y-89657871D01*
X147266658Y-89657871D02*
X146831098Y-89866739D01*
X146831098Y-89866739D02*
X146384407Y-90056060D01*
X146384407Y-90056060D02*
X145927107Y-90225260D01*
X145927107Y-90225260D02*
X145459719Y-90373765D01*
X145459719Y-90373765D02*
X144982765Y-90501002D01*
X144982765Y-90501002D02*
X144496765Y-90606397D01*
X144496765Y-90606397D02*
X144002242Y-90689377D01*
X144002242Y-90689377D02*
X143499717Y-90749368D01*
X143499717Y-90749368D02*
X143499679Y-91752924D01*
X143499679Y-91752924D02*
X144053797Y-91691343D01*
X144053797Y-91691343D02*
X144599219Y-91604226D01*
X144599219Y-91604226D02*
X145135361Y-91492209D01*
X145135361Y-91492209D02*
X145661640Y-91355929D01*
X145661640Y-91355929D02*
X146177472Y-91196021D01*
X146177472Y-91196021D02*
X146682275Y-91013123D01*
X146682275Y-91013123D02*
X147175466Y-90807869D01*
X147175466Y-90807869D02*
X147656460Y-90580896D01*
X147656460Y-90580896D02*
X148124675Y-90332841D01*
X148124675Y-90332841D02*
X148579528Y-90064339D01*
X148579528Y-90064339D02*
X149020435Y-89776027D01*
X149020435Y-89776027D02*
X149446814Y-89468541D01*
X149446814Y-89468541D02*
X149858080Y-89142517D01*
X149858080Y-89142517D02*
X150253651Y-88798591D01*
X150253651Y-88798591D02*
X150632943Y-88437399D01*
X150632943Y-88437399D02*
X150995373Y-88059579D01*
X150995373Y-88059579D02*
X151340358Y-87665764D01*
X151340358Y-87665764D02*
X151667315Y-87256593D01*
X151667315Y-87256593D02*
X151975661Y-86832701D01*
X151975661Y-86832701D02*
X152264811Y-86394724D01*
X152264811Y-86394724D02*
X152534184Y-85943299D01*
X152534184Y-85943299D02*
X152783196Y-85479061D01*
X152783196Y-85479061D02*
X153011262Y-85002648D01*
X153011262Y-85002648D02*
X153217802Y-84514694D01*
X153217802Y-84514694D02*
X153402230Y-84015836D01*
X153402230Y-84015836D02*
X153563964Y-83506711D01*
X153563964Y-83506711D02*
X153702421Y-82987955D01*
X153702421Y-82987955D02*
X153817017Y-82460203D01*
X153817017Y-82460203D02*
X153907169Y-81924092D01*
X153907169Y-81924092D02*
X153972295Y-81380258D01*
X153972295Y-81380258D02*
X154011809Y-80829338D01*
X154011809Y-80829338D02*
X154025131Y-80271967D01*
X154025131Y-80271967D02*
X154010966Y-79700487D01*
X154010966Y-79700487D02*
X153968733Y-79132884D01*
X153968733Y-79132884D02*
X153898824Y-78570102D01*
X153898824Y-78570102D02*
X153801629Y-78013086D01*
X153801629Y-78013086D02*
X153677539Y-77462782D01*
X153677539Y-77462782D02*
X153526947Y-76920133D01*
X153526947Y-76920133D02*
X153350242Y-76386086D01*
X153350242Y-76386086D02*
X153147818Y-75861583D01*
X153147818Y-75861583D02*
X152920064Y-75347572D01*
X152920064Y-75347572D02*
X152667373Y-74844995D01*
X152667373Y-74844995D02*
X152390135Y-74354799D01*
X152390135Y-74354799D02*
X152088742Y-73877928D01*
X152088742Y-73877928D02*
X151763585Y-73415327D01*
X151763585Y-73415327D02*
X151415055Y-72967940D01*
X151415055Y-72967940D02*
X151043545Y-72536713D01*
X151043545Y-72536713D02*
X150649444Y-72122591D01*
X150649444Y-72122591D02*
X150235312Y-71728499D01*
X150235312Y-71728499D02*
X149804075Y-71356997D01*
X149804075Y-71356997D02*
X149356679Y-71008478D01*
X149356679Y-71008478D02*
X148894068Y-70683331D01*
X148894068Y-70683331D02*
X148417187Y-70381948D01*
X148417187Y-70381948D02*
X147926980Y-70104722D01*
X147926980Y-70104722D02*
X147424393Y-69852042D01*
X147424393Y-69852042D02*
X146910370Y-69624300D01*
X146910370Y-69624300D02*
X146385856Y-69421887D01*
X146385856Y-69421887D02*
X145851795Y-69245195D01*
X145851795Y-69245195D02*
X145309132Y-69094615D01*
X145309132Y-69094615D02*
X144758812Y-68970538D01*
X144758812Y-68970538D02*
X144201779Y-68873355D01*
X144201779Y-68873355D02*
X143638979Y-68803459D01*
X143638979Y-68803459D02*
X143071356Y-68761239D01*
X143071356Y-68761239D02*
X142499854Y-68747087D01*
X142499854Y-68747087D02*
X142499740Y-68747087D01*
X142499740Y-68747087D02*
X142499740Y-68747087D01*
G36*
X143071356Y-68761239D02*
G01*
X143638979Y-68803459D01*
X144201779Y-68873355D01*
X144758812Y-68970538D01*
X145309132Y-69094615D01*
X145851795Y-69245195D01*
X146385856Y-69421887D01*
X146910370Y-69624300D01*
X147424393Y-69852042D01*
X147926980Y-70104722D01*
X148417187Y-70381948D01*
X148894068Y-70683331D01*
X149356679Y-71008478D01*
X149804075Y-71356997D01*
X150235312Y-71728499D01*
X150649444Y-72122591D01*
X151043545Y-72536713D01*
X151415055Y-72967940D01*
X151763585Y-73415327D01*
X152088742Y-73877928D01*
X152390135Y-74354799D01*
X152667373Y-74844995D01*
X152920064Y-75347572D01*
X153147818Y-75861583D01*
X153350242Y-76386086D01*
X153526947Y-76920133D01*
X153677539Y-77462782D01*
X153801629Y-78013086D01*
X153898824Y-78570102D01*
X153968733Y-79132884D01*
X154010966Y-79700487D01*
X154025131Y-80271967D01*
X154011809Y-80829338D01*
X153972295Y-81380258D01*
X153907169Y-81924092D01*
X153817017Y-82460203D01*
X153702421Y-82987955D01*
X153563964Y-83506711D01*
X153402230Y-84015836D01*
X153217802Y-84514694D01*
X153011262Y-85002648D01*
X152783196Y-85479061D01*
X152534184Y-85943299D01*
X152264811Y-86394724D01*
X151975661Y-86832701D01*
X151667315Y-87256593D01*
X151340358Y-87665764D01*
X150995373Y-88059579D01*
X150632943Y-88437399D01*
X150253651Y-88798591D01*
X149858080Y-89142517D01*
X149446814Y-89468541D01*
X149020435Y-89776027D01*
X148579528Y-90064339D01*
X148124675Y-90332841D01*
X147656460Y-90580896D01*
X147175466Y-90807869D01*
X146682275Y-91013123D01*
X146177472Y-91196021D01*
X145661640Y-91355929D01*
X145135361Y-91492209D01*
X144599219Y-91604226D01*
X144053797Y-91691343D01*
X143499679Y-91752924D01*
X143499717Y-90749368D01*
X144002242Y-90689377D01*
X144496765Y-90606397D01*
X144982765Y-90501002D01*
X145459719Y-90373765D01*
X145927107Y-90225260D01*
X146384407Y-90056060D01*
X146831098Y-89866739D01*
X147266658Y-89657871D01*
X147690566Y-89430029D01*
X148102301Y-89183786D01*
X148501341Y-88919716D01*
X148887164Y-88638392D01*
X149259249Y-88340389D01*
X149617075Y-88026280D01*
X149960121Y-87696638D01*
X150287864Y-87352036D01*
X150599784Y-86993049D01*
X150895359Y-86620250D01*
X151174067Y-86234212D01*
X151435388Y-85835509D01*
X151678800Y-85424714D01*
X151903781Y-85002402D01*
X152109809Y-84569145D01*
X152296365Y-84125517D01*
X152462925Y-83672092D01*
X152608969Y-83209443D01*
X152733976Y-82738143D01*
X152837423Y-82258767D01*
X152918790Y-81771888D01*
X152977554Y-81278079D01*
X153013195Y-80777914D01*
X153025192Y-80271967D01*
X153012253Y-79750049D01*
X152973681Y-79231675D01*
X152909833Y-78717706D01*
X152821066Y-78209006D01*
X152707738Y-77706436D01*
X152570206Y-77210861D01*
X152408828Y-76723141D01*
X152223961Y-76244141D01*
X152015962Y-75774723D01*
X151785189Y-75315749D01*
X151531999Y-74868083D01*
X151256750Y-74432586D01*
X150959799Y-74010122D01*
X150641503Y-73601554D01*
X150302219Y-73207743D01*
X149942306Y-72829553D01*
X149564099Y-72469658D01*
X149170272Y-72130393D01*
X148761688Y-71812116D01*
X148339208Y-71515185D01*
X147903697Y-71239957D01*
X147456016Y-70986789D01*
X146997028Y-70756039D01*
X146527597Y-70548063D01*
X146048584Y-70363219D01*
X145560852Y-70201865D01*
X145065264Y-70064357D01*
X144562683Y-69951054D01*
X144053971Y-69862311D01*
X143539991Y-69798488D01*
X143021606Y-69759940D01*
X142499679Y-69747026D01*
X141958068Y-69760728D01*
X141423568Y-69801379D01*
X140896839Y-69868317D01*
X140378542Y-69960881D01*
X139869340Y-70078410D01*
X139369894Y-70220242D01*
X138880864Y-70385716D01*
X138402912Y-70574172D01*
X137936699Y-70784947D01*
X137482887Y-71017380D01*
X137042137Y-71270810D01*
X136615109Y-71544575D01*
X136202466Y-71838016D01*
X135804869Y-72150469D01*
X135422979Y-72481273D01*
X135057457Y-72829769D01*
X134708965Y-73195293D01*
X134378163Y-73577185D01*
X134065714Y-73974784D01*
X133772278Y-74387428D01*
X133498517Y-74814456D01*
X133245091Y-75255206D01*
X133012663Y-75709018D01*
X132801894Y-76175230D01*
X132613444Y-76653180D01*
X132447975Y-77142208D01*
X132306149Y-77641652D01*
X132188627Y-78150850D01*
X132096069Y-78669142D01*
X132029138Y-79195867D01*
X131988494Y-79730362D01*
X131974799Y-80271967D01*
X131986795Y-80777901D01*
X132022433Y-81278053D01*
X132081194Y-81771849D01*
X132162555Y-82258717D01*
X132265995Y-82738081D01*
X132390994Y-83209370D01*
X132537028Y-83672009D01*
X132703579Y-84125425D01*
X132890123Y-84569044D01*
X133096139Y-85002293D01*
X133321107Y-85424598D01*
X133564504Y-85835387D01*
X133825810Y-86234084D01*
X134104502Y-86620118D01*
X134400061Y-86992914D01*
X134711963Y-87351899D01*
X135039689Y-87696499D01*
X135382716Y-88026141D01*
X135740524Y-88340252D01*
X136112590Y-88638257D01*
X136498394Y-88919584D01*
X136897414Y-89183658D01*
X137309129Y-89429907D01*
X137733017Y-89657757D01*
X138168557Y-89866635D01*
X138615228Y-90055966D01*
X139072508Y-90225177D01*
X139539876Y-90373696D01*
X140016811Y-90500948D01*
X140502791Y-90606359D01*
X140997295Y-90689357D01*
X141499801Y-90749368D01*
X141499221Y-91752878D01*
X140945125Y-91691246D01*
X140399728Y-91604080D01*
X139863611Y-91492018D01*
X139337360Y-91355694D01*
X138821556Y-91195746D01*
X138316783Y-91012809D01*
X137823623Y-90807520D01*
X137342661Y-90580515D01*
X136874479Y-90332431D01*
X136419661Y-90063904D01*
X135978789Y-89775569D01*
X135552446Y-89468064D01*
X135141217Y-89142024D01*
X134745683Y-88798086D01*
X134366429Y-88436886D01*
X134004036Y-88059061D01*
X133659089Y-87665246D01*
X133332171Y-87256078D01*
X133023864Y-86832193D01*
X132734751Y-86394228D01*
X132465417Y-85942818D01*
X132216444Y-85478601D01*
X131988415Y-85002211D01*
X131781913Y-84514287D01*
X131597521Y-84015463D01*
X131435823Y-83506376D01*
X131297402Y-82987663D01*
X131182841Y-82459959D01*
X131092722Y-81923901D01*
X131027630Y-81380126D01*
X130988147Y-80829269D01*
X130974857Y-80271967D01*
X130989859Y-79678901D01*
X131034370Y-79093621D01*
X131107666Y-78516850D01*
X131209022Y-77949314D01*
X131337715Y-77391735D01*
X131493020Y-76844838D01*
X131674214Y-76309347D01*
X131880572Y-75785987D01*
X132111370Y-75275481D01*
X132365884Y-74778553D01*
X132643389Y-74295928D01*
X132943163Y-73828329D01*
X133264480Y-73376482D01*
X133606617Y-72941109D01*
X133968849Y-72522935D01*
X134350453Y-72122684D01*
X134750703Y-71741081D01*
X135168877Y-71378848D01*
X135604250Y-71036712D01*
X136056098Y-70715394D01*
X136523697Y-70415621D01*
X137006322Y-70138115D01*
X137503250Y-69883601D01*
X138013756Y-69652803D01*
X138537117Y-69446445D01*
X139072608Y-69265251D01*
X139619505Y-69109946D01*
X140177085Y-68981253D01*
X140744622Y-68879896D01*
X141321393Y-68806600D01*
X141906674Y-68762089D01*
X142499740Y-68747087D01*
X142499854Y-68747087D01*
X143071356Y-68761239D01*
G37*
X143071356Y-68761239D02*
X143638979Y-68803459D01*
X144201779Y-68873355D01*
X144758812Y-68970538D01*
X145309132Y-69094615D01*
X145851795Y-69245195D01*
X146385856Y-69421887D01*
X146910370Y-69624300D01*
X147424393Y-69852042D01*
X147926980Y-70104722D01*
X148417187Y-70381948D01*
X148894068Y-70683331D01*
X149356679Y-71008478D01*
X149804075Y-71356997D01*
X150235312Y-71728499D01*
X150649444Y-72122591D01*
X151043545Y-72536713D01*
X151415055Y-72967940D01*
X151763585Y-73415327D01*
X152088742Y-73877928D01*
X152390135Y-74354799D01*
X152667373Y-74844995D01*
X152920064Y-75347572D01*
X153147818Y-75861583D01*
X153350242Y-76386086D01*
X153526947Y-76920133D01*
X153677539Y-77462782D01*
X153801629Y-78013086D01*
X153898824Y-78570102D01*
X153968733Y-79132884D01*
X154010966Y-79700487D01*
X154025131Y-80271967D01*
X154011809Y-80829338D01*
X153972295Y-81380258D01*
X153907169Y-81924092D01*
X153817017Y-82460203D01*
X153702421Y-82987955D01*
X153563964Y-83506711D01*
X153402230Y-84015836D01*
X153217802Y-84514694D01*
X153011262Y-85002648D01*
X152783196Y-85479061D01*
X152534184Y-85943299D01*
X152264811Y-86394724D01*
X151975661Y-86832701D01*
X151667315Y-87256593D01*
X151340358Y-87665764D01*
X150995373Y-88059579D01*
X150632943Y-88437399D01*
X150253651Y-88798591D01*
X149858080Y-89142517D01*
X149446814Y-89468541D01*
X149020435Y-89776027D01*
X148579528Y-90064339D01*
X148124675Y-90332841D01*
X147656460Y-90580896D01*
X147175466Y-90807869D01*
X146682275Y-91013123D01*
X146177472Y-91196021D01*
X145661640Y-91355929D01*
X145135361Y-91492209D01*
X144599219Y-91604226D01*
X144053797Y-91691343D01*
X143499679Y-91752924D01*
X143499717Y-90749368D01*
X144002242Y-90689377D01*
X144496765Y-90606397D01*
X144982765Y-90501002D01*
X145459719Y-90373765D01*
X145927107Y-90225260D01*
X146384407Y-90056060D01*
X146831098Y-89866739D01*
X147266658Y-89657871D01*
X147690566Y-89430029D01*
X148102301Y-89183786D01*
X148501341Y-88919716D01*
X148887164Y-88638392D01*
X149259249Y-88340389D01*
X149617075Y-88026280D01*
X149960121Y-87696638D01*
X150287864Y-87352036D01*
X150599784Y-86993049D01*
X150895359Y-86620250D01*
X151174067Y-86234212D01*
X151435388Y-85835509D01*
X151678800Y-85424714D01*
X151903781Y-85002402D01*
X152109809Y-84569145D01*
X152296365Y-84125517D01*
X152462925Y-83672092D01*
X152608969Y-83209443D01*
X152733976Y-82738143D01*
X152837423Y-82258767D01*
X152918790Y-81771888D01*
X152977554Y-81278079D01*
X153013195Y-80777914D01*
X153025192Y-80271967D01*
X153012253Y-79750049D01*
X152973681Y-79231675D01*
X152909833Y-78717706D01*
X152821066Y-78209006D01*
X152707738Y-77706436D01*
X152570206Y-77210861D01*
X152408828Y-76723141D01*
X152223961Y-76244141D01*
X152015962Y-75774723D01*
X151785189Y-75315749D01*
X151531999Y-74868083D01*
X151256750Y-74432586D01*
X150959799Y-74010122D01*
X150641503Y-73601554D01*
X150302219Y-73207743D01*
X149942306Y-72829553D01*
X149564099Y-72469658D01*
X149170272Y-72130393D01*
X148761688Y-71812116D01*
X148339208Y-71515185D01*
X147903697Y-71239957D01*
X147456016Y-70986789D01*
X146997028Y-70756039D01*
X146527597Y-70548063D01*
X146048584Y-70363219D01*
X145560852Y-70201865D01*
X145065264Y-70064357D01*
X144562683Y-69951054D01*
X144053971Y-69862311D01*
X143539991Y-69798488D01*
X143021606Y-69759940D01*
X142499679Y-69747026D01*
X141958068Y-69760728D01*
X141423568Y-69801379D01*
X140896839Y-69868317D01*
X140378542Y-69960881D01*
X139869340Y-70078410D01*
X139369894Y-70220242D01*
X138880864Y-70385716D01*
X138402912Y-70574172D01*
X137936699Y-70784947D01*
X137482887Y-71017380D01*
X137042137Y-71270810D01*
X136615109Y-71544575D01*
X136202466Y-71838016D01*
X135804869Y-72150469D01*
X135422979Y-72481273D01*
X135057457Y-72829769D01*
X134708965Y-73195293D01*
X134378163Y-73577185D01*
X134065714Y-73974784D01*
X133772278Y-74387428D01*
X133498517Y-74814456D01*
X133245091Y-75255206D01*
X133012663Y-75709018D01*
X132801894Y-76175230D01*
X132613444Y-76653180D01*
X132447975Y-77142208D01*
X132306149Y-77641652D01*
X132188627Y-78150850D01*
X132096069Y-78669142D01*
X132029138Y-79195867D01*
X131988494Y-79730362D01*
X131974799Y-80271967D01*
X131986795Y-80777901D01*
X132022433Y-81278053D01*
X132081194Y-81771849D01*
X132162555Y-82258717D01*
X132265995Y-82738081D01*
X132390994Y-83209370D01*
X132537028Y-83672009D01*
X132703579Y-84125425D01*
X132890123Y-84569044D01*
X133096139Y-85002293D01*
X133321107Y-85424598D01*
X133564504Y-85835387D01*
X133825810Y-86234084D01*
X134104502Y-86620118D01*
X134400061Y-86992914D01*
X134711963Y-87351899D01*
X135039689Y-87696499D01*
X135382716Y-88026141D01*
X135740524Y-88340252D01*
X136112590Y-88638257D01*
X136498394Y-88919584D01*
X136897414Y-89183658D01*
X137309129Y-89429907D01*
X137733017Y-89657757D01*
X138168557Y-89866635D01*
X138615228Y-90055966D01*
X139072508Y-90225177D01*
X139539876Y-90373696D01*
X140016811Y-90500948D01*
X140502791Y-90606359D01*
X140997295Y-90689357D01*
X141499801Y-90749368D01*
X141499221Y-91752878D01*
X140945125Y-91691246D01*
X140399728Y-91604080D01*
X139863611Y-91492018D01*
X139337360Y-91355694D01*
X138821556Y-91195746D01*
X138316783Y-91012809D01*
X137823623Y-90807520D01*
X137342661Y-90580515D01*
X136874479Y-90332431D01*
X136419661Y-90063904D01*
X135978789Y-89775569D01*
X135552446Y-89468064D01*
X135141217Y-89142024D01*
X134745683Y-88798086D01*
X134366429Y-88436886D01*
X134004036Y-88059061D01*
X133659089Y-87665246D01*
X133332171Y-87256078D01*
X133023864Y-86832193D01*
X132734751Y-86394228D01*
X132465417Y-85942818D01*
X132216444Y-85478601D01*
X131988415Y-85002211D01*
X131781913Y-84514287D01*
X131597521Y-84015463D01*
X131435823Y-83506376D01*
X131297402Y-82987663D01*
X131182841Y-82459959D01*
X131092722Y-81923901D01*
X131027630Y-81380126D01*
X130988147Y-80829269D01*
X130974857Y-80271967D01*
X130989859Y-79678901D01*
X131034370Y-79093621D01*
X131107666Y-78516850D01*
X131209022Y-77949314D01*
X131337715Y-77391735D01*
X131493020Y-76844838D01*
X131674214Y-76309347D01*
X131880572Y-75785987D01*
X132111370Y-75275481D01*
X132365884Y-74778553D01*
X132643389Y-74295928D01*
X132943163Y-73828329D01*
X133264480Y-73376482D01*
X133606617Y-72941109D01*
X133968849Y-72522935D01*
X134350453Y-72122684D01*
X134750703Y-71741081D01*
X135168877Y-71378848D01*
X135604250Y-71036712D01*
X136056098Y-70715394D01*
X136523697Y-70415621D01*
X137006322Y-70138115D01*
X137503250Y-69883601D01*
X138013756Y-69652803D01*
X138537117Y-69446445D01*
X139072608Y-69265251D01*
X139619505Y-69109946D01*
X140177085Y-68981253D01*
X140744622Y-68879896D01*
X141321393Y-68806600D01*
X141906674Y-68762089D01*
X142499740Y-68747087D01*
X142499854Y-68747087D01*
X143071356Y-68761239D01*
%TD*%
D12*
%TO.P,U2,1,SENSE*%
%TO.N,SENSE0*%
X142499994Y-88875005D03*
D13*
%TO.P,U2,2,GUARD*%
%TO.N,GUARD*%
X140999994Y-91250005D03*
D14*
X143999994Y-91250005D03*
%TD*%
D15*
%TO.P,J1,1,Pin_1*%
%TO.N,GND*%
X138690000Y-113802000D03*
D16*
%TO.P,J1,2,Pin_2*%
%TO.N,SENSITIVITY*%
X141230000Y-113802000D03*
%TO.P,J1,3,Pin_3*%
%TO.N,OUT*%
X143770000Y-113802000D03*
%TO.P,J1,4,Pin_4*%
%TO.N,+3V3*%
X146310000Y-113802000D03*
%TD*%
D17*
%TO.N,SENSE0*%
X142501805Y-92367567D03*
%TO.N,GND*%
X146000000Y-105500000D03*
X142750000Y-101758852D03*
X147750000Y-108000000D03*
X142750000Y-107250000D03*
X137000000Y-99250000D03*
X147750000Y-115250000D03*
X138750000Y-111000000D03*
X146250000Y-111000000D03*
X142750000Y-111000000D03*
X137250000Y-115250000D03*
X137000000Y-105500000D03*
X147750000Y-99250000D03*
%TD*%
D18*
%TO.N,SENSE0*%
X142501805Y-92367567D02*
X142506927Y-92362445D01*
X142506927Y-92362445D02*
X142506927Y-87375000D01*
%TD*%
%TA.AperFunction,Conductor*%
%TO.N,GND*%
G36*
X139842121Y-98070002D02*
G01*
X139888614Y-98123658D01*
X139900000Y-98176000D01*
X139900000Y-99650000D01*
X141900000Y-99650000D01*
X141900000Y-98176000D01*
X141920002Y-98107879D01*
X141973658Y-98061386D01*
X142026000Y-98050000D01*
X142374000Y-98050000D01*
X142442121Y-98070002D01*
X142488614Y-98123658D01*
X142500000Y-98176000D01*
X142500000Y-99650000D01*
X143850000Y-99650000D01*
X143850000Y-98176000D01*
X143870002Y-98107879D01*
X143923658Y-98061386D01*
X143976000Y-98050000D01*
X148493000Y-98050000D01*
X148561121Y-98070002D01*
X148607614Y-98123658D01*
X148619000Y-98176000D01*
X148619000Y-115993000D01*
X148598998Y-116061121D01*
X148545342Y-116107614D01*
X148493000Y-116119000D01*
X136507000Y-116119000D01*
X136438879Y-116098998D01*
X136392386Y-116045342D01*
X136381000Y-115993000D01*
X136381000Y-114696669D01*
X137332001Y-114696669D01*
X137332371Y-114703490D01*
X137337895Y-114754352D01*
X137341521Y-114769604D01*
X137386676Y-114890054D01*
X137395214Y-114905649D01*
X137471715Y-115007724D01*
X137484276Y-115020285D01*
X137586351Y-115096786D01*
X137601946Y-115105324D01*
X137722394Y-115150478D01*
X137737649Y-115154105D01*
X137788514Y-115159631D01*
X137795328Y-115160000D01*
X138417885Y-115160000D01*
X138433124Y-115155525D01*
X138434329Y-115154135D01*
X138436000Y-115146452D01*
X138436000Y-115141884D01*
X138944000Y-115141884D01*
X138948475Y-115157123D01*
X138949865Y-115158328D01*
X138957548Y-115159999D01*
X139584669Y-115159999D01*
X139591490Y-115159629D01*
X139642352Y-115154105D01*
X139657604Y-115150479D01*
X139778054Y-115105324D01*
X139793649Y-115096786D01*
X139895724Y-115020285D01*
X139908285Y-115007724D01*
X139984786Y-114905649D01*
X139993324Y-114890054D01*
X140038478Y-114769606D01*
X140042105Y-114754351D01*
X140047631Y-114703486D01*
X140048000Y-114696672D01*
X140048000Y-114660605D01*
X140068002Y-114592484D01*
X140121658Y-114545991D01*
X140191932Y-114535887D01*
X140256512Y-114565381D01*
X140277212Y-114588333D01*
X140283013Y-114596617D01*
X140435383Y-114748987D01*
X140439891Y-114752144D01*
X140439894Y-114752146D01*
X140443045Y-114754352D01*
X140611898Y-114872584D01*
X140616880Y-114874907D01*
X140616885Y-114874910D01*
X140802211Y-114961329D01*
X140807193Y-114963652D01*
X140812501Y-114965074D01*
X140812503Y-114965075D01*
X141010020Y-115017999D01*
X141010022Y-115017999D01*
X141015335Y-115019423D01*
X141230000Y-115038204D01*
X141444665Y-115019423D01*
X141449978Y-115017999D01*
X141449980Y-115017999D01*
X141647497Y-114965075D01*
X141647499Y-114965074D01*
X141652807Y-114963652D01*
X141657789Y-114961329D01*
X141843115Y-114874910D01*
X141843120Y-114874907D01*
X141848102Y-114872584D01*
X142016955Y-114754352D01*
X142020106Y-114752146D01*
X142020109Y-114752144D01*
X142024617Y-114748987D01*
X142176987Y-114596617D01*
X142300584Y-114420102D01*
X142302907Y-114415120D01*
X142302910Y-114415115D01*
X142385805Y-114237346D01*
X142432723Y-114184061D01*
X142501000Y-114164600D01*
X142568960Y-114185142D01*
X142614195Y-114237346D01*
X142697090Y-114415115D01*
X142697093Y-114415120D01*
X142699416Y-114420102D01*
X142823013Y-114596617D01*
X142975383Y-114748987D01*
X142979891Y-114752144D01*
X142979894Y-114752146D01*
X142983045Y-114754352D01*
X143151898Y-114872584D01*
X143156880Y-114874907D01*
X143156885Y-114874910D01*
X143342211Y-114961329D01*
X143347193Y-114963652D01*
X143352501Y-114965074D01*
X143352503Y-114965075D01*
X143550020Y-115017999D01*
X143550022Y-115017999D01*
X143555335Y-115019423D01*
X143770000Y-115038204D01*
X143984665Y-115019423D01*
X143989978Y-115017999D01*
X143989980Y-115017999D01*
X144187497Y-114965075D01*
X144187499Y-114965074D01*
X144192807Y-114963652D01*
X144197789Y-114961329D01*
X144383115Y-114874910D01*
X144383120Y-114874907D01*
X144388102Y-114872584D01*
X144556955Y-114754352D01*
X144560106Y-114752146D01*
X144560109Y-114752144D01*
X144564617Y-114748987D01*
X144716987Y-114596617D01*
X144840584Y-114420102D01*
X144842907Y-114415120D01*
X144842910Y-114415115D01*
X144925805Y-114237346D01*
X144972723Y-114184061D01*
X145041000Y-114164600D01*
X145108960Y-114185142D01*
X145154195Y-114237346D01*
X145237090Y-114415115D01*
X145237093Y-114415120D01*
X145239416Y-114420102D01*
X145363013Y-114596617D01*
X145515383Y-114748987D01*
X145519891Y-114752144D01*
X145519894Y-114752146D01*
X145523045Y-114754352D01*
X145691898Y-114872584D01*
X145696880Y-114874907D01*
X145696885Y-114874910D01*
X145882211Y-114961329D01*
X145887193Y-114963652D01*
X145892501Y-114965074D01*
X145892503Y-114965075D01*
X146090020Y-115017999D01*
X146090022Y-115017999D01*
X146095335Y-115019423D01*
X146310000Y-115038204D01*
X146524665Y-115019423D01*
X146529978Y-115017999D01*
X146529980Y-115017999D01*
X146727497Y-114965075D01*
X146727499Y-114965074D01*
X146732807Y-114963652D01*
X146737789Y-114961329D01*
X146923115Y-114874910D01*
X146923120Y-114874907D01*
X146928102Y-114872584D01*
X147096955Y-114754352D01*
X147100106Y-114752146D01*
X147100109Y-114752144D01*
X147104617Y-114748987D01*
X147256987Y-114596617D01*
X147380584Y-114420102D01*
X147382907Y-114415120D01*
X147382910Y-114415115D01*
X147469329Y-114229789D01*
X147469330Y-114229787D01*
X147471652Y-114224807D01*
X147512030Y-114074115D01*
X147525999Y-114021980D01*
X147525999Y-114021978D01*
X147527423Y-114016665D01*
X147546204Y-113802000D01*
X147527423Y-113587335D01*
X147513253Y-113534452D01*
X147473075Y-113384503D01*
X147473074Y-113384501D01*
X147471652Y-113379193D01*
X147465805Y-113366654D01*
X147382910Y-113188885D01*
X147382907Y-113188880D01*
X147380584Y-113183898D01*
X147377427Y-113179389D01*
X147260146Y-113011894D01*
X147260144Y-113011891D01*
X147256987Y-113007383D01*
X147104617Y-112855013D01*
X147100109Y-112851856D01*
X147100106Y-112851854D01*
X146932611Y-112734573D01*
X146932609Y-112734572D01*
X146928102Y-112731416D01*
X146923120Y-112729093D01*
X146923115Y-112729090D01*
X146737789Y-112642671D01*
X146737787Y-112642670D01*
X146732807Y-112640348D01*
X146727499Y-112638926D01*
X146727497Y-112638925D01*
X146529980Y-112586001D01*
X146529978Y-112586001D01*
X146524665Y-112584577D01*
X146310000Y-112565796D01*
X146095335Y-112584577D01*
X146090022Y-112586001D01*
X146090020Y-112586001D01*
X145892503Y-112638925D01*
X145892501Y-112638926D01*
X145887193Y-112640348D01*
X145882213Y-112642670D01*
X145882211Y-112642671D01*
X145696885Y-112729090D01*
X145696880Y-112729093D01*
X145691898Y-112731416D01*
X145687391Y-112734572D01*
X145687389Y-112734573D01*
X145519894Y-112851854D01*
X145519891Y-112851856D01*
X145515383Y-112855013D01*
X145363013Y-113007383D01*
X145359856Y-113011891D01*
X145359854Y-113011894D01*
X145242573Y-113179389D01*
X145239416Y-113183898D01*
X145237093Y-113188880D01*
X145237090Y-113188885D01*
X145154195Y-113366654D01*
X145107277Y-113419939D01*
X145039000Y-113439400D01*
X144971040Y-113418858D01*
X144925805Y-113366654D01*
X144842910Y-113188885D01*
X144842907Y-113188880D01*
X144840584Y-113183898D01*
X144837427Y-113179389D01*
X144720146Y-113011894D01*
X144720144Y-113011891D01*
X144716987Y-113007383D01*
X144564617Y-112855013D01*
X144560109Y-112851856D01*
X144560106Y-112851854D01*
X144392611Y-112734573D01*
X144392609Y-112734572D01*
X144388102Y-112731416D01*
X144383120Y-112729093D01*
X144383115Y-112729090D01*
X144197789Y-112642671D01*
X144197787Y-112642670D01*
X144192807Y-112640348D01*
X144187499Y-112638926D01*
X144187497Y-112638925D01*
X143989980Y-112586001D01*
X143989978Y-112586001D01*
X143984665Y-112584577D01*
X143770000Y-112565796D01*
X143555335Y-112584577D01*
X143550022Y-112586001D01*
X143550020Y-112586001D01*
X143352503Y-112638925D01*
X143352501Y-112638926D01*
X143347193Y-112640348D01*
X143342213Y-112642670D01*
X143342211Y-112642671D01*
X143156885Y-112729090D01*
X143156880Y-112729093D01*
X143151898Y-112731416D01*
X143147391Y-112734572D01*
X143147389Y-112734573D01*
X142979894Y-112851854D01*
X142979891Y-112851856D01*
X142975383Y-112855013D01*
X142823013Y-113007383D01*
X142819856Y-113011891D01*
X142819854Y-113011894D01*
X142702573Y-113179389D01*
X142699416Y-113183898D01*
X142697093Y-113188880D01*
X142697090Y-113188885D01*
X142614195Y-113366654D01*
X142567277Y-113419939D01*
X142499000Y-113439400D01*
X142431040Y-113418858D01*
X142385805Y-113366654D01*
X142302910Y-113188885D01*
X142302907Y-113188880D01*
X142300584Y-113183898D01*
X142297427Y-113179389D01*
X142180146Y-113011894D01*
X142180144Y-113011891D01*
X142176987Y-113007383D01*
X142024617Y-112855013D01*
X142020109Y-112851856D01*
X142020106Y-112851854D01*
X141852611Y-112734573D01*
X141852609Y-112734572D01*
X141848102Y-112731416D01*
X141843120Y-112729093D01*
X141843115Y-112729090D01*
X141657789Y-112642671D01*
X141657787Y-112642670D01*
X141652807Y-112640348D01*
X141647499Y-112638926D01*
X141647497Y-112638925D01*
X141449980Y-112586001D01*
X141449978Y-112586001D01*
X141444665Y-112584577D01*
X141230000Y-112565796D01*
X141015335Y-112584577D01*
X141010022Y-112586001D01*
X141010020Y-112586001D01*
X140812503Y-112638925D01*
X140812501Y-112638926D01*
X140807193Y-112640348D01*
X140802213Y-112642670D01*
X140802211Y-112642671D01*
X140616885Y-112729090D01*
X140616880Y-112729093D01*
X140611898Y-112731416D01*
X140607391Y-112734572D01*
X140607389Y-112734573D01*
X140439894Y-112851854D01*
X140439891Y-112851856D01*
X140435383Y-112855013D01*
X140283013Y-113007383D01*
X140279853Y-113011896D01*
X140277213Y-113015666D01*
X140221757Y-113059995D01*
X140151138Y-113067306D01*
X140087777Y-113035276D01*
X140051791Y-112974075D01*
X140047999Y-112943397D01*
X140047999Y-112907331D01*
X140047629Y-112900510D01*
X140042105Y-112849648D01*
X140038479Y-112834396D01*
X139993324Y-112713946D01*
X139984786Y-112698351D01*
X139908285Y-112596276D01*
X139895724Y-112583715D01*
X139793649Y-112507214D01*
X139778054Y-112498676D01*
X139657606Y-112453522D01*
X139642351Y-112449895D01*
X139591486Y-112444369D01*
X139584672Y-112444000D01*
X138962115Y-112444000D01*
X138946876Y-112448475D01*
X138945671Y-112449865D01*
X138944000Y-112457548D01*
X138944000Y-115141884D01*
X138436000Y-115141884D01*
X138436000Y-114074115D01*
X138431525Y-114058876D01*
X138430135Y-114057671D01*
X138422452Y-114056000D01*
X137350116Y-114056000D01*
X137334877Y-114060475D01*
X137333672Y-114061865D01*
X137332001Y-114069548D01*
X137332001Y-114696669D01*
X136381000Y-114696669D01*
X136381000Y-113529885D01*
X137332000Y-113529885D01*
X137336475Y-113545124D01*
X137337865Y-113546329D01*
X137345548Y-113548000D01*
X138417885Y-113548000D01*
X138433124Y-113543525D01*
X138434329Y-113542135D01*
X138436000Y-113534452D01*
X138436000Y-112462116D01*
X138431525Y-112446877D01*
X138430135Y-112445672D01*
X138422452Y-112444001D01*
X137795331Y-112444001D01*
X137788510Y-112444371D01*
X137737648Y-112449895D01*
X137722396Y-112453521D01*
X137601946Y-112498676D01*
X137586351Y-112507214D01*
X137484276Y-112583715D01*
X137471715Y-112596276D01*
X137395214Y-112698351D01*
X137386676Y-112713946D01*
X137341522Y-112834394D01*
X137337895Y-112849649D01*
X137332369Y-112900514D01*
X137332000Y-112907328D01*
X137332000Y-113529885D01*
X136381000Y-113529885D01*
X136381000Y-98176000D01*
X136401002Y-98107879D01*
X136454658Y-98061386D01*
X136507000Y-98050000D01*
X139774000Y-98050000D01*
X139842121Y-98070002D01*
G37*
%TD.AperFunction*%
%TD*%
M02*
